999
DXF generated by OpenJsCad
  0
SECTION
  2
HEADER
  0
ENDSEC
  0
SECTION
  2
TABLES
  0
TABLE
  2
LTYPE
  70
1
  0
LTYPE
  2
CONTINUOUS
  3
Solid Line
  72
65
  73
0
  40
0.0
  0
ENDTAB
  0
TABLE
  2
LAYER
  70
1
  0
LAYER
  2
OpenJsCad
  62
7
  6
continuous
  0
ENDTAB
  0
TABLE
  2
STYLE
  70
0
  0
ENDTAB
  0
TABLE
  2
VIEW
  70
0
  0
ENDTAB
  0
ENDSEC
  0
SECTION
  2
BLOCKS
  0
ENDSEC
  0
SECTION
  2
ENTITIES
  0
LWPOLYLINE
  8
OpenJsCad
  90
704
  70
1
 10
48.74576745087538
 20
-9.369853667662644
 30
0.0
 10
48.94208096601912
 20
-8.391962573531941
 30
0.0
 10
49.08275581872969
 20
-7.4045312726188035
 30
0.0
 10
48.23373546294735
 20
-6.843081528354264
 30
0.0
 10
47.33488191972802
 20
-6.3192414467331455
 30
0.0
 10
46.53513499874291
 20
-5.91192884168649
 30
0.0
 10
45.844392705853195
 20
-5.608044082888843
 30
0.0
 10
45.271377194000046
 20
-5.393764255739729
 30
0.0
 10
44.67870385836602
 20
-5.2096197431207605
 30
0.0
 10
44.38787330773477
 20
-5.063376934422307
 30
0.0
 10
44.25646777054379
 20
-4.909453319122892
 30
0.0
 10
44.44958040870215
 20
-2.640544055332617
 30
0.0
 10
44.60510901411788
 20
-2.5110421346952165
 30
0.0
 10
44.916471386671475
 20
-2.416053497299937
 30
0.0
 10
45.5317402296017
 20
-2.3347200157640575
 30
0.0
 10
46.13272690152665
 20
-2.2203625004197045
 30
0.0
 10
46.864890268868926
 20
-2.0375848613659038
 30
0.0
 10
47.7219697228239
 20
-1.7712889630430915
 30
0.0
 10
48.69642347960309
 20
-1.4068908302733327
 30
0.0
 10
49.62811691782291
 20
-0.9970021660620729
 30
0.0
 10
49.65634224467134
 20
4.816930868765364e-15
 30
0.0
 10
49.62811691782291
 20
0.9970021660620704
 30
0.0
 10
48.69642347960456
 20
1.4068908302726906
 30
0.0
 10
47.72196972282375
 20
1.7712889630430395
 30
0.0
 10
46.86489026886892
 20
2.037584861365839
 30
0.0
 10
46.132726901526645
 20
2.2203625004196184
 30
0.0
 10
45.531740229601525
 20
2.3347200157640158
 30
0.0
 10
44.91647138667141
 20
2.4160534972994583
 30
0.0
 10
44.60510901411785
 20
2.511042134695254
 30
0.0
 10
44.44958040870213
 20
2.64054405533249
 30
0.0
 10
44.25646777054383
 20
4.909453319122767
 30
0.0
 10
44.387873307734786
 20
5.063376934422348
 30
0.0
 10
44.67870385836617
 20
5.2096197431203
 30
0.0
 10
45.27137719400023
 20
5.393764255739717
 30
0.0
 10
45.84439270585322
 20
5.608044082888759
 30
0.0
 10
46.53513499874293
 20
5.911928841686427
 30
0.0
 10
47.334881919728176
 20
6.31924144673312
 30
0.0
 10
48.23373546294601
 20
6.843081528353381
 30
0.0
 10
49.08275581872969
 20
7.404531272618802
 30
0.0
 10
48.94208096601912
 20
8.391962573531949
 30
0.0
 10
48.745767450875384
 20
9.369853667662612
 30
0.0
 10
47.75820405410861
 20
9.616389501232387
 30
0.0
 10
46.736183344165404
 20
9.810862614330171
 30
0.0
 10
45.8464279726505
 20
9.92848095777809
 30
0.0
 10
45.09390653788762
 20
9.984893297194835
 30
0.0
 10
44.48223799822813
 20
9.99603864322826
 30
0.0
 10
43.86207381239586
 20
9.972221277499902
 30
0.0
 10
43.53913694648232
 20
10.013223093440537
 30
0.0
 10
43.36395954764945
 20
10.11457778494241
 30
0.0
 10
42.79017713217501
 20
12.318214660206147
 30
0.0
 10
42.89367930308567
 20
12.492131868003757
 30
0.0
 10
43.15561136636701
 20
12.685421708661753
 30
0.0
 10
43.708639061916344
 20
12.96707975000772
 30
0.0
 10
44.23719880070807
 20
13.275117448472672
 30
0.0
 10
44.86664862101012
 20
13.691367115785186
 30
0.0
 10
45.58605574620445
 20
14.227978785500758
 30
0.0
 10
46.383450695961066
 20
14.896190890576545
 30
0.0
 10
47.12537319948019
 20
15.593049827982584
 30
0.0
 10
46.81984512659704
 20
16.542503663031177
 30
0.0
 10
46.46109100556158
 20
17.473151538894133
 30
0.0
 10
45.446068051119184
 20
17.549242154757916
 30
0.0
 10
44.405882063050235
 20
17.568195610795623
 30
0.0
 10
43.50904741604021
 20
17.533752733774843
 30
0.0
 10
42.75781658542253
 20
17.462176893259223
 30
0.0
 10
42.15306276825257
 20
17.369789438668573
 30
0.0
 10
41.54584423401445
 20
17.241506407924245
 30
0.0
 10
41.22062318040359
 20
17.22734185481693
 30
0.0
 10
41.030836522973296
 20
17.297633527244958
 30
0.0
 10
40.0928910055929
 20
19.37260339323237
 30
0.0
 10
40.16551224121209
 20
19.56151091210994
 30
0.0
 10
40.39101050858131
 20
19.796287187934176
 30
0.0
 10
40.888482964139946
 20
20.167355968970675
 30
0.0
 10
41.357381228531665
 20
20.560289855009522
 30
0.0
 10
41.90743045095236
 20
21.076929685772164
 30
0.0
 10
42.52580174718519
 20
21.727403079425308
 30
0.0
 10
43.19879850258942
 20
22.520763962304304
 30
0.0
 10
43.81227939423264
 20
23.332984729989665
 30
0.0
 10
43.3506875875602
 20
24.217147041005607
 30
0.0
 10
42.83981356351321
 20
25.073778653638595
 30
0.0
 10
41.826531413746885
 20
24.977235063315828
 30
0.0
 10
40.79810440456706
 20
24.820123605871718
 30
0.0
 10
39.919990781993675
 20
24.63461036724414
 30
0.0
 10
39.19166209875553
 20
24.43710545340998
 30
0.0
 10
38.611220670322574
 20
24.24384301705442
 30
0.0
 10
38.03441635934863
 20
24.014784790524313
 30
0.0
 10
37.71626713562435
 20
23.94586135677261
 30
0.0
 10
37.517331036187215
 20
23.983067846690762
 30
0.0
 10
36.24220540172279
 20
25.86967759824552
 30
0.0
 10
36.2818565213229
 20
26.06814090282799
 30
0.0
 10
36.46443381819144
 20
26.337649527819092
 30
0.0
 10
36.89203965695878
 20
26.787454075318927
 30
0.0
 10
37.28778709760487
 20
27.253980156443262
 30
0.0
 10
37.74261180748726
 20
27.85614736336876
 30
0.0
 10
38.24215785843176
 20
28.601769545738
 30
0.0
 10
38.77139552815274
 20
29.497455658288303
 30
0.0
 10
39.23878607962933
 20
30.401672143573307
 30
0.0
 10
38.63440969502746
 20
31.195107190658927
 30
0.0
 10
37.9861126834948
 20
31.95307880823175
 30
0.0
 10
37.003721620975135
 20
31.68667839503954
 30
0.0
 10
36.01663956328621
 20
31.358021834692174
 30
0.0
 10
35.18250869529344
 20
31.02677511257001
 30
0.0
 10
34.4980348495869
 20
30.709022982192028
 30
0.0
 10
33.958604052979915
 20
30.42044537249347
 30
0.0
 10
33.428807575111904
 20
30.097201538309594
 30
0.0
 10
33.12688275518792
 20
29.975502025613956
 30
0.0
 10
32.9245202431227
 20
29.978552970048977
 30
0.0
 10
31.348897534462388
 20
31.622528279560573
 30
0.0
 10
31.35443784752514
 20
31.82483794191634
 30
0.0
 10
31.488841757479737
 20
32.12132564362643
 30
0.0
 10
31.834279538014428
 20
32.63692589971511
 30
0.0
 10
32.14549122158306
 20
33.163623069972886
 30
0.0
 10
32.4920069401211
 20
33.83399439888107
 30
0.0
 10
32.85835671541279
 20
34.653315177330526
 30
0.0
 10
33.22861009527325
 20
35.625559260865664
 30
0.0
 10
33.536464331393056
 20
36.595758801771474
 30
0.0
 10
32.806690177061455
 20
37.27564090322568
 30
0.0
 10
32.0396205027135
 20
37.913147062336215
 30
0.0
 10
31.116382129674292
 20
37.4845536811281
 30
0.0
 10
30.199041577100193
 20
36.99380686873518
 30
0.0
 10
29.432889890061944
 20
36.526356028214494
 30
0.0
 10
28.81196194820959
 20
36.097497831553824
 30
0.0
 10
28.32906022530778
 20
35.72190690093136
 30
0.0
 10
27.861512860615946
 20
35.31377659567462
 30
0.0
 10
27.584498271848332
 20
35.14280207743755
 30
0.0
 10
27.384530948186647
 20
35.11160970627287
 30
0.0
 10
25.553738961929568
 20
36.465656397264986
 30
0.0
 10
25.525009083735362
 20
36.665992336752346
 30
0.0
 10
25.60737305099521
 20
36.980929703817026
 30
0.0
 10
25.860705157288262
 20
37.54749278787791
 30
0.0
 10
26.078428090264833
 20
38.11920892863592
 30
0.0
 10
26.30666619113576
 20
38.83849901693611
 30
0.0
 10
26.52928047475087
 20
39.70794802440339
 30
0.0
 10
26.729898049130842
 20
40.7287803868004
 30
0.0
 10
26.8693595640295
 20
41.73705210897302
 30
0.0
 10
26.035181913691837
 20
42.28382229459519
 30
0.0
 10
25.171406774459346
 20
42.78252310375038
 30
0.0
 10
24.33388097795706
 20
42.2040666057657
 30
0.0
 10
23.512672147997606
 20
41.565347433619294
 30
0.0
 10
22.836540431021103
 20
40.975140184296265
 30
0.0
 10
22.297021359389365
 20
40.44751339085067
 30
0.0
 10
21.884540913543663
 20
39.995714206541635
 30
0.0
 10
21.49269314844885
 20
39.514438596013285
 30
0.0
 10
21.24855799619726
 20
39.29910769783195
 30
0.0
 10
21.056738556761264
 20
39.23456935879419
 30
0.0
 10
19.023445845037454
 20
40.259733973273555
 30
0.0
 10
18.96127228187358
 20
40.4523328896642
 30
0.0
 10
18.98922684506031
 20
40.77665974743804
 30
0.0
 10
19.14316537365427
 20
41.37788667108149
 30
0.0
 10
19.261136063664203
 20
41.97817454989111
 30
0.0
 10
19.364530552258028
 20
42.72569073135106
 30
0.0
 10
19.437005136569745
 20
43.62025550289316
 30
0.0
 10
19.46221550311783
 20
44.66030865571068
 30
0.0
 10
19.429272242928644
 20
45.677646417458895
 30
0.0
 10
18.51468886880169
 20
46.07557510451066
 30
0.0
 10
17.579057502768944
 20
46.421123849413384
 30
0.0
 10
16.85133837508957
 20
45.70944537490607
 30
0.0
 10
16.14988595061154
 20
44.94112863067576
 30
0.0
 10
15.583225282164278
 20
44.245144160525776
 30
0.0
 10
15.140636062144107
 20
43.63392763249501
 30
0.0
 10
14.810443204780238
 20
43.118917634443264
 30
0.0
 10
14.505567786048788
 20
42.5783421417019
 30
0.0
 10
14.301335394147744
 20
42.324849541465
 30
0.0
 10
14.123182134965242
 20
42.2288218850636
 30
0.0
 10
11.94588282708427
 20
42.89561230358419
 30
0.0
 10
11.852054199163833
 20
43.0749334767175
 30
0.0
 10
11.824795156391303
 20
43.39931953200277
 30
0.0
 10
11.874911576093703
 20
44.01791409128669
 30
0.0
 10
11.8897362211741
 20
44.62950451881593
 30
0.0
 10
11.86531262630385
 20
45.38374211389435
 30
0.0
 10
11.785562549475674
 20
46.277687649763955
 30
0.0
 10
11.634640451846677
 20
47.30704115741545
 30
0.0
 10
11.430240134185649
 20
48.304178003595965
 30
0.0
 10
10.461561934765307
 20
48.54181750825777
 30
0.0
 10
9.480990752833325
 20
48.72427338065619
 30
0.0
 10
8.884013448325316
 20
47.89984662358809
 30
0.0
 10
8.322496938449731
 20
47.0240353811346
 30
0.0
 10
7.8816091142464595
 20
46.24229589618814
 30
0.0
 10
7.548682231877666
 20
45.56507322024452
 30
0.0
 10
7.310276010321364
 20
45.00166830841766
 30
0.0
 10
7.101143648664904
 20
44.41734430616615
 30
0.0
 10
6.942689411184422
 20
44.13298252444967
 30
0.0
 10
6.7833274771592675
 20
44.008228091522206
 30
0.0
 10
4.524658510010002
 20
44.29746196776542
 30
0.0
 10
4.401874096124918
 20
44.458346653979596
 30
0.0
 10
4.320185640423285
 20
44.773459910573955
 30
0.0
 10
4.265038193086021
 20
45.39162626630001
 30
0.0
 10
4.176290315189085
 20
45.99692489946876
 30
0.0
 10
4.02475125921125
 20
46.73618586579215
 30
0.0
 10
3.795070785752928
 20
47.60379498052486
 30
0.0
 10
3.4723579779124623
 20
48.59283621673439
 30
0.0
 10
3.10238082776798
 20
49.54108633576509
 30
0.0
 10
2.1074749111835875
 20
49.61160020215699
 30
0.0
 10
1.1101731609350955
 20
49.625714278798775
 30
0.0
 10
0.6611116297353054
 20
48.7122564959407
 30
0.0
 10
0.25568484210074843
 20
47.754146250123924
 30
0.0
 10
-0.046746597878647864
 20
46.9091409720534
 30
0.0
 10
-0.26043344234876126
 20
46.185394611567595
 30
0.0
 10
-0.40019451516843596
 20
45.58980291949015
 30
0.0
 10
-0.5075674624713812
 20
44.978540345397214
 30
0.0
 10
-0.6156851056158922
 20
44.671489952924965
 30
0.0
 10
-0.7516711617913369
 20
44.521597701366915
 30
0.0
 10
-3.02673199437225
 20
44.42495430332004
 30
0.0
 10
-3.1749399101875273
 20
44.562774143114716
 30
0.0
 10
-3.3087077506775255
 20
44.85954936635119
 30
0.0
 10
-3.467532573401266
 20
45.459503997957796
 30
0.0
 10
-3.6572998594112938
 20
46.041097497154226
 30
0.0
 10
-3.9315948737626973
 20
46.74411464269053
 30
0.0
 10
-4.304598254807954
 20
47.56042780170741
 30
0.0
 10
-4.789817912940047
 20
48.480703850852095
 30
0.0
 10
-5.31472832657403
 20
49.35278781328309
 30
0.0
 10
-6.307240328522984
 20
49.25414748585326
 30
0.0
 10
-7.292582091516062
 20
49.09951373045086
 30
0.0
 10
-7.580809166759286
 20
48.12330343908725
 30
0.0
 10
-7.818482841631264
 20
47.11045727725239
 30
0.0
 10
-7.973757495494115
 20
46.22649546941065
 30
0.0
 10
-8.0620569206088
 20
45.477046289452154
 30
0.0
 10
-8.09915217308917
 20
44.86640190571413
 30
0.0
 10
-8.101676781838128
 20
44.24578567111346
 30
0.0
 10
-8.156347482902698
 20
43.92487994863162
 30
0.0
 10
-8.265045589981455
 20
43.75416200561218
 30
0.0
 10
-10.491048930033493
 20
43.274421587878834
 30
0.0
 10
-10.660416675882429
 20
43.38521175539106
 30
0.0
 10
-10.842415643940392
 20
43.65511126243443
 30
0.0
 10
-11.100348741072475
 20
44.21959456750491
 30
0.0
 10
-11.385676175885513
 20
44.76075154666177
 30
0.0
 10
-11.77483618045527
 20
45.407300348114006
 30
0.0
 10
-12.280431840940336
 20
46.14883370808777
 30
0.0
 10
-12.914199463236805
 20
46.97386990377609
 30
0.0
 10
-13.578942423462024
 20
47.74469944180753
 30
0.0
 10
-14.540507747541511
 20
47.47974262318212
 30
0.0
 10
-15.485543034765092
 20
47.160809567337495
 30
0.0
 10
-15.604643885870722
 20
46.149930560169274
 30
0.0
 10
-15.667727009085421
 20
45.111486222307946
 30
0.0
 10
-15.671377907747942
 20
44.213997856481406
 30
0.0
 10
-15.631749699813009
 20
43.46040614543894
 30
0.0
 10
-15.565111969079366
 20
42.85227619716303
 30
0.0
 10
-15.462715610877176
 20
42.24016030117097
 30
0.0
 10
-15.462366593330872
 20
41.91463112204375
 30
0.0
 10
-15.54064970467843
 20
41.727998731958216
 30
0.0
 10
-17.65355748898238
 20
40.8789625528954
 30
0.0
 10
-17.83921266318398
 20
40.959535816721015
 30
0.0
 10
-18.06420697986356
 20
41.194795090158436
 30
0.0
 10
-18.413828085817105
 20
41.70756791175809
 30
0.0
 10
-18.786507318627937
 20
42.19272026986706
 30
0.0
 10
-19.27933688862641
 20
42.76420069538588
 30
0.0
 10
-19.902979761934834
 20
43.40962169165647
 30
0.0
 10
-20.667063007800014
 20
44.11568324467809
 30
0.0
 10
-21.45251506994525
 20
44.76308299594662
 30
0.0
 10
-22.355471232499074
 20
44.33943201139183
 30
0.0
 10
-23.233013099361155
 20
43.86537477844166
 30
0.0
 10
-23.179561411689253
 20
42.84890820400229
 30
0.0
 10
-23.066239196646944
 20
41.81473984302393
 30
0.0
 10
-22.91816131040179
 20
40.92954402544444
 30
0.0
 10
-22.751745500808628
 20
40.19348924478372
 30
0.0
 10
-22.583291833047177
 20
39.605368523362436
 30
0.0
 10
-22.378920264686727
 20
39.01936242583005
 30
0.0
 10
-22.323561569128902
 20
38.69857467185147
 30
0.0
 10
-22.369177622161494
 20
38.50139690876187
 30
0.0
 10
-24.308205340724445
 20
37.307490193404945
 30
0.0
 10
-24.504806981938454
 20
37.35552860744304
 30
0.0
 10
-24.76632397039491
 20
37.54937966631321
 30
0.0
 10
-25.19757512250517
 20
37.995690463967726
 30
0.0
 10
-25.6468848503212
 20
38.41088125100069
 30
0.0
 10
-26.229206176312083
 20
38.89085284923571
 30
0.0
 10
-26.952955192442495
 20
39.42159389485548
 30
0.0
 10
-27.82537277805571
 20
39.988368699853
 30
0.0
 10
-28.70893791636201
 20
40.49371415223238
 30
0.0
 10
-29.527308512601653
 20
39.92355666923444
 30
0.0
 10
-30.312111677329064
 20
39.308013022656894
 30
0.0
 10
-30.08764515861471
 20
38.31520077361695
 30
0.0
 10
-29.801177679116922
 20
37.3150595303613
 30
0.0
 10
-29.505630939146634
 20
36.46762173302867
 30
0.0
 10
-29.217215007744738
 20
35.770278838657745
 30
0.0
 10
-28.951791508274145
 20
35.21908650645766
 30
0.0
 10
-28.6513241276788
 20
34.676048535872354
 30
0.0
 10
-28.542548322989326
 20
34.36923068666758
 30
0.0
 10
-28.554185026914144
 20
34.167179995817335
 30
0.0
 10
-30.26355038265192
 20
32.66274926662664
 30
0.0
 10
-30.46544261961232
 20
32.676870853168666
 30
0.0
 10
-30.755958912230536
 20
32.82373695545161
 30
0.0
 10
-31.256433800028308
 20
33.190746180108505
 30
0.0
 10
-31.769448200036425
 20
33.524031113058484
 30
0.0
 10
-32.424508957700716
 20
33.89868597501058
 30
0.0
 10
-33.22754317518557
 20
34.29947861641483
 30
0.0
 10
-34.18319723501543
 20
34.71066159417276
 30
0.0
 10
-35.13945688915672
 20
35.05941487907819
 30
0.0
 10
-35.84969888703196
 20
34.35915329033984
 30
0.0
 10
-36.519185991463026
 20
33.61983130012944
 30
0.0
 10
-36.13016213476447
 20
32.6792347772851
 30
0.0
 10
-35.678790538626316
 20
31.741892894368057
 30
0.0
 10
-35.24427728653925
 20
30.95659235978542
 30
0.0
 10
-34.84215843455749
 20
30.318022637126322
 30
0.0
 10
-34.487400854202185
 20
29.819615493991485
 30
0.0
 10
-34.09948156085208
 20
29.33516786406025
 30
0.0
 10
-33.940417928884266
 20
29.051146510529048
 30
0.0
 10
-33.91774051691629
 20
28.85003552242117
 30
0.0
 10
-35.34826818077799
 20
27.078360512365375
 30
0.0
 10
-35.5496429414117
 20
27.05815901907763
 30
0.0
 10
-35.86080091339473
 20
27.15381509440911
 30
0.0
 10
-36.4161017855704
 20
27.43096455888702
 30
0.0
 10
-36.97806236752534
 20
27.67275563704339
 30
0.0
 10
-37.687017651531164
 20
27.93131562446658
 30
0.0
 10
-38.54623523801414
 20
28.190629787083438
 30
0.0
 10
-39.5576333447143
 20
28.434391951970657
 30
0.0
 10
-40.55907766549851
 20
28.616520072368903
 30
0.0
 10
-41.14075869586484
 20
27.806299628835067
 30
0.0
 10
-41.67566981493718
 20
26.964468242570014
 30
0.0
 10
-41.13328012831768
 20
26.103146695343728
 30
0.0
 10
-40.52998955454987
 20
25.255569792122746
 30
0.0
 10
-39.96900994549228
 20
24.55499818687696
 30
0.0
 10
-39.46475640016622
 20
23.99357212420963
 30
0.0
 10
-39.03087046860752
 20
23.56228843620043
 30
0.0
 10
-38.566658994289455
 20
23.150367823204803
 30
0.0
 10
-38.36188350612859
 20
22.897313742571892
 30
0.0
 10
-38.305544366121474
 20
22.702928054172386
 30
0.0
 10
-39.41608066177296
 20
20.71497662761023
 30
0.0
 10
-39.61114476085864
 20
20.661033214673836
 30
0.0
 10
-39.933992963876435
 20
20.702727411927146
 30
0.0
 10
-40.52814482537126
 20
20.88204403073779
 30
0.0
 10
-41.12288500648924
 20
21.02538536500991
 30
0.0
 10
-41.86533946410739
 20
21.160412177825016
 30
0.0
 10
-42.75602229399889
 20
21.2707878653281
 30
0.0
 10
-43.79406836548748
 20
21.340116623677453
 30
0.0
 10
-44.81188762313074
 20
21.350380085144497
 30
0.0
 10
-45.248273781808486
 20
20.453509353811018
 30
0.0
 10
-45.6332204965366
 20
19.533386527755617
 30
0.0
 10
-44.95306854375379
 20
18.77611860885689
 30
0.0
 10
-44.21521456375524
 20
18.042689929658245
 30
0.0
 10
-43.54390695970671
 20
17.447001423304734
 30
0.0
 10
-42.95202517744326
 20
16.978870226266245
 30
0.0
 10
-42.45149300295798
 20
16.62711723985047
 30
0.0
 10
-41.924343866600395
 20
16.299573849844364
 30
0.0
 10
-41.679747540207075
 20
16.08476694727515
 30
0.0
 10
-41.5913674466424
 20
15.902698680922136
 30
0.0
 10
-42.34996426680611
 20
13.755660580941766
 30
0.0
 10
-42.5331060653654
 20
13.669527102132374
 30
0.0
 10
-42.85835674442537
 20
13.656059955164972
 30
0.0
 10
-43.47426692795372
 20
13.732385115666121
 30
0.0
 10
-44.084677116064704
 20
13.773153036847884
 30
0.0
 10
-44.83927168433292
 20
13.780762199492912
 30
0.0
 10
-45.735796434279116
 20
13.73902410431327
 30
0.0
 10
-46.77062777504514
 20
13.6319249939736
 30
0.0
 10
-47.7755411626439
 20
13.470028535409673
 30
0.0
 10
-48.05407841437419
 20
12.512308854288591
 30
0.0
 10
-48.27798650864608
 20
11.540364846885037
 30
0.0
 10
-47.47963902303197
 20
10.90893577558636
 30
0.0
 10
-46.628448352399886
 20
10.310754728160362
 30
0.0
 10
-45.86612505088222
 20
9.837086194459577
 30
0.0
 10
-45.20364239292064
 20
9.475717145264404
 30
0.0
 10
-44.650863374852094
 20
9.213614153426185
 30
0.0
 10
-44.07594169732997
 20
8.97987081338333
 30
0.0
 10
-43.79856112367912
 20
8.809490692366783
 30
0.0
 10
-43.68068261093553
 20
8.644977620592377
 30
0.0
 10
-44.06551650626912
 20
6.400619224227799
 30
0.0
 10
-44.231467348202884
 20
6.284773582907927
 30
0.0
 10
-44.5497636334509
 20
6.216532517018489
 30
0.0
 10
-45.16971352441751
 20
6.187670483307394
 30
0.0
 10
-45.77823332978056
 20
6.124692172532373
 30
0.0
 10
-46.523259696856655
 20
6.004664783251997
 30
0.0
 10
-47.39983498210009
 20
5.812013634395588
 30
0.0
 10
-48.401681378582396
 20
5.531567701776505
 30
0.0
 10
-49.36477936761664
 20
5.202168789530353
 30
0.0
 10
-49.477454702798696
 20
4.211152010131628
 30
0.0
 10
-49.5338827484106
 20
3.215347880858921
 30
0.0
 10
-48.640306733578704
 20
2.7279227219015367
 30
0.0
 10
-47.7002665781482
 20
2.2821978858771446
 30
0.0
 10
-46.86885823258751
 20
1.9441759061375274
 30
0.0
 10
-46.15483311881824
 20
1.6999649343880459
 30
0.0
 10
-45.56570970307402
 20
1.5350521629928553
 30
0.0
 10
-44.95955493429241
 20
1.401833243230855
 30
0.0
 10
-44.657369847462434
 20
1.2807814296383153
 30
0.0
 10
-44.513384065730676
 20
1.1385562939892737
 30
0.0
 10
-44.513384065730705
 20
-1.1385562939891525
 30
0.0
 10
-44.65736984746245
 20
-1.2807814296383602
 30
0.0
 10
-44.95955493429252
 20
-1.401833243230389
 30
0.0
 10
-45.5657097030742
 20
-1.535052162992834
 30
0.0
 10
-46.15483311881826
 20
-1.6999649343879655
 30
0.0
 10
-46.86885823258753
 20
-1.9441759061374688
 30
0.0
 10
-47.70026657814836
 20
-2.2821978858771113
 30
0.0
 10
-48.64030673357729
 20
-2.727922721900777
 30
0.0
 10
-49.5338827484106
 20
-3.2153478808589253
 30
0.0
 10
-49.477454702798696
 20
-4.211152010131614
 30
0.0
 10
-49.36477936761664
 20
-5.202168789530311
 30
0.0
 10
-48.40168137858392
 20
-5.531567701775952
 30
0.0
 10
-47.39983498209994
 20
-5.812013634395483
 30
0.0
 10
-46.523259696856655
 20
-6.0046647832518945
 30
0.0
 10
-45.77823332978057
 20
-6.12469217253225
 30
0.0
 10
-45.16971352441734
 20
-6.1876704833073015
 30
0.0
 10
-44.54976363345088
 20
-6.216532517017971
 30
0.0
 10
-44.23146734820286
 20
-6.284773582907928
 30
0.0
 10
-44.06551650626912
 20
-6.400619224227635
 30
0.0
 10
-43.68068261093558
 20
-8.644977620592224
 30
0.0
 10
-43.79856112367914
 20
-8.809490692366792
 30
0.0
 10
-44.07594169733016
 20
-8.97987081338285
 30
0.0
 10
-44.650863374852285
 20
-9.213614153426155
 30
0.0
 10
-45.20364239292068
 20
-9.475717145264287
 30
0.0
 10
-45.866125050882246
 20
-9.837086194459479
 30
0.0
 10
-46.62844835240005
 20
-10.310754728160314
 30
0.0
 10
-47.47963902303072
 20
-10.908935775585329
 30
0.0
 10
-48.277986508646094
 20
-11.540364846884996
 30
0.0
 10
-48.054078414374196
 20
-12.512308854288563
 30
0.0
 10
-47.77554116264391
 20
-13.470028535409657
 30
0.0
 10
-46.77062777504674
 20
-13.631924993973334
 30
0.0
 10
-45.73579643427899
 20
-13.739024104313167
 30
0.0
 10
-44.83927168433294
 20
-13.780762199492836
 30
0.0
 10
-44.084677116064725
 20
-13.773153036847788
 30
0.0
 10
-43.47426692795357
 20
-13.732385115666018
 30
0.0
 10
-42.85835674442544
 20
-13.656059955164475
 30
0.0
 10
-42.53310606536538
 20
-13.66952710213239
 30
0.0
 10
-42.34996426680614
 20
-13.755660580941623
 30
0.0
 10
-41.59136744664247
 20
-15.90269868092201
 30
0.0
 10
-41.67974754020709
 20
-16.08476694727518
 30
0.0
 10
-41.92434386660066
 20
-16.299573849843945
 30
0.0
 10
-42.451493002958166
 20
-16.62711723985049
 30
0.0
 10
-42.95202517744331
 20
-16.978870226266157
 30
0.0
 10
-43.543906959706746
 20
-17.447001423304666
 30
0.0
 10
-44.21521456375541
 20
-18.042689929658245
 30
0.0
 10
-44.953068543752714
 20
-18.776118608855686
 30
0.0
 10
-45.63322049653661
 20
-19.533386527755603
 30
0.0
 10
-45.248273781808486
 20
-20.453509353811032
 30
0.0
 10
-44.811887623130744
 20
-21.350380085144508
 30
0.0
 10
-43.79406836548909
 20
-21.340116623677485
 30
0.0
 10
-42.756022293998775
 20
-21.270787865328
 30
0.0
 10
-41.86533946410741
 20
-21.160412177824963
 30
0.0
 10
-41.12288500648928
 20
-21.02538536500984
 30
0.0
 10
-40.528144825371115
 20
-20.882044030737692
 30
0.0
 10
-39.93399296387658
 20
-20.70272741192669
 30
0.0
 10
-39.61114476085861
 20
-20.661033214673868
 30
0.0
 10
-39.416080661772995
 20
-20.714976627610117
 30
0.0
 10
-38.30554436612155
 20
-22.702928054172293
 30
0.0
 10
-38.36188350612859
 20
-22.897313742571942
 30
0.0
 10
-38.566658994289774
 20
-23.15036782320445
 30
0.0
 10
-39.03087046860769
 20
-23.562288436200504
 30
0.0
 10
-39.46475640016627
 20
-23.99357212420957
 30
0.0
 10
-39.969009945492324
 20
-24.554998186876922
 30
0.0
 10
-40.52998955455003
 20
-25.25556979212279
 30
0.0
 10
-41.13328012831681
 20
-26.10314669534238
 30
0.0
 10
-41.67566981493718
 20
-26.96446824257002
 30
0.0
 10
-41.140758695864825
 20
-27.80629962883509
 30
0.0
 10
-40.55907766549852
 20
-28.616520072368903
 30
0.0
 10
-39.557633344715875
 20
-28.43439195197096
 30
0.0
 10
-38.54623523801404
 20
-28.190629787083314
 30
0.0
 10
-37.6870176515312
 20
-27.931315624466528
 30
0.0
 10
-36.97806236752539
 20
-27.672755637043323
 30
0.0
 10
-36.41610178557028
 20
-27.43096455888689
 30
0.0
 10
-35.86080091339494
 20
-27.153815094408685
 30
0.0
 10
-35.549642941411655
 20
-27.058159019077653
 30
0.0
 10
-35.34826818077805
 20
-27.07836051236527
 30
0.0
 10
-33.91774051691638
 20
-28.85003552242109
 30
0.0
 10
-33.94041792888426
 20
-29.051146510529094
 30
0.0
 10
-34.09948156085246
 20
-29.33516786405995
 30
0.0
 10
-34.48740085420234
 20
-29.819615493991584
 30
0.0
 10
-34.842158434557554
 20
-30.31802263712627
 30
0.0
 10
-35.2442772865393
 20
-30.95659235978538
 30
0.0
 10
-35.678790538626465
 20
-31.741892894368128
 30
0.0
 10
-36.13016213476384
 20
-32.67923477728362
 30
0.0
 10
-36.51918599146303
 20
-33.619831300129434
 30
0.0
 10
-35.84969888703196
 20
-34.35915329033985
 30
0.0
 10
-35.139456889156726
 20
-35.05941487907818
 30
0.0
 10
-34.183197235016934
 20
-34.71066159417332
 30
0.0
 10
-33.2275431751855
 20
-34.29947861641468
 30
0.0
 10
-32.42450895770076
 20
-33.89868597501053
 30
0.0
 10
-31.76944820003648
 20
-33.52403111305842
 30
0.0
 10
-31.2564338000282
 20
-33.190746180108356
 30
0.0
 10
-30.755958912230813
 20
-32.82373695545122
 30
0.0
 10
-30.465442619612272
 20
-32.67687085316868
 30
0.0
 10
-30.263550382651996
 20
-32.662749266626534
 30
0.0
 10
-28.554185026914247
 20
-34.16717999581727
 30
0.0
 10
-28.542548322989305
 20
-34.36923068666762
 30
0.0
 10
-28.651324127679217
 20
-34.67604853587212
 30
0.0
 10
-28.951791508274283
 20
-35.219086506457785
 30
0.0
 10
-29.2172150077448
 20
-35.770278838657696
 30
0.0
 10
-29.50563093914668
 20
-36.467621733028636
 30
0.0
 10
-29.801177679117043
 20
-37.3150595303614
 30
0.0
 10
-30.08764515861434
 20
-38.31520077361539
 30
0.0
 10
-30.31211167732906
 20
-39.308013022656894
 30
0.0
 10
-29.52730851260166
 20
-39.923556669234436
 30
0.0
 10
-28.708937916362025
 20
-40.493714152232364
 30
0.0
 10
-27.825372778057112
 20
-39.98836869985379
 30
0.0
 10
-26.95295519244246
 20
-39.42159389485531
 30
0.0
 10
-26.229206176312136
 20
-38.89085284923566
 30
0.0
 10
-25.64688485032128
 20
-38.410881251000625
 30
0.0
 10
-25.19757512250511
 20
-37.995690463967556
 30
0.0
 10
-24.766323970395266
 20
-37.54937966631285
 30
0.0
 10
-24.50480698193842
 20
-37.355528607443034
 30
0.0
 10
-24.30820534072455
 20
-37.30749019340485
 30
0.0
 10
-22.369177622161622
 20
-38.50139690876181
 30
0.0
 10
-22.323561569128888
 20
-38.698574671851496
 30
0.0
 10
-22.378920264687192
 20
-39.01936242582989
 30
0.0
 10
-22.5832918330473
 20
-39.605368523362564
 30
0.0
 10
-22.751745500808717
 20
-40.19348924478368
 30
0.0
 10
-22.91816131040186
 20
-40.92954402544441
 30
0.0
 10
-23.066239196647068
 20
-41.814739843024036
 30
0.0
 10
-23.179561411689175
 20
-42.84890820400068
 30
0.0
 10
-23.23301309936117
 20
-43.865374778441655
 30
0.0
 10
-22.35547123249906
 20
-44.33943201139183
 30
0.0
 10
-21.452515069945242
 20
-44.76308299594661
 30
0.0
 10
-20.667063007801243
 20
-44.11568324467912
 30
0.0
 10
-19.902979761934805
 20
-43.409621691656305
 30
0.0
 10
-19.27933688862646
 20
-42.76420069538584
 30
0.0
 10
-18.786507318628004
 20
-42.19272026986702
 30
0.0
 10
-18.413828085817055
 20
-41.707567911757906
 30
0.0
 10
-18.06420697986395
 20
-41.19479509015816
 30
0.0
 10
-17.839212663183925
 20
-40.95953581672101
 30
0.0
 10
-17.65355748898248
 20
-40.87896255289534
 30
0.0
 10
-15.54064970467855
 20
-41.727998731958195
 30
0.0
 10
-15.462366593330836
 20
-41.91463112204378
 30
0.0
 10
-15.462715610877646
 20
-42.24016030117089
 30
0.0
 10
-15.565111969079457
 20
-42.85227619716319
 30
0.0
 10
-15.631749699813088
 20
-43.46040614543892
 30
0.0
 10
-15.671377907747999
 20
-44.213997856481384
 30
0.0
 10
-15.667727009085509
 20
-45.11148622230808
 30
0.0
 10
-15.604643885870896
 20
-46.149930560167675
 30
0.0
 10
-15.485543034765087
 20
-47.16080956733749
 30
0.0
 10
-14.54050774754148
 20
-47.47974262318213
 30
0.0
 10
-13.578942423462008
 20
-47.74469944180753
 30
0.0
 10
-12.914199463237836
 20
-46.973869903777306
 30
0.0
 10
-12.280431840940325
 20
-46.148833708087615
 30
0.0
 10
-11.774836180455313
 20
-45.407300348113985
 30
0.0
 10
-11.385676175885578
 20
-44.760751546661744
 30
0.0
 10
-11.100348741072445
 20
-44.219594567504735
 30
0.0
 10
-10.842415643940813
 20
-43.655111262434225
 30
0.0
 10
-10.660416675882372
 20
-43.385211755391055
 30
0.0
 10
-10.491048930033598
 20
-43.27442158787878
 30
0.0
 10
-8.265045589981565
 20
-43.75416200561218
 30
0.0
 10
-8.156347482902646
 20
-43.92487994863165
 30
0.0
 10
-8.101676781838595
 20
-44.24578567111347
 30
0.0
 10
-8.099152173089218
 20
-44.8664019057143
 30
0.0
 10
-8.06205692060887
 20
-45.47704628945215
 30
0.0
 10
-7.973757495494164
 20
-46.22649546941065
 30
0.0
 10
-7.81848284163132
 20
-47.11045727725253
 30
0.0
 10
-7.580809166759721
 20
-48.1233034390857
 30
0.0
 10
-7.2925820915160475
 20
-49.09951373045086
 30
0.0
 10
-6.307240328522987
 20
-49.25414748585326
 30
0.0
 10
-5.314728326574048
 20
-49.3527878132831
 30
0.0
 10
-4.789817912940889
 20
-48.48070385085347
 30
0.0
 10
-4.304598254808002
 20
-47.56042780170726
 30
0.0
 10
-3.9315948737627755
 20
-46.74411464269052
 30
0.0
 10
-3.6572998594113932
 20
-46.04109749715421
 30
0.0
 10
-3.4675325734013
 20
-45.45950399795762
 30
0.0
 10
-3.308707750678006
 20
-44.85954936635106
 30
0.0
 10
-3.1749399101875015
 20
-44.5627741431147
 30
0.0
 10
-3.0267319943723896
 20
-44.42495430332001
 30
0.0
 10
-0.7516711617914781
 20
-44.52159770136693
 30
0.0
 10
-0.6156851056158678
 20
-44.671489952924986
 30
0.0
 10
-0.5075674624718706
 20
-44.9785403453973
 30
0.0
 10
-0.4001945151684855
 20
-45.589802919490324
 30
0.0
 10
-0.2604334423488624
 20
-46.185394611567595
 30
0.0
 10
-0.04674659787872827
 20
-46.909140972053414
 30
0.0
 10
0.25568484210068726
 20
-47.75414625012408
 30
0.0
 10
0.661111629734585
 20
-48.71225649593926
 30
0.0
 10
1.110173160935078
 20
-49.625714278798775
 30
0.0
 10
2.107474911183599
 20
-49.61160020215699
 30
0.0
 10
3.1023808277679845
 20
-49.54108633576509
 30
0.0
 10
3.4723579779118894
 20
-48.5928362167359
 30
0.0
 10
3.7950707857528765
 20
-47.60379498052471
 30
0.0
 10
4.0247512592111905
 20
-46.73618586579215
 30
0.0
 10
4.1762903151890045
 20
-45.99692489946875
 30
0.0
 10
4.265038193085976
 20
-45.39162626629983
 30
0.0
 10
4.3201856404228085
 20
-44.773459910573905
 30
0.0
 10
4.401874096124959
 20
-44.45834665397958
 30
0.0
 10
4.524658510009879
 20
-44.297461967765415
 30
0.0
 10
6.783327477159152
 20
-44.00822809152225
 30
0.0
 10
6.94268941118447
 20
-44.132982524449694
 30
0.0
 10
7.101143648664457
 20
-44.417344306166314
 30
0.0
 10
7.310276010321366
 20
-45.00166830841785
 30
0.0
 10
7.548682231877588
 20
-45.56507322024455
 30
0.0
 10
7.881609114246403
 20
-46.24229589618817
 30
0.0
 10
8.322496938449719
 20
-47.02403538113477
 30
0.0
 10
8.884013448324385
 20
-47.89984662358678
 30
0.0
 10
9.480990752833332
 20
-48.72427338065619
 30
0.0
 10
10.461561934765296
 20
-48.54181750825778
 30
0.0
 10
11.430240134185642
 20
-48.30417800359597
 30
0.0
 10
11.634640451846353
 20
-47.30704115741703
 30
0.0
 10
11.785562549475587
 20
-46.27768764976383
 30
0.0
 10
11.865312626303782
 20
-45.38374211389436
 30
0.0
 10
11.889736221174012
 20
-44.629504518815956
 30
0.0
 10
11.87491157609362
 20
-44.01791409128653
 30
0.0
 10
11.824795156390815
 20
-43.399319532002814
 30
0.0
 10
11.852054199163858
 20
-43.074933476717476
 30
0.0
 10
11.945882827084136
 20
-42.89561230358421
 30
0.0
 10
14.123182134965118
 20
-42.22882188506367
 30
0.0
 10
14.301335394147781
 20
-42.32484954146501
 30
0.0
 10
14.505567786048362
 20
-42.578342141702144
 30
0.0
 10
14.810443204780256
 20
-43.11891763444345
 30
0.0
 10
15.140636062144024
 20
-43.63392763249505
 30
0.0
 10
15.58322528216422
 20
-44.24514416052581
 30
0.0
 10
16.149885950611544
 20
-44.94112863067593
 30
0.0
 10
16.851338375088417
 20
-45.70944537490495
 30
0.0
 10
17.579057502768933
 20
-46.42112384941339
 30
0.0
 10
18.51468886880171
 20
-46.075575104510655
 30
0.0
 10
19.42927224292865
 20
-45.677646417458895
 30
0.0
 10
19.462215503117786
 20
-44.660308655712285
 30
0.0
 10
19.437005136569645
 20
-43.62025550289303
 30
0.0
 10
19.36453055225797
 20
-42.72569073135108
 30
0.0
 10
19.261136063664125
 20
-41.97817454989113
 30
0.0
 10
19.143165373654174
 20
-41.37788667108134
 30
0.0
 10
18.989226845059846
 20
-40.776659747438146
 30
0.0
 10
18.96127228187361
 20
-40.452332889664156
 30
0.0
 10
19.023445845037337
 20
-40.2597339732736
 30
0.0
 10
21.056738556761168
 20
-39.23456935879426
 30
0.0
 10
21.24855799619731
 20
-39.29910769783194
 30
0.0
 10
21.492693148448485
 20
-39.51443859601359
 30
0.0
 10
21.884540913543727
 20
-39.995714206541805
 30
0.0
 10
22.2970213593893
 20
-40.44751339085072
 30
0.0
 10
22.836540431021056
 20
-40.9751401842963
 30
0.0
 10
23.512672147997645
 20
-41.56534743361945
 30
0.0
 10
24.333880977955747
 20
-42.20406660576478
 30
0.0
 10
25.171406774459346
 20
-42.78252310375037
 30
0.0
 10
26.03518191369187
 20
-42.28382229459517
 30
0.0
 10
26.869359564029526
 20
-41.737052108973
 30
0.0
 10
26.729898049131094
 20
-40.728780386801986
 30
0.0
 10
26.529280474750767
 20
-39.70794802440328
 30
0.0
 10
26.306666191135726
 20
-38.83849901693613
 30
0.0
 10
26.07842809026478
 20
-38.119208928635956
 30
0.0
 10
25.86070515728815
 20
-37.547492787877765
 30
0.0
 10
25.60737305099479
 20
-36.98092970381721
 30
0.0
 10
25.525009083735405
 20
-36.665992336752296
 30
0.0
 10
25.553738961929476
 20
-36.46565639726503
 30
0.0
 10
27.38453094818658
 20
-35.11160970627296
 30
0.0
 10
27.584498271848396
 20
-35.14280207743753
 30
0.0
 10
27.86151286061565
 20
-35.31377659567497
 30
0.0
 10
28.329060225307884
 20
-35.721906900931515
 30
0.0
 10
28.811961948209547
 20
-36.097497831553866
 30
0.0
 10
29.432889890061922
 20
-36.52635602821453
 30
0.0
 10
30.199041577100274
 20
-36.99380686873532
 30
0.0
 10
31.116382129672854
 20
-37.4845536811274
 30
0.0
 10
32.03962050271351
 20
-37.91314706233621
 30
0.0
 10
32.80669017706149
 20
-37.27564090322565
 30
0.0
 10
33.53646433139308
 20
-36.59575880177145
 30
0.0
 10
33.228610095273766
 20
-35.62555926086717
 30
0.0
 10
32.858356715412675
 20
-34.65331517733043
 30
0.0
 10
32.492006940121065
 20
-33.83399439888108
 30
0.0
 10
32.145491221583015
 20
-33.163623069972914
 30
0.0
 10
31.834279538014307
 20
-32.63692589971498
 30
0.0
 10
31.488841757479367
 20
-32.121325643626676
 30
0.0
 10
31.354437847525183
 20
-31.824837941916268
 30
0.0
 10
31.34889753446231
 20
-31.62252827956062
 30
0.0
 10
32.92452024312265
 20
-29.97855297004905
 30
0.0
 10
33.126882755187985
 20
-29.97550202561391
 30
0.0
 10
33.428807575111676
 20
-30.097201538309978
 30
0.0
 10
33.95860405298005
 20
-30.420445372493585
 30
0.0
 10
34.49803484958687
 20
-30.709022982192067
 30
0.0
 10
35.18250869529343
 20
-31.026775112570032
 30
0.0
 10
36.01663956328632
 20
-31.358021834692277
 30
0.0
 10
37.00372162097361
 20
-31.686678395039078
 30
0.0
 10
37.986112683494824
 20
-31.953078808231712
 30
0.0
 10
38.63440969502747
 20
-31.195107190658906
 30
0.0
 10
39.238786079629335
 20
-30.401672143573293
 30
0.0
 10
38.77139552815349
 20
-29.49745565828971
 30
0.0
 10
38.24215785843162
 20
-28.601769545737927
 30
0.0
 10
37.74261180748722
 20
-27.856147363368787
 30
0.0
 10
37.28778709760482
 20
-27.25398015644331
 30
0.0
 10
36.89203965695862
 20
-26.78745407531883
 30
0.0
 10
36.4644338181911
 20
-26.337649527819405
 30
0.0
 10
36.281856521322915
 20
-26.06814090282793
 30
0.0
 10
36.24220540172271
 20
-25.86967759824559
 30
0.0
 10
37.51733103618717
 20
-23.98306784669086
 30
0.0
 10
37.7162671356244
 20
-23.94586135677257
 30
0.0
 10
38.03441635934846
 20
-24.014784790524743
 30
0.0
 10
38.61122067032271
 20
-24.243843017054527
 30
0.0
 10
39.1916620987555
 20
-24.437105453410037
 30
0.0
 10
39.919990781993654
 20
-24.634610367244182
 30
0.0
 10
40.79810440456718
 20
-24.820123605871817
 30
0.0
 10
41.82653141374529
 20
-24.977235063315646
 30
0.0
 10
42.83981356351322
 20
-25.073778653638577
 30
0.0
 10
43.35068758756019
 20
-24.2171470410056
 30
0.0
 10
43.81227939423263
 20
-23.332984729989672
 30
0.0
 10
43.19879850259039
 20
-22.520763962305587
 30
0.0
 10
42.52580174718503
 20
-21.727403079425283
 30
0.0
 10
41.90743045095231
 20
-21.07692968577222
 30
0.0
 10
41.35738122853162
 20
-20.5602898550096
 30
0.0
 10
40.88848296413976
 20
-20.167355968970625
 30
0.0
 10
40.39101050858101
 20
-19.796287187934567
 30
0.0
 10
40.165512241212085
 20
-19.561510912109902
 30
0.0
 10
40.09289100559282
 20
-19.37260339323248
 30
0.0
 10
41.03083652297326
 20
-17.29763352724509
 30
0.0
 10
41.22062318040362
 20
-17.22734185481691
 30
0.0
 10
41.545844234014346
 20
-17.241506407924724
 30
0.0
 10
42.15306276825272
 20
-17.369789438668676
 30
0.0
 10
42.757816585422496
 20
-17.462176893259308
 30
0.0
 10
43.50904741604019
 20
-17.53375273377491
 30
0.0
 10
44.40588206305035
 20
-17.568195610795726
 30
0.0
 10
45.44606805111758
 20
-17.549242154758034
 30
0.0
 10
46.46109100556157
 20
-17.473151538894136
 30
0.0
 10
46.81984512659702
 20
-16.542503663031198
 30
0.0
 10
47.125373199480165
 20
-15.593049827982615
 30
0.0
 10
46.38345069596223
 20
-14.89619089057767
 30
0.0
 10
45.58605574620428
 20
-14.227978785500785
 30
0.0
 10
44.86664862101008
 20
-13.691367115785273
 30
0.0
 10
44.23719880070803
 20
-13.275117448472777
 30
0.0
 10
43.70863906191615
 20
-12.967079750007727
 30
0.0
 10
43.155611366366784
 20
-12.685421708662213
 30
0.0
 10
42.89367930308565
 20
-12.492131868003744
 30
0.0
 10
42.79017713217493
 20
-12.318214660206293
 30
0.0
 10
43.36395954764943
 20
-10.11457778494257
 30
0.0
 10
43.539136946482344
 20
-10.01322309344053
 30
0.0
 10
43.862073812395835
 20
-9.97222127750041
 30
0.0
 10
44.482237998228285
 20
-9.99603864322836
 30
0.0
 10
45.093906537887605
 20
-9.984893297194947
 30
0.0
 10
45.84642797265048
 20
-9.928480957778183
 30
0.0
 10
46.73618334416553
 20
-9.810862614330276
 30
0.0
 10
47.75820405410704
 20
-9.616389501232797
 30
0.0
 10
48.74576745087538
 20
-9.369853667662644
 30
0.0
  0
LWPOLYLINE
  8
OpenJsCad
  90
91
  70
1
 10
0.7742968585597915
 20
-11.072960957884048
 30
0.0
 10
6.79678973526781e-16
 20
-11.1
 30
0.0
 10
-0.7742968585597841
 20
-11.07296095788405
 30
0.0
 10
-1.5448214206567306
 20
-10.99197556303143
 30
0.0
 10
-2.307819768077134
 20
-10.857438368145242
 30
0.0
 10
-3.059574649568697
 20
-10.670004824915337
 30
0.0
 10
-3.796423590914921
 20
-10.430588090723584
 30
0.0
 10
-4.51477673814138
 20
-10.14035457983287
 30
0.0
 10
-5.211134346923387
 20
-9.80071828073409
 30
0.0
 10
-5.882103832988583
 20
-9.413333867336322
 30
0.0
 10
-6.524416300446453
 20
-8.980088637561915
 30
0.0
 10
-7.134942467520588
 20
-8.503093318620653
 30
0.0
 10
-7.710707912094872
 20
-7.984671783759025
 30
0.0
 10
-8.24890756279908
 20
-7.427349730583322
 30
0.0
 10
-8.746919365034612
 20
-6.83384237611481
 30
0.0
 10
-9.202317055360966
 20
-6.207041228525284
 30
0.0
 10
-9.612881982007268
 20
-5.550000000000002
 30
0.0
 10
-9.976613913920755
 20
-4.86591972935876
 30
0.0
 10
-10.29174078569134
 20
-4.158133186916624
 30
0.0
 10
-10.556727330876205
 20
-3.4300886375619144
 30
0.0
 10
-10.770282561663562
 20
-2.6853330411563086
 30
0.0
 10
-10.93136605843551
 20
-1.9274947721029232
 30
0.0
 10
-11.039193038587834
 20
-1.1602659422709487
 30
0.0
 10
-11.093238179911962
 20
-0.38738441339776486
 30
0.0
 10
-11.093238179911962
 20
0.38738441339776764
 30
0.0
 10
-11.039193038587834
 20
1.1602659422709516
 30
0.0
 10
-10.93136605843551
 20
1.9274947721029259
 30
0.0
 10
-10.77028256166356
 20
2.685333041156312
 30
0.0
 10
-10.556727330876203
 20
3.4300886375619175
 30
0.0
 10
-10.291740785691339
 20
4.158133186916626
 30
0.0
 10
-9.976613913920751
 20
4.865919729358762
 30
0.0
 10
-9.612881982007266
 20
5.550000000000004
 30
0.0
 10
-9.20231705536096
 20
6.207041228525293
 30
0.0
 10
-8.746919365034616
 20
6.833842376114803
 30
0.0
 10
-8.248907562799074
 20
7.427349730583328
 30
0.0
 10
-7.71070791209487
 20
7.984671783759026
 30
0.0
 10
-7.134942467520586
 20
8.503093318620655
 30
0.0
 10
-6.524416300446451
 20
8.980088637561916
 30
0.0
 10
-5.882103832988574
 20
9.413333867336329
 30
0.0
 10
-5.211134346923389
 20
9.800718280734088
 30
0.0
 10
-4.514776738141379
 20
10.140354579832872
 30
0.0
 10
-3.796423590914922
 20
10.430588090723584
 30
0.0
 10
-3.059574649568689
 20
10.67000482491534
 30
0.0
 10
-2.307819768077126
 20
10.857438368145242
 30
0.0
 10
-1.544821420656728
 20
10.99197556303143
 30
0.0
 10
-0.7742968585597862
 20
11.07296095788405
 30
0.0
 10
6.79678973526781e-16
 20
11.1
 30
0.0
 10
0.7742968585597926
 20
11.072960957884048
 30
0.0
 10
1.544821420656729
 20
10.99197556303143
 30
0.0
 10
2.307819768077128
 20
10.857438368145242
 30
0.0
 10
3.0595746495686957
 20
10.670004824915337
 30
0.0
 10
3.796423590914924
 20
10.430588090723582
 30
0.0
 10
4.514776738141384
 20
10.140354579832868
 30
0.0
 10
5.21113434692339
 20
9.800718280734086
 30
0.0
 10
5.882103832988573
 20
9.413333867336327
 30
0.0
 10
6.524416300446452
 20
8.980088637561915
 30
0.0
 10
7.134942467520587
 20
8.503093318620655
 30
0.0
 10
7.710707912094867
 20
7.98467178375903
 30
0.0
 10
8.248907562799076
 20
7.427349730583327
 30
0.0
 10
8.746919365034614
 20
6.8338423761148075
 30
0.0
 10
9.202317055360963
 20
6.207041228525289
 30
0.0
 10
9.61288198200727
 20
5.549999999999998
 30
0.0
 10
9.976613913920753
 20
4.865919729358761
 30
0.0
 10
10.29174078569134
 20
4.158133186916625
 30
0.0
 10
10.556727330876205
 20
3.4300886375619157
 30
0.0
 10
10.77028256166356
 20
2.685333041156313
 30
0.0
 10
10.93136605843551
 20
1.927494772102927
 30
0.0
 10
11.039193038587834
 20
1.1602659422709527
 30
0.0
 10
11.093238179911962
 20
0.3873844133977588
 30
0.0
 10
11.093238179911962
 20
-0.3873844133977613
 30
0.0
 10
11.039193038587833
 20
-1.1602659422709527
 30
0.0
 10
10.93136605843551
 20
-1.927494772102927
 30
0.0
 10
10.77028256166356
 20
-2.685333041156313
 30
0.0
 10
10.556727330876203
 20
-3.430088637561916
 30
0.0
 10
10.29174078569134
 20
-4.158133186916622
 30
0.0
 10
9.976613913920755
 20
-4.865919729358759
 30
0.0
 10
9.612881982007268
 20
-5.55
 30
0.0
 10
9.202317055360963
 20
-6.207041228525289
 30
0.0
 10
8.746919365034614
 20
-6.833842376114806
 30
0.0
 10
8.248907562799074
 20
-7.427349730583325
 30
0.0
 10
7.71070791209487
 20
-7.984671783759027
 30
0.0
 10
7.134942467520586
 20
-8.503093318620655
 30
0.0
 10
6.524416300446452
 20
-8.980088637561916
 30
0.0
 10
5.882103832988575
 20
-9.413333867336327
 30
0.0
 10
5.211134346923389
 20
-9.80071828073409
 30
0.0
 10
4.514776738141382
 20
-10.14035457983287
 30
0.0
 10
3.796423590914923
 20
-10.430588090723584
 30
0.0
 10
3.059574649568691
 20
-10.67000482491534
 30
0.0
 10
2.307819768077129
 20
-10.857438368145242
 30
0.0
 10
1.544821420656727
 20
-10.991975563031431
 30
0.0
 10
0.7742968585597915
 20
-11.072960957884048
 30
0.0
  0
ENDSEC
  0
EOF
