999
DXF generated by OpenJsCad
  0
SECTION
  2
HEADER
  0
ENDSEC
  0
SECTION
  2
TABLES
  0
TABLE
  2
LTYPE
  70
1
  0
LTYPE
  2
CONTINUOUS
  3
Solid Line
  72
65
  73
0
  40
0.0
  0
ENDTAB
  0
TABLE
  2
LAYER
  70
1
  0
LAYER
  2
OpenJsCad
  62
7
  6
continuous
  0
ENDTAB
  0
TABLE
  2
STYLE
  70
0
  0
ENDTAB
  0
TABLE
  2
VIEW
  70
0
  0
ENDTAB
  0
ENDSEC
  0
SECTION
  2
BLOCKS
  0
ENDSEC
  0
SECTION
  2
ENTITIES
  0
LWPOLYLINE
  8
OpenJsCad
  90
248
  70
1
 10
45.344850611227635
 20
5.3697257124267415
 30
0.0
 10
45.11835447299997
 20
4.570592511682252
 30
0.0
 10
44.94753112744537
 20
3.7577371999706983
 30
0.0
 10
45.465189309017674
 20
3.210825817324004
 30
0.0
 10
46.55436902310386
 20
2.3797928802213506
 30
0.0
 10
47.40342987364167
 20
1.926198713195137
 30
0.0
 10
47.92879640371599
 20
1.746512777280603
 30
0.0
 10
48.07456613592419
 20
1.7217243139475493
 30
0.0
 10
48.37510857186227
 20
1.7195202246053056
 30
0.0
 10
49.27666336347191
 20
1.517305038447525
 30
0.0
 10
49.70634224467132
 20
1.1385562939890979
 30
0.0
 10
49.70634224467133
 20
-1.138556293989152
 30
0.0
 10
49.27666336347184
 20
-1.5173050384471238
 30
0.0
 10
48.37510857186228
 20
-1.7195202246053538
 30
0.0
 10
48.07456613592417
 20
-1.721724313947542
 30
0.0
 10
47.92879640371601
 20
-1.7465127772806377
 30
0.0
 10
47.40342987364167
 20
-1.926198713195171
 30
0.0
 10
46.55436902310317
 20
-2.3797928802201165
 30
0.0
 10
45.46518930902254
 20
-3.210825817318838
 30
0.0
 10
44.94753112744537
 20
-3.7577371999706846
 30
0.0
 10
45.11835447299997
 20
-4.57059251168224
 30
0.0
 10
45.34485061122763
 20
-5.369725712426715
 30
0.0
 10
46.057376559899915
 20
-5.613423939514871
 30
0.0
 10
47.40799756335996
 20
-5.843100009532843
 30
0.0
 10
48.37059932973588
 20
-5.850159446207238
 30
0.0
 10
48.91929250757657
 20
-5.765113440546132
 30
0.0
 10
49.059884968628396
 20
-5.719319962431306
 30
0.0
 10
49.32702637088486
 20
-5.581602552457566
 30
0.0
 10
50.219287576318806
 20
-5.341681804991467
 30
0.0
 10
50.77576264870506
 20
-5.477365430349565
 30
0.0
 10
51.833989633691125
 20
-7.493648492465673
 30
0.0
 10
51.6295411971692
 20
-8.028695583085819
 30
0.0
 10
50.92522815722887
 20
-8.626721640676264
 30
0.0
 10
50.66013533775355
 20
-8.768342299028298
 30
0.0
 10
50.542582423322216
 20
-8.858033965593023
 30
0.0
 10
50.160897681701236
 20
-9.261287960615457
 30
0.0
 10
49.61988735556607
 20
-10.057503900729273
 30
0.0
 10
49.04166687731551
 20
-11.299514074052894
 30
0.0
 10
48.83746571378212
 20
-12.024347805497255
 30
0.0
 10
49.366474973296896
 20
-12.664709872231212
 30
0.0
 10
49.93840305961322
 20
-13.26704917631712
 30
0.0
 10
50.68256566741323
 20
-13.15170592090285
 30
0.0
 10
51.98521696510201
 20
-12.72740910409172
 30
0.0
 10
52.84083918324816
 20
-12.286316578547625
 30
0.0
 10
53.28716001428152
 20
-11.956021646292363
 30
0.0
 10
53.39036716567283
 20
-11.850136960694527
 30
0.0
 10
53.56290865839362
 20
-11.604047450355083
 30
0.0
 10
54.24146998840015
 20
-10.976953721151142
 30
0.0
 10
54.79725951914118
 20
-10.838488744004318
 30
0.0
 10
56.671286439870634
 20
-12.13203612957249
 30
0.0
 10
56.738905120962706
 20
-12.700808725910179
 30
0.0
 10
56.39318346224967
 20
-13.557645092134134
 30
0.0
 10
56.224269829464134
 20
-13.80623873338151
 30
0.0
 10
56.16186368883967
 20
-13.940286323269644
 30
0.0
 10
56.01130011017762
 20
-14.474727746877798
 30
0.0
 10
55.902279254282135
 20
-15.43116198364268
 30
0.0
 10
55.96748135511668
 20
-16.799619830327934
 30
0.0
 10
56.12351723530179
 20
-17.536325237884306
 30
0.0
 10
56.8895227626746
 20
-17.857494827351395
 30
0.0
 10
57.675860964985134
 20
-18.12505155918818
 30
0.0
 10
58.28118154659748
 20
-17.677090571049977
 30
0.0
 10
59.23744142486444
 20
-16.696022154810223
 30
0.0
 10
59.79007135596907
 20
-15.90782664890861
 30
0.0
 10
60.03177311655446
 20
-15.40794937855344
 30
0.0
 10
60.07395144368252
 20
-15.266230390894265
 30
0.0
 10
60.1123658502357
 20
-14.968144921307784
 30
0.0
 10
60.42177708166082
 20
-14.097537826427942
 30
0.0
 10
60.84955638725379
 20
-13.71664490435666
 30
0.0
 10
63.11006626066019
 20
-13.991120496279148
 30
0.0
 10
63.43426143442151
 20
-14.463319650966245
 30
0.0
 10
63.526331822549274
 20
-15.382675440319405
 30
0.0
 10
63.49229345409474
 20
-15.6812922571305
 30
0.0
 10
63.49933058201868
 20
-15.828987082947247
 30
0.0
 10
63.614380467699235
 20
-16.372181845709857
 30
0.0
 10
63.962324446285336
 20
-17.269726821765026
 30
0.0
 10
64.6560121106743
 20
-18.451135140841156
 30
0.0
 10
65.13653909486369
 20
-19.030941893900984
 30
0.0
 10
65.96405825514076
 20
-18.959342923667432
 30
0.0
 10
66.7846659676988
 20
-18.830823060399442
 30
0.0
 10
67.1124728727799
 20
-18.152866803404642
 30
0.0
 10
67.5032737176949
 20
-16.839777738740686
 30
0.0
 10
67.62631050445457
 20
-15.885045344098055
 30
0.0
 10
67.60802223406385
 20
-15.330101594107182
 30
0.0
 10
67.57950919048756
 20
-15.185014416560442
 30
0.0
 10
67.47499623327558
 20
-14.903220776489855
 30
0.0
 10
67.34437498180937
 20
-13.98854590941821
 30
0.0
 10
67.54614497864242
 20
-13.452483020611691
 30
0.0
 10
69.6752822348255
 20
-12.645007768568508
 30
0.0
 10
70.18178469392272
 20
-12.912458345882909
 30
0.0
 10
70.69055491253968
 20
-13.68372022646279
 30
0.0
 10
70.79918958842228
 20
-13.963950704828942
 30
0.0
 10
70.87405786369384
 20
-14.091457661895292
 30
0.0
 10
71.228364671409
 20
-14.518966389869968
 30
0.0
 10
71.95356371216212
 20
-15.152005367790721
 30
0.0
 10
73.11682145603658
 20
-15.875717750871043
 30
0.0
 10
73.8117566031304
 20
-16.165799109737165
 30
0.0
 10
74.51121472937922
 20
-15.717834041022352
 30
0.0
 10
75.1781006146327
 20
-15.222679934492035
 30
0.0
 10
75.15329723172994
 20
-14.470040016859542
 30
0.0
 10
74.88911127938367
 20
-13.125743184047229
 30
0.0
 10
74.55436867670576
 20
-12.223191586503566
 30
0.0
 10
74.28027999768791
 20
-11.740312282202726
 30
0.0
 10
74.18760757807117
 20
-11.625094638654343
 30
0.0
 10
73.96410991607362
 20
-11.424148355058318
 30
0.0
 10
73.42337993627025
 20
-10.67494670481389
 30
0.0
 10
73.352917549661
 20
-10.106519396839566
 30
0.0
 10
74.8629225021147
 20
-8.402076149942122
 30
0.0
 10
75.43569863718498
 20
-8.40350844574996
 30
0.0
 10
76.24461556055181
 20
-8.849989615428965
 30
0.0
 10
76.47103638571659
 20
-9.047636329899847
 30
0.0
 10
76.59658438873157
 20
-9.12574511097731
 30
0.0
 10
77.1089806986937
 20
-9.339630706623733
 30
0.0
 10
78.04530044097316
 20
-9.563142085515121
 30
0.0
 10
79.411639933987
 20
-9.663364747315626
 30
0.0
 10
80.16178197666247
 20
-9.597266568531154
 30
0.0
 10
80.57294164154362
 20
-8.87555880001334
 30
0.0
 10
80.93333018002713
 20
-8.127204288772925
 30
0.0
 10
80.56159866525036
 20
-7.472301445338083
 30
0.0
 10
79.7029477335395
 20
-6.404759048241656
 30
0.0
 10
78.98711123761184
 20
-5.761151941868352
 30
0.0
 10
78.52001256320318
 20
-5.460958912546408
 30
0.0
 10
78.38441090205646
 20
-5.40200577661019
 30
0.0
 10
78.09312915619817
 20
-5.32794122139534
 30
0.0
 10
77.26616516992793
 20
-4.915845857190464
 30
0.0
 10
76.93961248348474
 20
-4.445273976013594
 30
0.0
 10
77.48456119513429
 20
-2.234330141358246
 30
0.0
 10
77.99239489633376
 20
-1.9694160339509792
 30
0.0
 10
78.9161454058128
 20
-1.9888330374370327
 30
0.0
 10
79.20848209788127
 20
-2.058617507628488
 30
0.0
 10
79.35594829416641
 20
-2.069434332285071
 30
0.0
 10
79.90905028680812
 20
-2.020698183241502
 30
0.0
 10
80.84199116153381
 20
-1.7834781998036249
 30
0.0
 10
82.09840049201347
 20
-1.2372513363198197
 30
0.0
 10
82.73190092848523
 20
-0.8301159160748721
 30
0.0
 10
82.76057040778556
 20
-4.440892098500626e-15
 30
0.0
 10
82.73190092848523
 20
0.830115916074853
 30
0.0
 10
82.09840049201944
 20
1.2372513363159667
 30
0.0
 10
80.84199116153344
 20
1.7834781998022584
 30
0.0
 10
79.90905028680811
 20
2.02069818324153
 30
0.0
 10
79.35594829416641
 20
2.0694343322851028
 30
0.0
 10
79.20848209788126
 20
2.0586175076284734
 30
0.0
 10
78.9161454058128
 20
1.988833037437077
 30
0.0
 10
77.99239489633379
 20
1.9694160339505682
 30
0.0
 10
77.48456119513429
 20
2.234330141358299
 30
0.0
 10
76.93961248348471
 20
4.445273976013637
 30
0.0
 10
77.2661651699281
 20
4.915845857190088
 30
0.0
 10
78.09312915619816
 20
5.327941221395381
 30
0.0
 10
78.38441090205649
 20
5.402005776610181
 30
0.0
 10
78.52001256320317
 20
5.460958912546435
 30
0.0
 10
78.98711123761184
 20
5.761151941868382
 30
0.0
 10
79.70294773354046
 20
6.404759048240616
 30
0.0
 10
80.56159866524688
 20
7.472301445331898
 30
0.0
 10
80.93333018002713
 20
8.127204288772909
 30
0.0
 10
80.57294164154362
 20
8.875558800013327
 30
0.0
 10
80.16178197666247
 20
9.597266568531143
 30
0.0
 10
79.41163993399407
 20
9.66336474731499
 30
0.0
 10
78.04530044097348
 20
9.563142085513746
 30
0.0
 10
77.10898069869367
 20
9.339630706623758
 30
0.0
 10
76.59658438873156
 20
9.125745110977343
 30
0.0
 10
76.47103638571659
 20
9.047636329899833
 30
0.0
 10
76.24461556055178
 20
8.849989615429006
 30
0.0
 10
75.4356986371852
 20
8.403508445749612
 30
0.0
 10
74.86292250211467
 20
8.402076149942177
 30
0.0
 10
73.35291754966094
 20
10.106519396839596
 30
0.0
 10
73.42337993627056
 20
10.674946704813637
 30
0.0
 10
73.96410991607358
 20
11.424148355058351
 30
0.0
 10
74.18760757807118
 20
11.625094638654348
 30
0.0
 10
74.28027999768787
 20
11.740312282202744
 30
0.0
 10
74.55436867670574
 20
12.223191586503592
 30
0.0
 10
74.88911127938499
 20
13.125743184046762
 30
0.0
 10
75.15329723172971
 20
14.470040016852447
 30
0.0
 10
75.1781006146327
 20
15.222679934492026
 30
0.0
 10
74.51121472937922
 20
15.717834041022343
 30
0.0
 10
73.81175660313042
 20
16.165799109737154
 30
0.0
 10
73.11682145604314
 20
15.875717750873765
 30
0.0
 10
71.95356371216303
 20
15.15200536778964
 30
0.0
 10
71.22836467140897
 20
14.518966389869972
 30
0.0
 10
70.8740578636938
 20
14.091457661895312
 30
0.0
 10
70.79918958842228
 20
13.963950704828923
 30
0.0
 10
70.69055491253965
 20
13.683720226462812
 30
0.0
 10
70.18178469392308
 20
12.912458345882698
 30
0.0
 10
69.67528223482546
 20
12.645007768568544
 30
0.0
 10
67.54614497864236
 20
13.452483020611687
 30
0.0
 10
67.34437498180976
 20
13.988545909418134
 30
0.0
 10
67.47499623327553
 20
14.903220776489864
 30
0.0
 10
67.57950919048757
 20
15.185014416560449
 30
0.0
 10
67.60802223406382
 20
15.33010159410718
 30
0.0
 10
67.62631050445454
 20
15.885045344098067
 30
0.0
 10
67.5032737176963
 20
16.83977773874089
 30
0.0
 10
67.112472872783
 20
18.152866803398247
 30
0.0
 10
66.78466596769881
 20
18.83082306039944
 30
0.0
 10
65.96405825514077
 20
18.959342923667432
 30
0.0
 10
65.1365390948637
 20
19.030941893900977
 30
0.0
 10
64.65601211067883
 20
18.451135140846617
 30
0.0
 10
63.96232444628665
 20
17.269726821764493
 30
0.0
 10
63.6143804676992
 20
16.372181845709843
 30
0.0
 10
63.499330582018644
 20
15.828987082947254
 30
0.0
 10
63.49229345409475
 20
15.681292257130487
 30
0.0
 10
63.526331822549224
 20
15.382675440319405
 30
0.0
 10
63.43426143442191
 20
14.46331965096622
 30
0.0
 10
63.11006626066013
 20
13.991120496279159
 30
0.0
 10
60.84955638725374
 20
13.716644904356636
 30
0.0
 10
60.42177708166121
 20
14.097537826428061
 30
0.0
 10
60.11236585023565
 20
14.96814492130777
 30
0.0
 10
60.073951443682525
 20
15.266230390894277
 30
0.0
 10
60.031773116554426
 20
15.407949378553424
 30
0.0
 10
59.79007135596903
 20
15.907826648908616
 30
0.0
 10
59.23744142486559
 20
16.69602215481105
 30
0.0
 10
58.28118154660319
 20
17.67709057104576
 30
0.0
 10
57.67586096498515
 20
18.125051559188186
 30
0.0
 10
56.8895227626746
 20
17.857494827351392
 30
0.0
 10
56.12351723530179
 20
17.536325237884306
 30
0.0
 10
55.96748135511815
 20
16.799619830334876
 30
0.0
 10
55.902279254283535
 20
15.43116198364281
 30
0.0
 10
56.01130011017759
 20
14.47472774687777
 30
0.0
 10
56.161863688839624
 20
13.940286323269627
 30
0.0
 10
56.22426982946414
 20
13.8062387333815
 30
0.0
 10
56.39318346224962
 20
13.557645092134104
 30
0.0
 10
56.738905120963075
 20
12.700808725910338
 30
0.0
 10
56.67128643987057
 20
12.132036129572473
 30
0.0
 10
54.797259519141136
 20
10.838488744004266
 30
0.0
 10
54.24146998840043
 20
10.976953721151427
 30
0.0
 10
53.562908658393575
 20
11.604047450355043
 30
0.0
 10
53.39036716567283
 20
11.850136960694536
 30
0.0
 10
53.28716001428149
 20
11.956021646292328
 30
0.0
 10
52.84083918324812
 20
12.286316578547602
 30
0.0
 10
51.98521696510263
 20
12.727409104092974
 30
0.0
 10
50.682565667420235
 20
13.151705920901763
 30
0.0
 10
49.93840305961323
 20
13.26704917631712
 30
0.0
 10
49.36647497329692
 20
12.664709872231231
 30
0.0
 10
48.83746571378214
 20
12.024347805497278
 30
0.0
 10
49.041666877313595
 20
11.299514074059745
 30
0.0
 10
49.61988735556726
 20
10.057503900730058
 30
0.0
 10
50.16089768170123
 20
9.261287960615435
 30
0.0
 10
50.5425824233222
 20
8.858033965593007
 30
0.0
 10
50.66013533775357
 20
8.76834229902831
 30
0.0
 10
50.925228157228844
 20
8.626721640676234
 30
0.0
 10
51.629541197169466
 20
8.028695583086149
 30
0.0
 10
51.83398963369109
 20
7.493648492465642
 30
0.0
 10
50.775762648705054
 20
5.477365430349518
 30
0.0
 10
50.21928757631893
 20
5.341681804991866
 30
0.0
 10
49.32702637088485
 20
5.581602552457532
 30
0.0
 10
49.05988496862839
 20
5.71931996243133
 30
0.0
 10
48.919292507576564
 20
5.7651134405461075
 30
0.0
 10
48.37059932973587
 20
5.850159446207222
 30
0.0
 10
47.407997563359935
 20
5.8431000095342664
 30
0.0
 10
46.05737655990664
 20
5.61342393951719
 30
0.0
 10
45.344850611227635
 20
5.3697257124267415
 30
0.0
  0
LWPOLYLINE
  8
OpenJsCad
  90
91
  70
1
 10
63.20228396563063
 20
1.4278242526586016
 30
0.0
 10
63.303003740326794
 20
1.4564127261390782
 30
0.0
 10
63.40547239781369
 20
1.4779057032159002
 30
0.0
 10
63.509190721092146
 20
1.4921984722652166
 30
0.0
 10
63.613653404916874
 20
1.4992214003529225
 30
0.0
 10
63.71835151759284
 20
1.498940272479317
 30
0.0
 10
63.822774980439306
 20
1.4913564582711418
 30
0.0
 10
63.92641505284189
 20
1.4765069053088964
 30
0.0
 10
64.02876681078571
 20
1.4544639591219415
 30
0.0
 10
64.12933160679442
 20
1.4253350107283496
 30
0.0
 10
64.22761949929061
 20
1.3892619734366645
 30
0.0
 10
64.32315163954192
 20
1.3464205914585206
 30
0.0
 10
64.41546260456387
 20
1.2970195837005154
 30
0.0
 10
64.50410266461395
 20
1.2412996269066738
 30
0.0
 10
64.58863997422968
 20
1.1795321831055463
 30
0.0
 10
64.66866267613626
 20
1.112018177074487
 30
0.0
 10
64.74378090777385
 20
1.0390865302643992
 30
0.0
 10
64.81362870066879
 20
0.9610925583274745
 30
0.0
 10
64.87786576339515
 20
0.8784162400550648
 30
0.0
 10
64.93617913944041
 20
0.7914603661591986
 30
0.0
 10
64.98828473189815
 20
0.7006485769167223
 30
0.0
 10
65.03392868755951
 20
0.6064232982364566
 30
0.0
 10
65.07288863366065
 20
0.5092435862046396
 30
0.0
 10
65.10497476126041
 20
0.40958289060982117
 30
0.0
 10
65.13003074997039
 20
0.30792674834307726
 30
0.0
 10
65.14793452953222
 20
0.20477041791109712
 30
0.0
 10
65.15859887453158
 20
0.10061646658650314
 30
0.0
 10
65.16197182935156
 20
-0.004027678049368322
 30
0.0
 10
65.15803696129537
 20
-0.10865220024264416
 30
0.0
 10
65.14681344064464
 20
-0.21274737983801884
 30
0.0
 10
65.12835594726377
 20
-0.3158060755841144
 30
0.0
 10
65.10275440420519
 20
-0.41732619587468006
 30
0.0
 10
65.07013353961322
 20
-0.5168131448884264
 30
0.0
 10
65.03065227906113
 20
-0.6137822322101512
 30
0.0
 10
64.98450297128167
 20
-0.7077610341937244
 30
0.0
 10
64.93191045106343
 20
-0.7982916955625944
 30
0.0
 10
64.87313094387834
 20
-0.8849331600346849
 30
0.0
 10
64.80845081757691
 20
-0.9672633191042563
 30
0.0
 10
64.73818518723284
 20
-1.0448810685121208
 30
0.0
 10
64.66267637993411
 20
-1.1174082623852717
 30
0.0
 10
64.58229226699974
 20
-1.184491555525568
 30
0.0
 10
64.49742447174779
 20
-1.245804124872018
 30
0.0
 10
64.40848646154583
 20
-1.3010472617498843
 30
0.0
 10
64.31591153343955
 20
-1.3499518271493185
 30
0.0
 10
64.22015070317308
 20
-1.3922795629435643
 30
0.0
 10
64.12167050788564
 20
-1.4278242526586018
 30
0.0
 10
64.02095073318947
 20
-1.4564127261390782
 30
0.0
 10
63.91848207570258
 20
-1.4779057032159002
 30
0.0
 10
63.81476375242412
 20
-1.4921984722652166
 30
0.0
 10
63.71030106859939
 20
-1.4992214003529225
 30
0.0
 10
63.60560295592342
 20
-1.498940272479317
 30
0.0
 10
63.50117949307696
 20
-1.4913564582711418
 30
0.0
 10
63.39753942067438
 20
-1.4765069053088964
 30
0.0
 10
63.29518766273056
 20
-1.454463959121941
 30
0.0
 10
63.19462286672185
 20
-1.42533501072835
 30
0.0
 10
63.096334974225655
 20
-1.3892619734366642
 30
0.0
 10
63.000802833974355
 20
-1.3464205914585208
 30
0.0
 10
62.9084918689524
 20
-1.297019583700516
 30
0.0
 10
62.819851808902314
 20
-1.2412996269066745
 30
0.0
 10
62.73531449928658
 20
-1.179532183105546
 30
0.0
 10
62.65529179738001
 20
-1.1120181770744875
 30
0.0
 10
62.58017356574241
 20
-1.0390865302643986
 30
0.0
 10
62.51032577284748
 20
-0.9610925583274748
 30
0.0
 10
62.446088710121124
 20
-0.878416240055065
 30
0.0
 10
62.387775334075855
 20
-0.7914603661591987
 30
0.0
 10
62.33566974161812
 20
-0.7006485769167229
 30
0.0
 10
62.29002578595675
 20
-0.606423298236457
 30
0.0
 10
62.251065839855606
 20
-0.5092435862046402
 30
0.0
 10
62.21897971225585
 20
-0.4095828906098204
 30
0.0
 10
62.19392372354587
 20
-0.30792674834307815
 30
0.0
 10
62.17601994398404
 20
-0.20477041791109693
 30
0.0
 10
62.165355598984696
 20
-0.10061646658650303
 30
0.0
 10
62.1619826441647
 20
0.004027678049368488
 30
0.0
 10
62.165917512220894
 20
0.10865220024264399
 30
0.0
 10
62.17714103287164
 20
0.21274737983801834
 30
0.0
 10
62.1955985262525
 20
0.31580607558411394
 30
0.0
 10
62.221200069311074
 20
0.41732619587467956
 30
0.0
 10
62.253820933903036
 20
0.5168131448884258
 30
0.0
 10
62.29330219445513
 20
0.6137822322101516
 30
0.0
 10
62.339451502234596
 20
0.7077610341937238
 30
0.0
 10
62.39204402245283
 20
0.7982916955625946
 30
0.0
 10
62.45082352963792
 20
0.8849331600346849
 30
0.0
 10
62.51550365593936
 20
0.9672633191042562
 30
0.0
 10
62.58576928628343
 20
1.0448810685121208
 30
0.0
 10
62.66127809358216
 20
1.117408262385272
 30
0.0
 10
62.74166220651652
 20
1.1844915555255677
 30
0.0
 10
62.826530001768475
 20
1.2458041248720177
 30
0.0
 10
62.91546801197044
 20
1.3010472617498843
 30
0.0
 10
63.00804294007672
 20
1.3499518271493185
 30
0.0
 10
63.103803770343184
 20
1.3922795629435647
 30
0.0
 10
63.20228396563063
 20
1.4278242526586016
 30
0.0
  0
ENDSEC
  0
EOF
