999
DXF generated by OpenJsCad
  0
SECTION
  2
HEADER
  0
ENDSEC
  0
SECTION
  2
TABLES
  0
TABLE
  2
LTYPE
  70
1
  0
LTYPE
  2
CONTINUOUS
  3
Solid Line
  72
65
  73
0
  40
0.0
  0
ENDTAB
  0
TABLE
  2
LAYER
  70
1
  0
LAYER
  2
OpenJsCad
  62
7
  6
continuous
  0
ENDTAB
  0
TABLE
  2
STYLE
  70
0
  0
ENDTAB
  0
TABLE
  2
VIEW
  70
0
  0
ENDTAB
  0
ENDSEC
  0
SECTION
  2
BLOCKS
  0
ENDSEC
  0
SECTION
  2
ENTITIES
  0
LWPOLYLINE
  8
OpenJsCad
  90
91
  70
1
 10
98.08944494460752
 20
0
 30
0.0
 10
97.85050398668072
 20
6.842373790854339
 30
0.0
 10
97.13484520922908
 20
13.651412224392644
 30
0.0
 10
95.94595522987858
 20
20.393942349808864
 30
0.0
 10
94.28962620110178
 20
27.037115238088735
 30
0.0
 10
92.17392759143331
 20
33.548566018689954
 30
0.0
 10
89.60916687183018
 20
39.89657155793818
 30
0.0
 10
86.60783929870945
 20
46.05020501094549
 30
0.0
 10
83.18456703831497
 20
51.979486494089876
 30
0.0
 10
79.35602792899326
 20
57.655529143994784
 30
0.0
 10
75.14087422844152
 20
63.05067985142366
 30
0.0
 10
70.5596417417831
 20
68.13865398444858
 30
0.0
 10
65.63464977318907
 20
72.89466344453481
 30
0.0
 10
60.389892388472
 20
77.29553743166524
 30
0.0
 10
54.850921518409045
 20
81.31983533014883
 30
0.0
 10
49.044722472303775
 20
84.94795116514518
 30
0.0
 10
42.999582468271676
 20
88.16220912100317
 30
0.0
 10
36.74495282075707
 20
90.94694965605788
 30
0.0
 10
30.3113054566895
 20
93.2886057943437
 30
0.0
 10
23.72998445931871
 20
95.17576922253733
 30
0.0
 10
17.033053362991797
 20
96.59924587011362
 30
0.0
 10
10.253138942836923
 20
97.55210070193297
 30
0.0
 10
3.4232722603944916
 20
98.02969150503537
 30
0.0
 10
-3.4232722603944574
 20
98.02969150503537
 30
0.0
 10
-10.25313894283691
 20
97.55210070193297
 30
0.0
 10
-17.033053362991787
 20
96.59924587011362
 30
0.0
 10
-23.7299844593187
 20
95.17576922253733
 30
0.0
 10
-30.31130545668949
 20
93.2886057943437
 30
0.0
 10
-36.74495282075708
 20
90.94694965605788
 30
0.0
 10
-42.99958246827168
 20
88.16220912100316
 30
0.0
 10
-49.04472247230374
 20
84.9479511651452
 30
0.0
 10
-54.85092151840904
 20
81.31983533014883
 30
0.0
 10
-60.389892388472
 20
77.29553743166524
 30
0.0
 10
-65.63464977318907
 20
72.89466344453483
 30
0.0
 10
-70.55964174178311
 20
68.13865398444858
 30
0.0
 10
-75.1408742284415
 20
63.05067985142368
 30
0.0
 10
-79.35602792899326
 20
57.6555291439948
 30
0.0
 10
-83.18456703831497
 20
51.979486494089876
 30
0.0
 10
-86.60783929870944
 20
46.05020501094552
 30
0.0
 10
-89.60916687183017
 20
39.89657155793821
 30
0.0
 10
-92.17392759143331
 20
33.54856601868997
 30
0.0
 10
-94.28962620110177
 20
27.03711523808878
 30
0.0
 10
-95.94595522987858
 20
20.393942349808864
 30
0.0
 10
-97.13484520922907
 20
13.651412224392672
 30
0.0
 10
-97.85050398668072
 20
6.842373790854361
 30
0.0
 10
-98.08944494460752
 20
1.2012492478155413e-14
 30
0.0
 10
-97.85050398668072
 20
-6.8423737908542925
 30
0.0
 10
-97.13484520922907
 20
-13.65141222439265
 30
0.0
 10
-95.94595522987858
 20
-20.39394234980884
 30
0.0
 10
-94.28962620110178
 20
-27.037115238088717
 30
0.0
 10
-92.17392759143331
 20
-33.54856601868995
 30
0.0
 10
-89.6091668718302
 20
-39.896571557938145
 30
0.0
 10
-86.60783929870945
 20
-46.0502050109455
 30
0.0
 10
-83.18456703831498
 20
-51.97948649408987
 30
0.0
 10
-79.35602792899326
 20
-57.65552914399478
 30
0.0
 10
-75.14087422844152
 20
-63.05067985142366
 30
0.0
 10
-70.55964174178308
 20
-68.13865398444858
 30
0.0
 10
-65.6346497731891
 20
-72.8946634445348
 30
0.0
 10
-60.38989238847198
 20
-77.29553743166525
 30
0.0
 10
-54.85092151840909
 20
-81.31983533014879
 30
0.0
 10
-49.0447224723038
 20
-84.94795116514517
 30
0.0
 10
-42.999582468271704
 20
-88.16220912100314
 30
0.0
 10
-36.744952820757106
 20
-90.94694965605787
 30
0.0
 10
-30.31130545668951
 20
-93.2886057943437
 30
0.0
 10
-23.7299844593187
 20
-95.17576922253733
 30
0.0
 10
-17.033053362991787
 20
-96.59924587011362
 30
0.0
 10
-10.253138942836914
 20
-97.55210070193297
 30
0.0
 10
-3.423272260394547
 20
-98.02969150503536
 30
0.0
 10
3.423272260394511
 20
-98.02969150503537
 30
0.0
 10
10.253138942836877
 20
-97.55210070193297
 30
0.0
 10
17.03305336299175
 20
-96.59924587011363
 30
0.0
 10
23.729984459318665
 20
-95.17576922253734
 30
0.0
 10
30.311305456689478
 20
-93.2886057943437
 30
0.0
 10
36.74495282075707
 20
-90.94694965605788
 30
0.0
 10
42.99958246827167
 20
-88.16220912100317
 30
0.0
 10
49.044722472303775
 20
-84.94795116514518
 30
0.0
 10
54.85092151840899
 20
-81.31983533014886
 30
0.0
 10
60.38989238847202
 20
-77.29553743166522
 30
0.0
 10
65.63464977318903
 20
-72.89466344453486
 30
0.0
 10
70.55964174178305
 20
-68.13865398444862
 30
0.0
 10
75.1408742284415
 20
-63.050679851423695
 30
0.0
 10
79.35602792899326
 20
-57.655529143994805
 30
0.0
 10
83.18456703831491
 20
-51.97948649408996
 30
0.0
 10
86.60783929870945
 20
-46.05020501094549
 30
0.0
 10
89.6091668718302
 20
-39.89657155793818
 30
0.0
 10
92.17392759143331
 20
-33.54856601868995
 30
0.0
 10
94.28962620110177
 20
-27.03711523808879
 30
0.0
 10
95.94595522987856
 20
-20.393942349808917
 30
0.0
 10
97.13484520922907
 20
-13.651412224392686
 30
0.0
 10
97.85050398668072
 20
-6.842373790854285
 30
0.0
 10
98.08944494460752
 20
0
 30
0.0
  0
LWPOLYLINE
  8
OpenJsCad
  90
2346
  70
1
 10
-87.74523966381958
 20
4.065158647885311
 30
0.0
 10
-87.74245255483058
 20
4.117212529252208
 30
0.0
 10
-87.74035301422533
 20
4.169298673965885
 30
0.0
 10
-87.69049344332298
 20
5.087635084301056
 30
0.0
 10
-87.64378287695317
 20
5.188675650492021
 30
0.0
 10
-86.7511104411941
 20
5.535433330696916
 30
0.0
 10
-85.78201915595481
 20
5.834400501438475
 30
0.0
 10
-85.7063297546227
 20
5.856663743611726
 30
0.0
 10
-84.90355184735094
 20
6.074715892652797
 30
0.0
 10
-84.87973933166653
 20
6.0805537355242585
 30
0.0
 10
-84.17145067149997
 20
6.250711071505338
 30
0.0
 10
-84.0465514864827
 20
6.278383338429846
 30
0.0
 10
-83.51179545439298
 20
6.38929674637972
 30
0.0
 10
-83.28452008687417
 20
6.432468243129156
 30
0.0
 10
-82.83858052795107
 20
6.510509686098957
 30
0.0
 10
-82.71553107186695
 20
6.54723233011856
 30
0.0
 10
-82.63510786129206
 20
6.574867741456738
 30
0.0
 10
-82.59080324672306
 20
6.60933040256414
 30
0.0
 10
-82.5512629065445
 20
6.642773813837258
 30
0.0
 10
-82.34213563872939
 20
8.866236510511175
 30
0.0
 10
-82.37474668160435
 20
8.906466103367773
 30
0.0
 10
-82.4118483962332
 20
8.948585417870875
 30
0.0
 10
-82.48570828792742
 20
8.990731890591567
 30
0.0
 10
-82.59975246322476
 20
9.049754321062569
 30
0.0
 10
-83.0233197645662
 20
9.20957702994412
 30
0.0
 10
-83.23855954044396
 20
9.294369185787016
 30
0.0
 10
-83.74325639148051
 20
9.503048093376453
 30
0.0
 10
-83.86080539000257
 20
9.553523767925538
 30
0.0
 10
-84.52494492205456
 20
9.852764518951265
 30
0.0
 10
-84.54725130226737
 20
9.862940063871003
 30
0.0
 10
-85.29529251086149
 20
10.226854144870899
 30
0.0
 10
-85.36550330721865
 20
10.262839996270792
 30
0.0
 10
-86.26185376069917
 20
10.737260856729952
 30
0.0
 10
-87.07421453602024
 20
11.24438503982592
 30
0.0
 10
-87.10126588837615
 20
11.352363266160669
 30
0.0
 10
-86.97901799226247
 20
12.263891209371216
 30
0.0
 10
-86.97136872689322
 20
12.315455376010462
 30
0.0
 10
-86.96440098753207
 20
12.367116049158248
 30
0.0
 10
-86.82876611112322
 20
13.27674834830962
 30
0.0
 10
-86.77279920270028
 20
13.372970893424364
 30
0.0
 10
-85.85157827999063
 20
13.634613737597657
 30
0.0
 10
-84.85874946809102
 20
13.84152008977155
 30
0.0
 10
-84.78130788419014
 20
13.856597838575738
 30
0.0
 10
-83.96163866944298
 20
13.998518543551562
 30
0.0
 10
-83.93738412207843
 20
14.002100895398245
 30
0.0
 10
-83.21627390862186
 20
14.10518535182763
 30
0.0
 10
-83.0893322605754
 20
14.121040280587135
 30
0.0
 10
-82.54653985937482
 20
14.181390981646102
 30
0.0
 10
-82.31622050064583
 20
14.203090378113751
 30
0.0
 10
-81.86493249119667
 20
14.239030461040254
 30
0.0
 10
-81.73898495354915
 20
14.264069210747724
 30
0.0
 10
-81.65632730292577
 20
14.284052242360282
 30
0.0
 10
-81.60899022871031
 20
14.31421472381372
 30
0.0
 10
-81.5664919386506
 20
14.343808567785437
 30
0.0
 10
-81.15007522096938
 20
16.537918340536073
 30
0.0
 10
-81.17877581133722
 20
16.58102491046849
 30
0.0
 10
-81.21177038501673
 20
16.626433411768563
 30
0.0
 10
-81.28135907653481
 20
16.675311042405504
 30
0.0
 10
-81.38937519137035
 20
16.744753393703462
 30
0.0
 10
-81.79611529385367
 20
16.943537311744535
 30
0.0
 10
-82.00246923851266
 20
17.04811226255049
 30
0.0
 10
-82.4854074387712
 20
17.303134796162688
 30
0.0
 10
-82.59771330753041
 20
17.364396143005223
 30
0.0
 10
-83.23091324888317
 20
17.724513039831155
 30
0.0
 10
-83.25216876127719
 20
17.736732675892828
 30
0.0
 10
-83.96284560674503
 20
18.169095404884153
 30
0.0
 10
-84.0293781268735
 20
18.211497777358314
 30
0.0
 10
-84.87736452430718
 20
18.767769615636137
 30
0.0
 10
-85.6386679078928
 20
19.348736158994797
 30
0.0
 10
-85.65548915416885
 20
19.458773055990317
 30
0.0
 10
-85.44842158315407
 20
20.35484825394633
 30
0.0
 10
-85.43597738342366
 20
20.405469558107317
 30
0.0
 10
-85.42420267805062
 20
20.456250763836064
 30
0.0
 10
-85.20398446030607
 20
21.34918507045177
 30
0.0
 10
-85.13925304903361
 20
21.439743987304023
 30
0.0
 10
-84.19757936196577
 20
21.613972668723438
 30
0.0
 10
-83.18973803870311
 20
21.72699990186719
 30
0.0
 10
-83.1112248316573
 20
21.734759653503687
 30
0.0
 10
-82.28186759196615
 20
21.79930171015601
 30
0.0
 10
-82.25738416275581
 20
21.80059708914108
 30
0.0
 10
-81.52978953849346
 20
21.835702756109143
 30
0.0
 10
-81.40192099518521
 20
21.839601013019617
 30
0.0
 10
-80.85586230401226
 20
21.84885864305679
 30
0.0
 10
-80.624523008879
 20
21.84889524416627
 30
0.0
 10
-80.17185248415745
 20
21.84241812430845
 30
0.0
 10
-80.04411369643596
 20
21.855552938271057
 30
0.0
 10
-79.95994800416985
 20
21.867707978557668
 30
0.0
 10
-79.90999447021814
 20
21.8933052113856
 30
0.0
 10
-79.86491170677846
 20
21.918789416291016
 30
0.0
 10
-79.24486502431887
 20
24.06426434954358
 30
0.0
 10
-79.26940294035944
 20
24.109869074465298
 30
0.0
 10
-79.29800041558978
 20
24.1581677110202
 30
0.0
 10
-79.3627063590085
 20
24.213346961197892
 30
0.0
 10
-79.46374516388121
 20
24.292598971442718
 30
0.0
 10
-79.85008362086097
 20
24.52859717842406
 30
0.0
 10
-80.04573828841582
 20
24.652035915765268
 30
0.0
 10
-80.50267375962787
 20
24.951160928205205
 30
0.0
 10
-80.60874955061146
 20
25.02266958042241
 30
0.0
 10
-81.20544531741292
 20
25.440497902810808
 30
0.0
 10
-81.22546316778097
 20
25.45465424341333
 30
0.0
 10
-81.89253019645132
 20
25.951666001187593
 30
0.0
 10
-81.95479975017193
 20
26.000112261162087
 30
0.0
 10
-82.74696995660776
 20
26.63334654034237
 30
0.0
 10
-83.45052558694938
 20
27.28304988909133
 30
0.0
 10
-83.45696890142848
 20
27.394178448540305
 30
0.0
 10
-83.16690137277205
 20
28.266926160182688
 30
0.0
 10
-83.14977159875518
 20
28.3161597400243
 30
0.0
 10
-83.13329340390443
 20
28.36561521127216
 30
0.0
 10
-82.83042713043994
 20
29.234004386559135
 30
0.0
 10
-82.75750007828769
 20
29.318103840131457
 30
0.0
 10
-81.80364908908261
 20
29.40338723088007
 30
0.0
 10
-80.78965220024394
 20
29.42154205760479
 30
0.0
 10
-80.71075734693973
 20
29.421915619097202
 30
0.0
 10
-79.87900050354752
 20
29.40851182951147
 30
0.0
 10
-79.85450335374762
 20
29.407508851797825
 30
0.0
 10
-79.12681844639908
 20
29.374327219440985
 30
0.0
 10
-78.99914672118526
 20
29.36623454648054
 30
0.0
 10
-78.45462052345219
 20
29.324317749110286
 30
0.0
 10
-78.22429430995838
 20
29.30269123320972
 30
0.0
 10
-77.77421935481198
 20
29.25385383172978
 30
0.0
 10
-77.64581189007602
 20
29.254969280730148
 30
0.0
 10
-77.56087780729708
 20
29.25918951075973
 30
0.0
 10
-77.50874680706167
 20
29.27999654555968
 30
0.0
 10
-77.4614757591881
 20
29.30114715528976
 30
0.0
 10
-76.64324810449013
 20
31.379132738187703
 30
0.0
 10
-76.663407706115
 20
31.426834842136337
 30
0.0
 10
-76.68735676725555
 20
31.477599163791385
 30
0.0
 10
-76.74661132441757
 20
31.53859511627524
 30
0.0
 10
-76.83978488667728
 20
31.626960315951298
 30
0.0
 10
-77.20232654190227
 20
31.898098851144347
 30
0.0
 10
-77.38556251209953
 20
32.03931659095867
 30
0.0
 10
-77.81247968891434
 20
32.379915360861624
 30
0.0
 10
-77.91139320425711
 20
32.46104289784663
 30
0.0
 10
-78.4663410126537
 20
32.93291075547683
 30
0.0
 10
-78.48494528340699
 20
32.94887939418998
 30
0.0
 10
-79.10254028624668
 20
33.506172423549195
 30
0.0
 10
-79.15999964648238
 20
33.56023682354943
 30
0.0
 10
-79.88939204166276
 20
34.264868658018024
 30
0.0
 10
-80.52901704658375
 20
34.977599195767624
 30
0.0
 10
-80.52502580518659
 20
35.088842815893855
 30
0.0
 10
-80.15450744276004
 20
35.930593302952005
 30
0.0
 10
-80.13284263152667
 20
35.97800649200433
 30
0.0
 10
-80.11180575816708
 20
36.02570161231176
 30
0.0
 10
-79.72895302868378
 20
36.8619142209736
 30
0.0
 10
-79.64847122120825
 20
36.93881514224409
 30
0.0
 10
-78.69082540665592
 20
36.93440376881754
 30
0.0
 10
-77.67958399335978
 20
36.85752664385319
 30
0.0
 10
-77.60100082460481
 20
36.85051073232969
 30
0.0
 10
-76.77415388655807
 20
36.75927888949074
 30
0.0
 10
-76.7498582980019
 20
36.75598636928259
 30
0.0
 10
-76.0284780286977
 20
36.65480903897908
 30
0.0
 10
-75.9021251052901
 20
36.63479655484868
 30
0.0
 10
-75.36391671680168
 20
36.542073696393444
 30
0.0
 10
-75.13662769999314
 20
36.498974118082195
 30
0.0
 10
-74.69310358931072
 20
36.408205619820336
 30
0.0
 10
-74.56515589697746
 20
36.39729190125254
 30
0.0
 10
-74.48019982745905
 20
36.39354023349184
 30
0.0
 10
-74.42634949004443
 20
36.40937421729385
 30
0.0
 10
-74.37730557740537
 20
36.4260053595298
 30
0.0
 10
-73.36808756451883
 20
38.418240180054134
 30
0.0
 10
-73.38369168842408
 20
38.467620455224996
 30
0.0
 10
-73.40278187026443
 20
38.52040434329621
 30
0.0
 10
-73.45606430999086
 20
38.5866809634626
 30
0.0
 10
-73.54055381702224
 20
38.68338279601787
 30
0.0
 10
-73.87611264139072
 20
38.98727888422624
 30
0.0
 10
-74.0453196299358
 20
39.145034599938526
 30
0.0
 10
-74.43846674885327
 20
39.52411393306795
 30
0.0
 10
-74.52934873302581
 20
39.6141474031087
 30
0.0
 10
-75.03767168172352
 20
40.13590800428127
 30
0.0
 10
-75.0546988778617
 20
40.15354860813386
 30
0.0
 10
-75.61739440777943
 20
40.766225397897884
 30
0.0
 10
-75.66953861960644
 20
40.82543281803271
 30
0.0
 10
-76.32974327693636
 20
41.59526987789242
 30
0.0
 10
-76.89981660889498
 20
42.36476410304982
 30
0.0
 10
-76.88542588679445
 20
42.47514517091975
 30
0.0
 10
-76.43771281928923
 20
43.27850109984723
 30
0.0
 10
-76.41170336197955
 20
43.32367722930003
 30
0.0
 10
-76.38629268291058
 20
43.369192852234825
 30
0.0
 10
-75.9268180209611
 20
44.165880227799576
 30
0.0
 10
-75.83948873518018
 20
44.23490680870704
 30
0.0
 10
-74.8864639211322
 20
44.14083943841363
 30
0.0
 10
-73.88686480927907
 20
43.96960596069861
 30
0.0
 10
-73.8092839167859
 20
43.95526223224192
 30
0.0
 10
-72.99461324470647
 20
43.78700408486496
 30
0.0
 10
-72.97073272789982
 20
43.78145095694829
 30
0.0
 10
-72.26199661238472
 20
43.61316707871478
 30
0.0
 10
-72.13807288481742
 20
43.58141065384452
 30
0.0
 10
-71.61091210024361
 20
43.43869658611839
 30
0.0
 10
-71.38865770417253
 20
43.37450270604033
 30
0.0
 10
-70.9555821437862
 20
43.24260078782299
 30
0.0
 10
-70.82921863277635
 20
43.21975381183821
 30
0.0
 10
-70.7449871735121
 20
43.208063216078415
 30
0.0
 10
-70.68989073761973
 20
43.218784999263505
 30
0.0
 10
-70.63950495988288
 20
43.23075051892936
 30
0.0
 10
-69.4481656329927
 20
45.11972674584412
 30
0.0
 10
-69.45907714957636
 20
45.17035123660348
 30
0.0
 10
-69.4731406869121
 20
45.22469082438456
 30
0.0
 10
-69.51998276120676
 20
45.29566567091242
 30
0.0
 10
-69.5950457161841
 20
45.399854317165364
 30
0.0
 10
-69.90067280668212
 20
45.73383730863894
 30
0.0
 10
-70.05436381647566
 20
45.906744637347224
 30
0.0
 10
-70.41028588647863
 20
46.32097317089331
 30
0.0
 10
-70.49233766533628
 20
46.419121356617836
 30
0.0
 10
-70.9495685939846
 20
46.98618945040913
 30
0.0
 10
-70.96486907989578
 20
47.00534699314022
 30
0.0
 10
-71.46772014834222
 20
47.66802331765107
 30
0.0
 10
-71.51409096655209
 20
47.73185344098346
 30
0.0
 10
-72.09930598376447
 20
48.560130370471825
 30
0.0
 10
-72.59481781782182
 20
49.37962594011825
 30
0.0
 10
-72.57015408120118
 20
49.48817442293856
 30
0.0
 10
-72.04918082715258
 20
50.24607587294634
 30
0.0
 10
-72.0190552958125
 20
50.28861793334974
 30
0.0
 10
-71.98949412099552
 20
50.331554065980974
 30
0.0
 10
-71.45743540643002
 20
51.08171489114633
 30
0.0
 10
-71.36402609524723
 20
51.142260523615825
 30
0.0
 10
-70.4239974980366
 20
50.95936382388798
 30
0.0
 10
-69.44482520056323
 20
50.695278799381356
 30
0.0
 10
-69.36892836800457
 20
50.67373330719292
 30
0.0
 10
-68.57359331705118
 20
50.429927513927026
 30
0.0
 10
-68.55033773483439
 20
50.422162579389635
 30
0.0
 10
-67.86047417157499
 20
50.188251037998874
 30
0.0
 10
-67.74006868602167
 20
50.14502974899237
 30
0.0
 10
-67.228588213292
 20
49.95357864835396
 30
0.0
 10
-67.01332161758248
 20
49.868854604635395
 30
0.0
 10
-66.59450049108868
 20
49.69697842526255
 30
0.0
 10
-66.47083164848054
 20
49.66239897190724
 30
0.0
 10
-66.3880650285631
 20
49.64287218552423
 30
0.0
 10
-66.33220668365266
 20
49.648387544676254
 30
0.0
 10
-66.28092183284448
 20
49.655582288354964
 30
0.0
 10
-64.9179307247914
 20
51.4246995306576
 30
0.0
 10
-64.92405374325338
 20
51.4761233471604
 30
0.0
 10
-64.93296704521275
 20
51.53154109640008
 30
0.0
 10
-64.97295710424248
 20
51.606590439786146
 30
0.0
 10
-65.03793385121847
 20
51.71735028616727
 30
0.0
 10
-65.3109433459855
 20
52.07848512636821
 30
0.0
 10
-65.44776773490729
 20
52.265024552250715
 30
0.0
 10
-65.76333690004698
 20
52.71076203096658
 30
0.0
 10
-65.83583739960686
 20
52.81616240258968
 30
0.0
 10
-66.23795814636452
 20
53.42355457420185
 30
0.0
 10
-66.25139746082839
 20
53.444060698637095
 30
0.0
 10
-66.68998499453342
 20
54.15091293452764
 30
0.0
 10
-66.73017491070843
 20
54.21880481963867
 30
0.0
 10
-67.23525739718987
 20
55.09824269131765
 30
0.0
 10
-67.6518531575315
 20
55.96053784892111
 30
0.0
 10
-67.61713315219502
 20
56.06629981872177
 30
0.0
 10
-67.02747804329186
 20
56.77208632461591
 30
0.0
 10
-66.99350118217404
 20
56.81162045481338
 30
0.0
 10
-66.96004929627622
 20
56.85159977286367
 30
0.0
 10
-66.36008228020913
 20
57.548641607325145
 30
0.0
 10
-66.26141382800974
 20
57.600174214161534
 30
0.0
 10
-65.34264245274862
 20
57.33005548777274
 30
0.0
 10
-64.39250197101254
 20
56.97543970516536
 30
0.0
 10
-64.3189561824819
 20
56.94688179180522
 30
0.0
 10
-63.54994618567952
 20
56.62967092672795
 30
0.0
 10
-63.527519908945294
 20
56.61976242409374
 30
0.0
 10
-62.86259144374041
 20
56.32227884258206
 30
0.0
 10
-62.74676232793743
 20
56.26797251968116
 30
0.0
 10
-62.25545707583717
 20
56.02946686528674
 30
0.0
 10
-62.04907005107245
 20
55.924957215870236
 30
0.0
 10
-61.64818397359002
 20
55.714617229386214
 30
0.0
 10
-61.52829660561911
 20
55.66860918413981
 30
0.0
 10
-61.44772218108031
 20
55.64141780923444
 30
0.0
 10
-61.391592812295315
 20
55.64167827517884
 30
0.0
 10
-61.33985958152869
 20
55.64403901520425
 30
0.0
 10
-59.817194707178274
 20
57.27775020695868
 30
0.0
 10
-59.81847541821219
 20
57.329521434856495
 30
0.0
 10
-59.82216015437705
 20
57.385530332381855
 30
0.0
 10
-59.854946764065225
 20
57.46399463629794
 30
0.0
 10
-59.90926628505112
 20
57.58035232129474
 30
0.0
 10
-60.14725896683079
 20
57.96546534426233
 30
0.0
 10
-60.26601431723128
 20
58.16399755213714
 30
0.0
 10
-60.53845734433778
 20
58.637326819032815
 30
0.0
 10
-60.6007694276029
 20
58.74905311429888
 30
0.0
 10
-60.94424614088869
 20
59.39143157948828
 30
0.0
 10
-60.95570617872648
 20
59.413106077068804
 30
0.0
 10
-61.32617585467397
 20
60.15792238147433
 30
0.0
 10
-61.35983167838567
 20
60.22927939203649
 30
0.0
 10
-61.78034295108416
 20
61.152149674268536
 30
0.0
 10
-62.11436157918901
 20
62.04966653897914
 30
0.0
 10
-62.06989042579194
 20
62.151712555766736
 30
0.0
 10
-61.416735372333
 20
62.79918164035605
 30
0.0
 10
-61.3792057713147
 20
62.83536041298985
 30
0.0
 10
-61.342157150712126
 20
62.87203157677468
 30
0.0
 10
-60.679554364853175
 20
63.50982879182804
 30
0.0
 10
-60.576493873542866
 20
63.55189550262952
 30
0.0
 10
-59.687053916112575
 20
63.196928562659735
 30
0.0
 10
-58.7742951188307
 20
62.75489839819979
 30
0.0
 10
-58.70374669736212
 20
62.71957903163739
 30
0.0
 10
-57.967819842213345
 20
62.33175075523674
 30
0.0
 10
-57.946419953888
 20
62.31978576078314
 30
0.0
 10
-57.312270001998144
 20
61.96134443556123
 30
0.0
 10
-57.202035166379964
 20
61.89643032468425
 30
0.0
 10
-56.735222743130024
 20
61.61296611280041
 30
0.0
 10
-56.53952902590464
 20
61.489589292242776
 30
0.0
 10
-56.16010099869684
 20
61.24263397401186
 30
0.0
 10
-56.045048679863584
 20
61.18560165723025
 30
0.0
 10
-55.9673745416434
 20
61.15098465258287
 30
0.0
 10
-55.91146741589494
 20
61.145987936335594
 30
0.0
 10
-55.859740438661994
 20
61.143493926439476
 30
0.0
 10
-54.19078303167927
 20
62.62744195495049
 30
0.0
 10
-54.187210180350505
 20
62.67910562683105
 30
0.0
 10
-54.185633969126954
 20
62.73521346443678
 30
0.0
 10
-54.21092899956874
 20
62.8164031817588
 30
0.0
 10
-54.25411393266099
 20
62.937336149851745
 30
0.0
 10
-54.454998313208506
 20
63.34304296849293
 30
0.0
 10
-54.554640998798405
 20
63.55182325017879
 30
0.0
 10
-54.781563648753476
 20
64.04858467063765
 30
0.0
 10
-54.83313971489561
 20
64.16565503484664
 30
0.0
 10
-55.11495390900303
 20
64.83737454856369
 30
0.0
 10
-55.12433395899019
 20
64.86002694302543
 30
0.0
 10
-55.423430076347216
 20
65.63626184348205
 30
0.0
 10
-55.4502560390067
 20
65.71045689152079
 30
0.0
 10
-55.782500629737754
 20
66.66864936708274
 30
0.0
 10
-56.031006757892
 20
67.59350052842211
 30
0.0
 10
-55.97717527052943
 20
67.69093380813194
 30
0.0
 10
-55.266260222609496
 20
68.27439548982052
 30
0.0
 10
-55.22550769317377
 20
68.306900964536
 30
0.0
 10
-55.18518792247641
 20
68.33994170654947
 30
0.0
 10
-54.465772343932414
 20
68.91288931733605
 30
0.0
 10
-54.35922551281449
 20
68.94512044833556
 30
0.0
 10
-53.50693340354182
 20
68.50842475701648
 30
0.0
 10
-52.63957764784401
 20
67.98286478768298
 30
0.0
 10
-52.572646575502
 20
67.9410943557816
 30
0.0
 10
-51.87627021367102
 20
67.48605691689542
 30
0.0
 10
-51.856084776742605
 20
67.47214057942391
 30
0.0
 10
-51.258286270746616
 20
67.055891505746
 30
0.0
 10
-51.15461446301228
 20
66.98094007443339
 30
0.0
 10
-50.71639723297297
 20
66.65500839874645
 30
0.0
 10
-50.533116586710314
 20
66.51384864698294
 30
0.0
 10
-50.17848103692303
 20
66.23244824922129
 30
0.0
 10
-50.06927485114217
 20
66.16489286295503
 30
0.0
 10
-49.99518360236017
 20
66.12315444404719
 30
0.0
 10
-49.939990033479525
 20
66.11294445693025
 30
0.0
 10
-49.88872388831607
 20
66.10561761456125
 30
0.0
 10
-48.088140806402976
 20
67.42676149119717
 30
0.0
 10
-48.079745791057476
 20
67.47786358485438
 30
0.0
 10
-48.07292248424643
 20
67.53357728484616
 30
0.0
 10
-48.090503641804794
 20
67.61677891741901
 30
0.0
 10
-48.12217447625862
 20
67.7412244053362
 30
0.0
 10
-48.284185176414695
 20
68.1639596535411
 30
0.0
 10
-48.36383953369025
 20
68.3811532404156
 30
0.0
 10
-48.54324760208681
 20
68.89698125721301
 30
0.0
 10
-48.58363439878222
 20
69.01836687179484
 30
0.0
 10
-48.801309480440494
 20
69.71352433880051
 30
0.0
 10
-48.80852711036046
 20
69.73695556008644
 30
0.0
 10
-49.033621201693336
 20
70.53778747637847
 30
0.0
 10
-49.053381555776184
 20
70.6141685331439
 30
0.0
 10
-49.29443968713022
 20
71.5992625721075
 30
0.0
 10
-49.45524943454429
 20
72.54332040481567
 30
0.0
 10
-49.39253068626273
 20
72.6352847002823
 30
0.0
 10
-48.630103190884725
 20
73.1496114968324
 30
0.0
 10
-48.58648586772554
 20
73.17815801434901
 30
0.0
 10
-48.54324927852804
 20
73.20727797136226
 30
0.0
 10
-47.77334315727068
 20
73.71034089367745
 30
0.0
 10
-47.66424632372804
 20
73.73245319653685
 30
0.0
 10
-46.856592036314446
 20
73.21786645130572
 30
0.0
 10
-46.04226167576861
 20
72.61339531700631
 30
0.0
 10
-45.9795361452235
 20
72.56554089982343
 30
0.0
 10
-45.32883005721713
 20
72.04729318382606
 30
0.0
 10
-45.31003646203117
 20
72.0315478006107
 30
0.0
 10
-44.75384287669431
 20
71.56114899030304
 30
0.0
 10
-44.65764516841781
 20
71.47681891442814
 30
0.0
 10
-44.251874200363375
 20
71.11128407422329
 30
0.0
 10
-44.08261730197286
 20
70.95358190822796
 30
0.0
 10
-43.75589077956898
 20
70.64020938774921
 30
0.0
 10
-43.6534904347278
 20
70.56272461116184
 30
0.0
 10
-43.583633191942305
 20
70.51423157671964
 30
0.0
 10
-43.52963822299735
 20
70.49889804446696
 30
0.0
 10
-43.47928343863043
 20
70.48680275817925
 30
0.0
 10
-41.56289827065295
 20
71.63353222304889
 30
0.0
 10
-41.54975486698743
 20
71.68362365144623
 30
0.0
 10
-41.53774442805448
 20
71.73845359982528
 30
0.0
 10
-41.547457208884644
 20
71.8229359687103
 30
0.0
 10
-41.5673356202681
 20
71.94980034502935
 30
0.0
 10
-41.68904888417446
 20
72.38584901023677
 30
0.0
 10
-41.74801490777988
 20
72.609547197249
 30
0.0
 10
-41.878331750062024
 20
73.13990869522614
 30
0.0
 10
-41.9071743566892
 20
73.26454281903527
 30
0.0
 10
-42.058797389453936
 20
73.9770291705143
 30
0.0
 10
-42.063789170515456
 20
74.00103330420929
 30
0.0
 10
-42.21290310085601
 20
74.81942449666148
 30
0.0
 10
-42.225424191660046
 20
74.89732032268033
 30
0.0
 10
-42.37317743611118
 20
75.90065888321098
 30
0.0
 10
-42.4448776009427
 20
76.85562697310934
 30
0.0
 10
-42.37382276635718
 20
76.94131409879755
 30
0.0
 10
-41.566583063764476
 20
77.38198608782783
 30
0.0
 10
-41.520484257486345
 20
77.40632278032301
 30
0.0
 10
-41.4747108144892
 20
77.4312660451068
 30
0.0
 10
-40.661080113195
 20
77.86002334390108
 30
0.0
 10
-40.5503920241235
 20
77.87182249490775
 30
0.0
 10
-39.794473253486984
 20
77.28386690258424
 30
0.0
 10
-39.0403246525818
 20
76.60579671738164
 30
0.0
 10
-38.982355898051395
 20
76.55227886125613
 30
0.0
 10
-38.38303851236796
 20
75.97537524770996
 30
0.0
 10
-38.3658019177147
 20
75.95793918974461
 30
0.0
 10
-37.856101102263494
 20
75.43752452446591
 30
0.0
 10
-37.76822288236409
 20
75.3445568997677
 30
0.0
 10
-37.398464106151756
 20
74.94263122836394
 30
0.0
 10
-37.24471839134229
 20
74.7697725404419
 30
0.0
 10
-36.94877218074854
 20
74.4271818262237
 30
0.0
 10
-36.85407757475944
 20
74.34044859831793
 30
0.0
 10
-36.78906824593185
 20
74.28562710687169
 30
0.0
 10
-36.73674638665113
 20
74.26530478111603
 30
0.0
 10
-36.687745482736325
 20
74.24854734472044
 30
0.0
 10
-34.67239949045659
 20
75.21078489805446
 30
0.0
 10
-34.654623203175035
 20
75.25942545591808
 30
0.0
 10
-34.63753118028938
 20
75.31288980512656
 30
0.0
 10
-34.63929022812417
 20
75.39791047622833
 30
0.0
 10
-34.64720152424327
 20
75.52607885224857
 30
0.0
 10
-34.72754773136036
 20
75.97160892311003
 30
0.0
 10
-34.765307225760004
 20
76.1998458425492
 30
0.0
 10
-34.84538761283207
 20
76.74007998579202
 30
0.0
 10
-34.86243255952689
 20
76.86686732966709
 30
0.0
 10
-34.946671074734375
 20
77.59042120994438
 30
0.0
 10
-34.94939313898598
 20
77.61478730685836
 30
0.0
 10
-35.02121648975283
 20
78.44354572424523
 30
0.0
 10
-35.02638828148184
 20
78.52227176819761
 30
0.0
 10
-35.0795381782052
 20
79.5350374749491
 30
0.0
 10
-35.06149865682756
 20
80.49252352812663
 30
0.0
 10
-34.98273216837927
 20
80.57118046249485
 30
0.0
 10
-34.137774310103545
 20
80.93432500272087
 30
0.0
 10
-34.08959913867324
 20
80.95423799846611
 30
0.0
 10
-34.04169110053934
 20
80.97478536871262
 30
0.0
 10
-33.19148603506634
 20
81.32546910942769
 30
0.0
 10
-33.08017942137268
 20
81.32685141721835
 30
0.0
 10
-32.38263920884954
 20
80.67069395268847
 30
0.0
 10
-31.69529985260611
 20
79.92498362175105
 30
0.0
 10
-31.64259730558956
 20
79.86627264352681
 30
0.0
 10
-31.099935444963613
 20
79.23578298213097
 30
0.0
 10
-31.084407326656624
 20
79.21680947811994
 30
0.0
 10
-30.625678550184183
 20
78.65095238066085
 30
0.0
 10
-30.54689209561812
 20
78.55016420996793
 30
0.0
 10
-30.21639496466836
 20
78.11537984461724
 30
0.0
 10
-30.0795115563098
 20
77.92888372313334
 30
0.0
 10
-29.816946443465973
 20
77.5600855146905
 30
0.0
 10
-29.730789755931234
 20
77.46486605019174
 30
0.0
 10
-29.671199645380778
 20
77.40419787497946
 30
0.0
 10
-29.621010702144947
 20
77.37906534905026
 30
0.0
 10
-29.573794300387753
 20
77.35779302750035
 30
0.0
 10
-27.4771984168501
 20
78.12708249108167
 30
0.0
 10
-27.454945464604315
 20
78.17384472344014
 30
0.0
 10
-27.432922063077633
 20
78.22547362685485
 30
0.0
 10
-27.426711919341432
 20
78.3102854354587
 30
0.0
 10
-27.42258657544142
 20
78.43863146288322
 30
0.0
 10
-27.46085964041216
 20
78.8897276051164
 30
0.0
 10
-27.477080773811554
 20
79.12049750272793
 30
0.0
 10
-27.50622095635255
 20
79.6658566941609
 30
0.0
 10
-27.511318451510594
 20
79.7936830463651
 30
0.0
 10
-27.527432158060286
 20
80.52194583792452
 30
0.0
 10
-27.52786058390347
 20
80.54645976792176
 30
0.0
 10
-27.52176216890756
 20
81.37830225147226
 30
0.0
 10
-27.519539211669898
 20
81.45716666605324
 30
0.0
 10
-27.47761867746199
 20
82.47045929757944
 30
0.0
 10
-27.369998001837693
 20
83.42204889217322
 30
0.0
 10
-27.284212062259275
 20
83.49298439525406
 30
0.0
 10
-26.40896156834052
 20
83.77541015939896
 30
0.0
 10
-26.359133396896897
 20
83.7907244622716
 30
0.0
 10
-26.30951178118795
 20
83.80669536695231
 30
0.0
 10
-25.430203984221677
 20
84.07622372826552
 30
0.0
 10
-25.319257012429155
 20
84.06717704506958
 30
0.0
 10
-24.686225366487957
 20
83.34858404372454
 30
0.0
 10
-24.071735617883046
 20
82.5417868962535
 30
0.0
 10
-24.02476243025852
 20
82.4783987501182
 30
0.0
 10
-23.543525026633308
 20
81.79986380668704
 30
0.0
 10
-23.5298418463346
 20
81.77951959646583
 30
0.0
 10
-23.12611643382271
 20
81.17319283934485
 30
0.0
 10
-23.057114122785567
 20
81.06546985272523
 30
0.0
 10
-22.7687830577686
 20
80.60164769406353
 30
0.0
 10
-22.649964892175397
 20
80.40315307363906
 30
0.0
 10
-22.42308830873402
 20
80.01138838288794
 30
0.0
 10
-22.34622668772157
 20
79.90851947387397
 30
0.0
 10
-22.292579475482395
 20
79.84253776900081
 30
0.0
 10
-22.244964510529215
 20
79.81281590843963
 30
0.0
 10
-22.199947550365994
 20
79.78721564366204
 30
0.0
 10
-20.04052673558059
 20
80.35679647402397
 30
0.0
 10
-20.013992678115034
 20
80.40126943269792
 30
0.0
 10
-19.987231440391817
 20
80.45060917365926
 30
0.0
 10
-19.973106680051075
 20
80.53446679054167
 30
0.0
 10
-19.956980949802478
 20
80.66186255986663
 30
0.0
 10
-19.952844527555744
 20
81.1145605243539
 30
0.0
 10
-19.94738474805132
 20
81.34583538597997
 30
0.0
 10
-19.92532864108932
 20
81.89152698941969
 30
0.0
 10
-19.918433887739845
 20
82.01926900737374
 30
0.0
 10
-19.866281177799202
 20
82.74584071061749
 30
0.0
 10
-19.864412200212243
 20
82.77028704439971
 30
0.0
 10
-19.780445612543843
 20
83.59790333245854
 30
0.0
 10
-19.77084744176763
 20
83.6762130543571
 30
0.0
 10
-19.634224875790387
 20
84.68112775857799
 30
0.0
 10
-19.437968820286443
 20
85.61845829101522
 30
0.0
 10
-19.345917319499446
 20
85.68104897905698
 30
0.0
 10
-18.448065922748903
 20
85.88027399935054
 30
0.0
 10
-18.39702264305425
 20
85.89085502670628
 30
0.0
 10
-18.346123526313317
 20
85.90210911293661
 30
0.0
 10
-17.44544038639008
 20
86.0881134699175
 30
0.0
 10
-17.335828062476036
 20
86.06871729831221
 30
0.0
 10
-16.772868087982722
 20
85.2940037812857
 30
0.0
 10
-16.236628105021797
 20
84.43320997962238
 30
0.0
 10
-16.195797078851108
 20
84.36570172288344
 30
0.0
 10
-15.780213263833161
 20
83.64508448689739
 30
0.0
 10
-15.768495269823205
 20
83.6235483561169
 30
0.0
 10
-15.423321174713445
 20
82.98208036067683
 30
0.0
 10
-15.36470940199568
 20
82.86836923161025
 30
0.0
 10
-15.121078266678163
 20
82.37958536544512
 30
0.0
 10
-15.021369522161807
 20
82.17083662394147
 30
0.0
 10
-14.832175267695776
 20
81.7595482930708
 30
0.0
 10
-14.765284175894722
 20
81.64993395521277
 30
0.0
 10
-14.718051315596945
 20
81.57921857027361
 30
0.0
 10
-14.673428770950476
 20
81.54516857185975
 30
0.0
 10
-14.631006863045776
 20
81.51546533990182
 30
0.0
 10
-12.427738184777521
 20
81.88033204022717
 30
0.0
 10
-12.397156204343275
 20
81.9221248952567
 30
0.0
 10
-12.365892309142874
 20
81.96874187434705
 30
0.0
 10
-12.343977061099334
 20
82.05090835575565
 30
0.0
 10
-12.315992657999397
 20
82.17623430837956
 30
0.0
 10
-12.26948309956262
 20
82.6265557691317
 30
0.0
 10
-12.242390387892982
 20
82.85630314297258
 30
0.0
 10
-12.169331821289012
 20
83.39753160098704
 30
0.0
 10
-12.150505410772372
 20
83.52406668324402
 30
0.0
 10
-12.030544604231554
 20
84.24256215991925
 30
0.0
 10
-12.026394647856698
 20
84.26672606222617
 30
0.0
 10
-11.86529778890735
 20
85.08284303309591
 30
0.0
 10
-11.848408753662483
 20
85.15990987366031
 30
0.0
 10
-11.618284799938145
 20
86.14761542402228
 30
0.0
 10
-11.33511806982695
 20
87.06244959988102
 30
0.0
 10
-11.237609959730111
 20
87.11614542366671
 30
0.0
 10
-10.325048010505753
 20
87.23041890346717
 30
0.0
 10
-10.273238192737347
 20
87.23617366885716
 30
0.0
 10
-10.221508878232484
 20
87.2426120353227
 30
0.0
 10
-9.307365631171075
 20
87.34345777499409
 30
0.0
 10
-9.200051232179316
 20
87.31388256923292
 30
0.0
 10
-8.712110241631638
 20
86.48985674676831
 30
0.0
 10
-8.258832520566108
 20
85.5826309777926
 30
0.0
 10
-8.224502480375378
 20
85.51159587543762
 30
0.0
 10
-7.87822441947389
 20
84.75522915707718
 30
0.0
 10
-7.86857458990537
 20
84.73269036602906
 30
0.0
 10
-7.5849852145567205
 20
84.06171837607857
 30
0.0
 10
-7.5372790625244335
 20
83.94301840205588
 30
0.0
 10
-7.3404888960835875
 20
83.43356827857804
 30
0.0
 10
-7.2607658166760345
 20
83.21639990744133
 30
0.0
 10
-7.110916537096308
 20
82.78920235309114
 30
0.0
 10
-7.0545838158265495
 20
82.6738058811315
 30
0.0
 10
-7.014180391544777
 20
82.59897826547184
 30
0.0
 10
-6.97294241173183
 20
82.56089936181564
 30
0.0
 10
-6.933488361337653
 20
82.52735419574789
 30
0.0
 10
-4.705734223952347
 20
82.68430030435496
 30
0.0
 10
-4.671373076093078
 20
82.72304577862737
 30
0.0
 10
-4.635881271650639
 20
82.76653032415828
 30
0.0
 10
-4.606368127892099
 20
82.84628358810008
 30
0.0
 10
-4.566770979881474
 20
82.96843835504504
 30
0.0
 10
-4.478297012926508
 20
83.41242587087308
 30
0.0
 10
-4.42980946081596
 20
83.63862672874662
 30
0.0
 10
-4.306390475880247
 20
84.17063570618626
 30
0.0
 10
-4.275797855368984
 20
84.29485185789356
 30
0.0
 10
-4.089083172109213
 20
84.99895694391688
 30
0.0
 10
-4.082688706912291
 20
85.02262606150622
 30
0.0
 10
-3.8458773016708787
 20
85.82007164990239
 30
0.0
 10
-3.8218458234063535
 20
85.89521834296671
 30
0.0
 10
-3.5002428195146313
 20
86.85703474757902
 30
0.0
 10
-3.132653894202002
 20
87.74133297122788
 30
0.0
 10
-3.0305460795728734
 20
87.78566204992735
 30
0.0
 10
-2.111293205096751
 20
87.81397974978543
 30
0.0
 10
-2.0591721557960208
 20
87.81485768012449
 30
0.0
 10
-2.0070672426030884
 20
87.81642374622918
 30
0.0
 10
-1.0874974121278016
 20
87.83122463260487
 30
0.0
 10
-0.9834240208552836
 20
87.79173030065942
 30
0.0
 10
-0.5747900572226783
 20
86.92563374131342
 30
0.0
 10
-0.20845801896341687
 20
85.97994873770345
 30
0.0
 10
-0.18093065838021838
 20
85.90601104876608
 30
0.0
 10
0.09299854435476407
 20
85.12054182594825
 30
0.0
 10
0.10049540643262511
 20
85.09719844633867
 30
0.0
 10
0.32000786839280404
 20
84.40261898785107
 30
0.0
 10
0.35638915636022106
 20
84.27997330851198
 30
0.0
 10
0.5046089548658867
 20
83.7543339937244
 30
0.0
 10
0.5636457598762639
 20
83.53065447640874
 30
0.0
 10
0.6728331837127268
 20
83.09130192604708
 30
0.0
 10
0.7181124804711623
 20
82.97113742833062
 30
0.0
 10
0.7513314019915893
 20
82.89285516972738
 30
0.0
 10
0.7888224161216557
 20
82.85108199960338
 30
0.0
 10
0.8249618853918304
 20
82.81398969555133
 30
0.0
 10
3.0576238984332607
 20
82.76163596439451
 30
0.0
 10
3.095462246714671
 20
82.79699356128874
 30
0.0
 10
3.1348700571455534
 20
82.83696352951058
 30
0.0
 10
3.1717217340505632
 20
82.9136027014344
 30
0.0
 10
3.2225836458113952
 20
83.03151278221627
 30
0.0
 10
3.3522445088817623
 20
83.46526457486704
 30
0.0
 10
3.421700791081848
 20
83.6859310555009
 30
0.0
 10
3.5943955838720107
 20
84.20404523834299
 30
0.0
 10
3.6364855653288464
 20
84.32485084349308
 30
0.0
 10
3.888313269957534
 20
85.00837783805156
 30
0.0
 10
3.8968960491864486
 20
85.03134416586686
 30
0.0
 10
4.207340893575826
 20
85.80311039128553
 30
0.0
 10
4.23830362536494
 20
85.87567654500913
 30
0.0
 10
4.648559420662222
 20
86.8031513267248
 30
0.0
 10
5.097340156483535
 20
87.64914235357833
 30
0.0
 10
5.203150348498583
 20
87.68371512165409
 30
0.0
 10
6.121015720912732
 20
87.62582818460521
 30
0.0
 10
6.1729899600903755
 20
87.62182156460996
 30
0.0
 10
6.225012572120745
 20
87.61850156770859
 30
0.0
 10
7.141927773275451
 20
87.5471275300669
 30
0.0
 10
7.24184555612414
 20
87.49806114954642
 30
0.0
 10
7.567581402876344
 20
86.59750514102404
 30
0.0
 10
7.843748419205207
 20
85.62167161659482
 30
0.0
 10
7.864231188746289
 20
85.54548110814395
 30
0.0
 10
8.063404233631678
 20
84.73781211264136
 30
0.0
 10
8.068682245525382
 20
84.71386928692964
 30
0.0
 10
8.222188710688549
 20
84.00178634916055
 30
0.0
 10
8.246925414524306
 20
83.87627277914497
 30
0.0
 10
8.345272284176103
 20
83.33906361024601
 30
0.0
 10
8.383103997224133
 20
83.11083865039227
 30
0.0
 10
8.450670022310694
 20
82.66319215002915
 30
0.0
 10
8.484497978469822
 20
82.53931563648244
 30
0.0
 10
8.510240468152153
 20
82.45826668223899
 30
0.0
 10
8.54365504421913
 20
82.41316634976822
 30
0.0
 10
8.576162337409919
 20
82.37285287623357
 30
0.0
 10
10.794111512058816
 20
82.11165939178473
 30
0.0
 10
10.835094535997145
 20
82.14331838746796
 30
0.0
 10
10.878072035161452
 20
82.1794225208628
 30
0.0
 10
10.921938391351244
 20
82.25227409297015
 30
0.0
 10
10.983618090552925
 20
82.36490328955941
 30
0.0
 10
11.15332638541192
 20
82.78460753268303
 30
0.0
 10
11.243141013396183
 20
82.99780041111107
 30
0.0
 10
11.463593965992306
 20
83.49746659328733
 30
0.0
 10
11.516811420124277
 20
83.61380000787845
 30
0.0
 10
11.831539075198833
 20
84.27074205116688
 30
0.0
 10
11.842234742687275
 20
84.29280376029352
 30
0.0
 10
12.223584825769702
 20
85.03210831339594
 30
0.0
 10
12.26120670948314
 20
85.10145621381069
 30
0.0
 10
12.756509953505669
 20
85.98643869089953
 30
0.0
 10
13.282538598592815
 20
86.78668792139513
 30
0.0
 10
13.391121304221823
 20
86.8112005521182
 30
0.0
 10
14.299532940678269
 20
86.66761769064654
 30
0.0
 10
14.350903618250292
 20
86.65876173063758
 30
0.0
 10
14.40238675253304
 20
86.65058484698228
 30
0.0
 10
15.308589440610628
 20
86.49366312293235
 30
0.0
 10
15.403473533967151
 20
86.43545589095307
 30
0.0
 10
15.643448685505469
 20
85.50835455183783
 30
0.0
 10
15.827023714234517
 20
84.51094816668929
 30
0.0
 10
15.840281889418273
 20
84.43317440365267
 30
0.0
 10
15.96294843657411
 20
83.61040345963855
 30
0.0
 10
15.965961214925354
 20
83.58607159823794
 30
0.0
 10
16.052112662956144
 20
82.86274299164828
 30
0.0
 10
16.064987395617496
 20
82.73546454872246
 30
0.0
 10
16.112597060588744
 20
82.19140653920444
 30
0.0
 10
16.128891215219877
 20
81.96064178596586
 30
0.0
 10
16.154242068898657
 20
81.50863526914216
 30
0.0
 10
16.17632140316342
 20
81.38213537102041
 30
0.0
 10
16.194361235082734
 20
81.29903198226084
 30
0.0
 10
16.223405724590684
 20
81.25100083078668
 30
0.0
 10
16.25199516644068
 20
81.2078204640244
 30
0.0
 10
18.435740085601196
 20
80.74008260401638
 30
0.0
 10
18.479507624908486
 20
80.7677647780962
 30
0.0
 10
18.52567712499825
 20
80.79968579224162
 30
0.0
 10
18.57617266135736
 20
80.86810954229732
 30
0.0
 10
18.648128104585542
 20
80.97446806526463
 30
0.0
 10
18.856392428635875
 20
81.37643638288155
 30
0.0
 10
18.965776108224198
 20
81.58028211242257
 30
0.0
 10
19.232049872152217
 20
82.05710920955794
 30
0.0
 10
19.295927122058913
 20
82.16794809135978
 30
0.0
 10
19.670788889630135
 20
82.79253195308057
 30
0.0
 10
19.683503451467633
 20
82.81349516442549
 30
0.0
 10
20.132407455001086
 20
83.51384101021641
 30
0.0
 10
20.176357868172033
 20
83.57936122547997
 30
0.0
 10
20.752355818202116
 20
84.41407414011272
 30
0.0
 10
21.351009613908076
 20
85.16154895523884
 30
0.0
 10
21.461410604429755
 20
85.17578603072907
 30
0.0
 10
22.352385350804283
 20
84.94776905618394
 30
0.0
 10
22.40270101940901
 20
84.93414158265624
 30
0.0
 10
22.453192240308915
 20
84.9211796709946
 30
0.0
 10
23.340718673502952
 20
84.68008929428966
 30
0.0
 10
23.429735232543223
 20
84.61325273809913
 30
0.0
 10
23.58184077860734
 20
83.66775346829421
 30
0.0
 10
23.67121055578344
 20
82.657539465602
 30
0.0
 10
23.677127623289643
 20
82.57886592660569
 30
0.0
 10
23.722209674688894
 20
81.74822357471969
 30
0.0
 10
23.722930743093208
 20
81.72371650690307
 30
0.0
 10
23.74097007196865
 20
80.9954988692957
 30
0.0
 10
23.741869689842034
 20
80.86757408099258
 30
0.0
 10
23.738323754685105
 20
80.32144843220534
 30
0.0
 10
23.732937157282564
 20
80.09017185453087
 30
0.0
 10
23.715850055339914
 20
79.63777757076886
 30
0.0
 10
23.725986733726913
 20
79.5097659737252
 30
0.0
 10
23.73616537319165
 20
79.42533846601799
 30
0.0
 10
23.760584532122444
 20
79.37479859502663
 30
0.0
 10
23.78500487758871
 20
79.32913080565241
 30
0.0
 10
25.915354712392087
 20
78.65895906721705
 30
0.0
 10
25.961522136359182
 20
78.6824211477523
 30
0.0
 10
26.01047789814754
 20
78.70987851962823
 30
0.0
 10
26.067158858086817
 20
78.77327313725657
 30
0.0
 10
26.148757698319166
 20
78.87242630407783
 30
0.0
 10
26.393747817192686
 20
79.25312618415957
 30
0.0
 10
26.521739280675828
 20
79.44583336121282
 30
0.0
 10
26.831493832524142
 20
79.89563099963281
 30
0.0
 10
26.9054695226366
 20
80.00000129256671
 30
0.0
 10
27.337171104012466
 20
80.58673810728543
 30
0.0
 10
27.35179282417243
 20
80.60641859539359
 30
0.0
 10
27.86430576363297
 20
81.26165106939838
 30
0.0
 10
27.914198468450195
 20
81.32276780550319
 30
0.0
 10
28.56582923379226
 20
82.09987567057293
 30
0.0
 10
29.231847189035058
 20
82.78800723477792
 30
0.0
 10
29.3430962565751
 20
82.79184363910396
 30
0.0
 10
30.2088041947605
 20
82.48139637285631
 30
0.0
 10
30.25762267849307
 20
82.46311714453722
 30
0.0
 10
30.306678267345404
 20
82.44548411461497
 30
0.0
 10
31.167728831448894
 20
82.12234379615423
 30
0.0
 10
31.25009557545137
 20
82.04746527781145
 30
0.0
 10
31.312994807033338
 20
81.09187715889644
 30
0.0
 10
31.307373947841267
 20
80.07773333563966
 30
0.0
 10
31.305897908267916
 20
79.99885140657314
 30
0.0
 10
31.27299928122191
 20
79.16763736167042
 30
0.0
 10
31.271422302904217
 20
79.14317045643094
 30
0.0
 10
31.221190982353534
 20
78.41646339058909
 30
0.0
 10
31.21010757956474
 20
78.28901646454794
 30
0.0
 10
31.155437206085285
 20
77.74562254832966
 30
0.0
 10
31.128417194260727
 20
77.5158666130997
 30
0.0
 10
31.06904229876291
 20
77.06706021963147
 30
0.0
 10
31.067147239777995
 20
76.93866189418354
 30
0.0
 10
31.06937523653855
 20
76.85365221950214
 30
0.0
 10
31.08895446844549
 20
76.80104777519706
 30
0.0
 10
31.10899111065401
 20
76.75329389338597
 30
0.0
 10
33.1672242701527
 20
75.88657776985745
 30
0.0
 10
33.21538585779778
 20
75.90561357124079
 30
0.0
 10
33.26669765628986
 20
75.92836600447592
 30
0.0
 10
33.32906592549533
 20
75.98617437549773
 30
0.0
 10
33.41959106918989
 20
76.07725082457776
 30
0.0
 10
33.69915400091303
 20
76.43333666288964
 30
0.0
 10
33.8446284547078
 20
76.61321176985419
 30
0.0
 10
34.195141660337185
 20
77.03202711173932
 30
0.0
 10
34.27856568963082
 20
77.12901160591821
 30
0.0
 10
34.76331327579184
 20
77.67274510941027
 30
0.0
 10
34.77971365807176
 20
77.69096992144455
 30
0.0
 10
35.3513315513194
 20
78.29533081712202
 30
0.0
 10
35.406728088899
 20
78.35150697799362
 30
0.0
 10
36.12826511495706
 20
79.0641805416403
 30
0.0
 10
36.855794239998545
 20
79.6869215299953
 30
0.0
 10
36.96691372375131
 20
79.68032354869801
 30
0.0
 10
37.79974698125924
 20
79.2901742124861
 30
0.0
 10
37.846639261529226
 20
79.26740386789136
 30
0.0
 10
37.89382811605529
 20
79.2452546794095
 30
0.0
 10
38.720835867750786
 20
78.84290418793047
 30
0.0
 10
38.79582895480757
 20
78.760641742547
 30
0.0
 10
38.76896911119863
 20
77.80336251727026
 30
0.0
 10
38.668407011951075
 20
76.79420120583245
 30
0.0
 10
38.65955083678702
 20
76.71580410392465
 30
0.0
 10
38.548960645613136
 20
75.89132310491911
 30
0.0
 10
38.545099479115606
 20
75.86711137829975
 30
0.0
 10
38.42703894378992
 20
75.14830121204767
 30
0.0
 10
38.40406992168117
 20
75.02245215643705
 30
0.0
 10
38.29875555508707
 20
74.48656533806185
 30
0.0
 10
38.25033958167595
 20
74.26034914869635
 30
0.0
 10
38.14919868133949
 20
73.81907477224506
 30
0.0
 10
38.135288538829165
 20
73.69141808749362
 30
0.0
 10
38.129546313169904
 20
73.60657331391573
 30
0.0
 10
38.14411355505899
 20
73.55236658604497
 30
0.0
 10
38.15959041127759
 20
73.5029462746274
 30
0.0
 10
40.127619068459666
 20
72.44730249846313
 30
0.0
 10
40.17735157401879
 20
72.46174473338753
 30
0.0
 10
40.230568479284486
 20
72.47959227878049
 30
0.0
 10
40.29807596316384
 20
72.53130638115266
 30
0.0
 10
40.39673187210289
 20
72.6135057293822
 30
0.0
 10
40.70841080757964
 20
72.94184823077364
 30
0.0
 10
40.8700898169554
 20
73.10731051874183
 30
0.0
 10
41.25828135371164
 20
73.49146299980863
 30
0.0
 10
41.35042058881739
 20
73.58020939201049
 30
0.0
 10
41.88395420054671
 20
74.07616123469661
 30
0.0
 10
41.90198911779742
 20
74.09277021035352
 30
0.0
 10
42.52768856623307
 20
74.64094838242194
 30
0.0
 10
42.58810210981097
 20
74.69169028993873
 30
0.0
 10
43.3732045032563
 20
75.33366655125995
 30
0.0
 10
44.155851245986405
 20
75.88554429356793
 30
0.0
 10
44.26586462393324
 20
75.86856990994417
 30
0.0
 10
45.05850423215121
 20
75.40214715016295
 30
0.0
 10
45.10305821791365
 20
75.37508579589954
 30
0.0
 10
45.14796564076314
 20
75.34861509672282
 30
0.0
 10
45.933662806192686
 20
74.87059030281164
 30
0.0
 10
46.00062319435826
 20
74.78166685571529
 30
0.0
 10
45.884240320829825
 20
73.8311091283287
 30
0.0
 10
45.68962072487081
 20
72.83579887460041
 30
0.0
 10
45.67346224250181
 20
72.75857555640177
 30
0.0
 10
45.486152357776504
 20
71.94807317195786
 30
0.0
 10
45.48004093516914
 20
71.92432939748271
 30
0.0
 10
45.295188705297896
 20
71.21973306040711
 30
0.0
 10
45.260535916461365
 20
71.09658784125278
 30
0.0
 10
45.105503063192955
 20
70.57291751334897
 30
0.0
 10
45.03611660951046
 20
70.35222906585396
 30
0.0
 10
44.894098534204154
 20
69.92236464150643
 30
0.0
 10
44.86829555100096
 20
69.79657144898711
 30
0.0
 10
44.85463356580744
 20
69.71263719543364
 30
0.0
 10
44.86406080023318
 20
69.65730455467079
 30
0.0
 10
44.874841859292914
 20
69.60665212112045
 30
0.0
 10
46.735370907556224
 20
68.37135772778231
 30
0.0
 10
46.78623727998235
 20
68.38107947736798
 30
0.0
 10
46.84089161994469
 20
68.39386529004813
 30
0.0
 10
46.912945060302285
 20
68.43903065837956
 30
0.0
 10
47.018864742810784
 20
68.51163053493077
 30
0.0
 10
47.359920636349386
 20
68.80934421369362
 30
0.0
 10
47.536383360358364
 20
68.95893959412938
 30
0.0
 10
47.95884178705857
 20
69.30505326856155
 30
0.0
 10
48.05888650506535
 20
69.38478165230073
 30
0.0
 10
48.636517429799255
 20
69.82859339155483
 30
0.0
 10
48.65602839051948
 20
69.84344057055912
 30
0.0
 10
49.33031072489252
 20
70.33061860953194
 30
0.0
 10
49.395210358075495
 20
70.37548034198619
 30
0.0
 10
50.23697861084519
 20
70.94111759051444
 30
0.0
 10
51.06786504354781
 20
71.41728216533255
 30
0.0
 10
51.17580551416766
 20
71.39008055087595
 30
0.0
 10
51.92128572771833
 20
70.85148330750913
 30
0.0
 10
51.9631098769443
 20
70.8203687597314
 30
0.0
 10
52.00534122007051
 20
70.78980917531598
 30
0.0
 10
52.742823064293624
 20
70.24031097804948
 30
0.0
 10
52.80116230326915
 20
70.14550799169074
 30
0.0
 10
52.59627917669847
 20
69.210025297681
 30
0.0
 10
52.30931240803506
 20
68.23731292395954
 30
0.0
 10
52.28599361978518
 20
68.16194203076704
 30
0.0
 10
52.023610127510366
 20
67.37254098498187
 30
0.0
 10
52.0153021561948
 20
67.34947382379477
 30
0.0
 10
51.76528271982069
 20
66.66528333384045
 30
0.0
 10
51.71925069421065
 20
66.54592415575618
 30
0.0
 10
51.51586178855685
 20
66.0390723519946
 30
0.0
 10
51.42611462525281
 20
65.82585106438178
 30
0.0
 10
51.244467434928886
 20
65.41117425615546
 30
0.0
 10
51.20699836857698
 20
65.28835003096717
 30
0.0
 10
51.185536685866325
 20
65.20606391467632
 30
0.0
 10
51.189741065953605
 20
65.15009162625792
 30
0.0
 10
51.195731583519816
 20
65.09865220598215
 30
0.0
 10
52.93241062669066
 20
63.69456300701526
 30
0.0
 10
52.98396385047395
 20
63.69947883617728
 30
0.0
 10
53.03957532082819
 20
63.707090553963056
 30
0.0
 10
53.115541509439396
 20
63.74531027337291
 30
0.0
 10
53.22779413953897
 20
63.807672667920244
 30
0.0
 10
53.59522977968393
 20
64.07214120554085
 30
0.0
 10
53.784925457562615
 20
64.20455502886203
 30
0.0
 10
54.23793819436293
 20
64.50958823724375
 30
0.0
 10
54.3450091986917
 20
64.5795979566172
 30
0.0
 10
54.96166119509418
 20
64.96736935891695
 30
0.0
 10
54.982476736259585
 20
64.98032426372569
 30
0.0
 10
55.69941633917091
 20
65.40222083147933
 30
0.0
 10
55.768231721649016
 20
65.44080814235315
 30
0.0
 10
56.65926834407094
 20
65.9251355376102
 30
0.0
 10
57.53109260689996
 20
66.32140239353387
 30
0.0
 10
57.6360115854559
 20
66.28421259701035
 30
0.0
 10
58.327781097417926
 20
65.67817408199858
 30
0.0
 10
58.36650785798013
 20
65.64327977647118
 30
0.0
 10
58.4056919908212
 20
65.6088998655437
 30
0.0
 10
59.08847749687379
 20
64.99275727483733
 30
0.0
 10
59.13768289932949
 20
64.89290788126907
 30
0.0
 10
58.8461000399997
 20
63.98072127618753
 30
0.0
 10
58.469307972913136
 20
63.03915501378824
 30
0.0
 10
58.43903380513198
 20
62.9662989077213
 30
0.0
 10
58.103882540872085
 20
62.204936485369075
 30
0.0
 10
58.093451031598946
 20
62.18274865251193
 30
0.0
 10
57.780461568518575
 20
61.524976700305544
 30
0.0
 10
57.72345483723124
 20
61.41045249604004
 30
0.0
 10
57.473497268208014
 20
60.9248734482966
 30
0.0
 10
57.364178096580524
 20
60.72099311690813
 30
0.0
 10
57.14449811327889
 20
60.325148119503915
 30
0.0
 10
57.09569224328063
 20
60.206372245353904
 30
0.0
 10
57.06661946909217
 20
60.12645739967433
 30
0.0
 10
57.065564046597615
 20
60.07033735008357
 30
0.0
 10
57.066711377786525
 20
60.018562994557286
 30
0.0
 10
58.66427841798914
 20
58.45801817632792
 30
0.0
 10
58.716065441545325
 20
58.458084884582846
 30
0.0
 10
58.77214532669041
 20
58.46045561542467
 30
0.0
 10
58.85135666995825
 20
58.49139380964452
 30
0.0
 10
58.96895576749944
 20
58.54297067922237
 30
0.0
 10
59.35954211663356
 20
58.77186991668285
 30
0.0
 10
59.56080369594402
 20
58.88593852544904
 30
0.0
 10
60.040389650624824
 20
59.147210624977184
 30
0.0
 10
60.15354599743964
 20
59.206886432053786
 30
0.0
 10
60.803799905593884
 20
59.53520974837298
 30
0.0
 10
60.82573709948024
 20
59.546158530816896
 30
0.0
 10
61.579033479921044
 20
59.899065985144134
 30
0.0
 10
61.65115985963872
 20
59.93103976776212
 30
0.0
 10
62.58363438983673
 20
60.32980102318389
 30
0.0
 10
63.488734859822934
 20
60.642687752835
 30
0.0
 10
63.58971031455891
 20
60.5958365995136
 30
0.0
 10
64.22168982958779
 20
59.92768270111764
 30
0.0
 10
64.25697886932204
 20
59.88931529025212
 30
0.0
 10
64.29277144030964
 20
59.851417184706
 30
0.0
 10
64.91486026461415
 20
59.17404488380104
 30
0.0
 10
64.954499411704
 20
59.07002656308413
 30
0.0
 10
64.5787792602671
 20
58.18915237561503
 30
0.0
 10
64.11547315699096
 20
57.28700674270701
 30
0.0
 10
64.07850966015353
 20
57.21730568584538
 30
0.0
 10
63.67353594526962
 20
56.49067276726944
 30
0.0
 10
63.66107257051749
 20
56.4695592502152
 30
0.0
 10
63.28786364338632
 20
55.8439863593237
 30
0.0
 10
63.22038318362597
 20
55.735303571701884
 30
0.0
 10
62.926053587337435
 20
55.275264566107744
 30
0.0
 10
62.79812310819745
 20
55.082516898626636
 30
0.0
 10
62.54234088751023
 20
54.70898241211481
 30
0.0
 10
62.48262712160602
 20
54.595298695655835
 30
0.0
 10
62.44619874852467
 20
54.51845741512479
 30
0.0
 10
62.43989279853912
 20
54.46268278937535
 30
0.0
 10
62.436186860563
 20
54.41102849349653
 30
0.0
 10
63.88060242120562
 20
52.70774217997854
 30
0.0
 10
63.93216813830963
 20
52.70295918109185
 30
0.0
 10
63.988223606198495
 20
52.700068090921825
 30
0.0
 10
64.0699839919902
 20
52.72345287398844
 30
0.0
 10
64.19189609187536
 20
52.76379095921247
 30
0.0
 10
64.60220066311847
 20
52.955109321783674
 30
0.0
 10
64.81325944986511
 20
53.04983027695954
 30
0.0
 10
65.31520400381258
 20
53.26504519902911
 30
0.0
 10
65.43345127106898
 20
53.313862660670566
 30
0.0
 10
66.11159263624944
 20
53.57985257390012
 30
0.0
 10
66.13445869800812
 20
53.588699015685414
 30
0.0
 10
66.91749186030141
 20
53.86951599318842
 30
0.0
 10
66.9922953880403
 20
53.89459526079927
 30
0.0
 10
67.95801320631477
 20
54.20428604813516
 30
0.0
 10
68.88843582798394
 20
54.431042991683334
 30
0.0
 10
68.98458038297304
 20
54.374942211184035
 30
0.0
 10
69.5512160423671
 20
53.65054468988726
 30
0.0
 10
69.5827572399233
 20
53.60904134786993
 30
0.0
 10
69.61484370265661
 20
53.567958097619375
 30
0.0
 10
70.17076890625711
 20
52.835308858651906
 30
0.0
 10
70.20049344773123
 20
52.728035727528905
 30
0.0
 10
69.7439378463875
 20
51.88621511170462
 30
0.0
 10
69.19818925761611
 20
51.0314181965476
 30
0.0
 10
69.15486126826166
 20
50.965484724285176
 30
0.0
 10
68.68362402632148
 20
50.27996698570092
 30
0.0
 10
68.6692383146758
 20
50.260113330796614
 30
0.0
 10
68.23908969696465
 20
49.67223705827837
 30
0.0
 10
68.161728529438
 20
49.57035079554571
 30
0.0
 10
67.8256134849593
 20
49.139894671423285
 30
0.0
 10
67.68019595595742
 20
48.95997354128183
 30
0.0
 10
67.39055932123696
 20
48.61203220016073
 30
0.0
 10
67.32046242614864
 20
48.504439697980665
 30
0.0
 10
67.27699858802688
 20
48.431347266534395
 30
0.0
 10
67.26549752746553
 20
48.3764082140428
 30
0.0
 10
67.25697088824056
 20
48.32532791762092
 30
0.0
 10
68.53554139344057
 20
46.49426865018121
 30
0.0
 10
68.58643264271637
 20
46.484677977319095
 30
0.0
 10
68.64197107588168
 20
46.47655047314159
 30
0.0
 10
68.7255619909871
 20
46.49217633874056
 30
0.0
 10
68.85071572529897
 20
46.520921147067405
 30
0.0
 10
69.27713274732596
 20
46.672977322099975
 30
0.0
 10
69.496133949302
 20
46.74751821252563
 30
0.0
 10
70.01602599572804
 20
46.91478464066317
 30
0.0
 10
70.13832502218963
 20
46.95231474726127
 30
0.0
 10
70.83839431369573
 20
47.15363372847975
 30
0.0
 10
70.8619882955538
 20
47.16030008675793
 30
0.0
 10
71.66787691611442
 20
47.366558757741295
 30
0.0
 10
71.74470021578314
 20
47.384523112839496
 30
0.0
 10
72.73517455922354
 20
47.60242185831509
 30
0.0
 10
73.68274274512196
 20
47.74105626758709
 30
0.0
 10
73.77321147855794
 20
47.676198875586095
 30
0.0
 10
74.26952366776838
 20
46.901923762852256
 30
0.0
 10
74.29703983796831
 20
46.85764922254502
 30
0.0
 10
74.32513821545916
 20
46.81374186867043
 30
0.0
 10
74.81001430767743
 20
46.032254239495785
 30
0.0
 10
74.82956302319654
 20
45.92266901810015
 30
0.0
 10
74.29618419898662
 20
45.127299923761214
 30
0.0
 10
73.67278918294114
 20
44.32736371238083
 30
0.0
 10
73.62347746899805
 20
44.26577725044257
 30
0.0
 10
73.09011794982764
 20
43.62739904638531
 30
0.0
 10
73.07393632343963
 20
43.60897972826408
 30
0.0
 10
72.59062817666745
 20
43.063966351939804
 30
0.0
 10
72.50406615409635
 20
42.96977199423662
 30
0.0
 10
72.1291194525238
 20
42.57268161548227
 30
0.0
 10
71.96749280813351
 20
42.407168176041445
 30
0.0
 10
71.64654709653998
 20
42.08787770132749
 30
0.0
 10
71.56668308630202
 20
41.98732194020412
 30
0.0
 10
71.51656574491206
 20
41.91862069675828
 30
0.0
 10
71.49997064550865
 20
41.865000023893224
 30
0.0
 10
71.48669823744693
 20
41.814942622409895
 30
0.0
 10
72.58818756363209
 20
39.87220181572867
 30
0.0
 10
72.6379571109512
 20
39.85788775206908
 30
0.0
 10
72.69249043564531
 20
39.84459525868305
 30
0.0
 10
72.77717728009692
 20
39.852324886145645
 30
0.0
 10
72.9044727933183
 20
39.86922380716618
 30
0.0
 10
73.34325489800729
 20
39.980681519526556
 30
0.0
 10
73.56827392477528
 20
40.03438727717672
 30
0.0
 10
74.10154463368254
 20
40.152235267997504
 30
0.0
 10
74.2268206511074
 20
40.17814820362602
 30
0.0
 10
74.94266563483353
 20
40.31302705438781
 30
0.0
 10
74.96678019203009
 20
40.31745474496263
 30
0.0
 10
75.78844209268388
 20
40.447342500809484
 30
0.0
 10
75.86661003836262
 20
40.45803407199649
 30
0.0
 10
76.8731365828251
 20
40.582225873601736
 30
0.0
 10
77.82952306966413
 20
40.63151942442413
 30
0.0
 10
77.91352093906467
 20
40.558475390014365
 30
0.0
 10
78.33514804872719
 20
39.741127043374156
 30
0.0
 10
78.35839737847778
 20
39.69447039102919
 30
0.0
 10
78.38226074117443
 20
39.64812479293515
 30
0.0
 10
78.79182661347778
 20
38.82466651493786
 30
0.0
 10
78.801027708227
 20
38.71373224213548
 30
0.0
 10
78.19551301343631
 20
37.971804401481386
 30
0.0
 10
77.49994998793267
 20
37.23375876206594
 30
0.0
 10
77.44508790251612
 20
37.17706053449376
 30
0.0
 10
76.85429328874756
 20
36.59143195557439
 30
0.0
 10
76.83645795233173
 20
36.5746088438662
 30
0.0
 10
76.30423760587028
 20
36.07724796088364
 30
0.0
 10
76.20923543842153
 20
35.9915732916123
 30
0.0
 10
75.7987521248502
 20
35.63133830275237
 30
0.0
 10
75.6223367458339
 20
35.48168709206921
 30
0.0
 10
75.27290243982075
 20
35.19385341993467
 30
0.0
 10
75.18397316222675
 20
35.10121808751234
 30
0.0
 10
75.12764275056672
 20
35.03751178106459
 30
0.0
 10
75.10609945065154
 20
34.98568070822719
 30
0.0
 10
75.08819791215232
 20
34.937086107926525
 30
0.0
 10
76.00292613151875
 20
32.899736638066486
 30
0.0
 10
76.0511366003098
 20
32.88082497611555
 30
0.0
 10
76.10418557571451
 20
32.862484308430815
 30
0.0
 10
76.18922411847824
 20
32.862249769512964
 30
0.0
 10
76.31754273306187
 20
32.867154294901624
 30
0.0
 10
76.76483388749992
 20
32.937034050205995
 30
0.0
 10
76.99389326376179
 20
32.9694327069514
 30
0.0
 10
77.535856232986
 20
33.03682660807472
 30
0.0
 10
77.66300831122854
 20
33.050894648923624
 30
0.0
 10
78.38833811571865
 20
33.11814804903848
 30
0.0
 10
78.41276132865798
 20
33.12029816120597
 30
0.0
 10
79.24297571507816
 20
33.17267354364765
 30
0.0
 10
79.32180136404969
 20
33.17599837301145
 30
0.0
 10
80.33553471807063
 20
33.20539182872839
 30
0.0
 10
81.29233474701594
 20
33.16491132760412
 30
0.0
 10
81.36912357608446
 20
33.08432256438638
 30
0.0
 10
81.71236033199925
 20
32.23108387049881
 30
0.0
 10
81.73113850535465
 20
32.18245512645453
 30
0.0
 10
81.75055714116772
 20
32.134078570923506
 30
0.0
 10
82.08121351394388
 20
31.27588622505903
 30
0.0
 10
82.07998612837174
 20
31.164577795228062
 30
0.0
 10
81.4076568479101
 20
30.4826112967994
 30
0.0
 10
80.64603844582624
 20
29.812942200965388
 30
0.0
 10
80.58610811891552
 20
29.761630473821853
 30
0.0
 10
79.94307033485732
 20
29.233898045048907
 30
0.0
 10
79.92373802599138
 20
29.218818981864334
 30
0.0
 10
79.34728265138202
 20
28.773481417546336
 30
0.0
 10
79.24467522151903
 20
28.69707934878094
 30
0.0
 10
78.80226263806802
 20
28.376865507850212
 30
0.0
 10
78.61260886911975
 20
28.24439166614509
 30
0.0
 10
78.23775680993258
 20
27.99054428925009
 30
0.0
 10
78.14054377867154
 20
27.906643468160947
 30
0.0
 10
78.07849533042457
 20
27.84849195202297
 30
0.0
 10
78.05219315329187
 20
27.798905972544997
 30
0.0
 10
78.02981980371918
 20
27.752201224521713
 30
0.0
 10
78.74974825178491
 20
25.638147391879336
 30
0.0
 10
78.7959759667147
 20
25.61480432800226
 30
0.0
 10
78.84707439652672
 20
25.591576664465894
 30
0.0
 10
78.9317173158311
 20
25.58338002030404
 30
0.0
 10
79.05993136317817
 20
25.57624704891538
 30
0.0
 10
79.51180075661716
 20
25.60393474136152
 30
0.0
 10
79.74288750033826
 20
25.614741576641745
 30
0.0
 10
80.28877993981894
 20
25.631089128041296
 30
0.0
 10
80.41669066184363
 20
25.63318864366178
 30
0.0
 10
81.14513106269578
 20
25.63222556783133
 30
0.0
 10
81.1696482993044
 20
25.632079206328445
 30
0.0
 10
82.00111921761173
 20
25.60648193862083
 30
0.0
 10
82.07990984723862
 20
25.602410807441426
 30
0.0
 10
83.0919412856529
 20
25.53674760652433
 30
0.0
 10
84.0407464636472
 20
25.40684879755282
 30
0.0
 10
84.10965142939284
 20
25.319423522475912
 30
0.0
 10
84.3714814546074
 20
24.4377927736621
 30
0.0
 10
84.38562344830497
 20
24.387619289069747
 30
0.0
 10
84.40042670556471
 20
24.337636911011185
 30
0.0
 10
84.64926775872058
 20
23.452252322472322
 30
0.0
 10
84.63762267913562
 20
23.341547918096353
 30
0.0
 10
83.90438726689415
 20
22.725535908002236
 30
0.0
 10
83.08340661813246
 20
22.1301284318426
 30
0.0
 10
83.01893471959532
 20
22.08465413443082
 30
0.0
 10
82.329304804415
 20
21.61945558736361
 30
0.0
 10
82.3086454161244
 20
21.606253088052107
 30
0.0
 10
81.69302092392628
 20
21.21685248492655
 30
0.0
 10
81.58370994943212
 20
21.150394440794532
 30
0.0
 10
81.11325603379225
 20
20.873015798540788
 30
0.0
 10
80.91203055905275
 20
20.758883510697864
 30
0.0
 10
80.51505496006594
 20
20.54125324891794
 30
0.0
 10
80.41041248675205
 20
20.466824262594475
 30
0.0
 10
80.34319128591234
 20
20.414738574381
 30
0.0
 10
80.31236137604047
 20
20.367833451633018
 30
0.0
 10
80.28571283319481
 20
20.32342899889207
 30
0.0
 10
80.80451475287236
 20
18.151249184561973
 30
0.0
 10
80.84835346311993
 20
18.123679858443438
 30
0.0
 10
80.89705229250075
 20
18.09576932459778
 30
0.0
 10
80.98055574332746
 20
18.079682607595537
 30
0.0
 10
81.10753847377983
 20
18.060574824238582
 30
0.0
 10
81.56001506174272
 20
18.045827133389732
 30
0.0
 10
81.79109837431018
 20
18.034947176347767
 30
0.0
 10
82.33612296166098
 20
18.00010471515406
 30
0.0
 10
82.46366824344352
 20
17.99021725492735
 30
0.0
 10
83.18881768022305
 20
17.92104616669662
 30
0.0
 10
83.21321348214408
 20
17.91860461775352
 30
0.0
 10
84.03863393601196
 20
17.815259649605608
 30
0.0
 10
84.11669713140803
 20
17.803828335130188
 30
0.0
 10
85.11813288554605
 20
17.643685528149714
 30
0.0
 10
86.05060507856967
 20
17.425509966734868
 30
0.0
 10
86.1110206416759
 20
17.332016476259653
 30
0.0
 10
86.28914296451426
 20
16.42974147524027
 30
0.0
 10
86.29852449820494
 20
16.378464176486332
 30
0.0
 10
86.30858228535428
 20
16.327315222835786
 30
0.0
 10
86.47342119476735
 20
15.422519183221684
 30
0.0
 10
86.45146075854765
 20
15.31339167858688
 30
0.0
 10
85.6637629136935
 20
14.768747692521469
 30
0.0
 10
84.79063482571468
 20
14.252834298345295
 30
0.0
 10
84.72218793691363
 20
14.213597060426011
 30
0.0
 10
83.99202638310226
 20
13.815020576622931
 30
0.0
 10
83.97022147083412
 20
13.80381066522316
 30
0.0
 10
83.32083799122022
 20
13.473769089791684
 30
0.0
 10
83.20578410086912
 20
13.417839105974455
 30
0.0
 10
82.71142321896679
 20
13.185733275879299
 30
0.0
 10
82.50039441514338
 20
13.090945540547903
 30
0.0
 10
82.08478391219455
 20
12.911444936448735
 30
0.0
 10
81.97363159864581
 20
12.84714186949894
 30
0.0
 10
81.90182838754336
 20
12.801579740110798
 30
0.0
 10
81.86674167928884
 20
12.757767677998043
 30
0.0
 10
81.83605213152292
 20
12.716053748466734
 30
0.0
 10
82.149168272888
 20
10.504837146760586
 30
0.0
 10
82.19023272229141
 20
10.473283838629817
 30
0.0
 10
82.2361039841774
 20
10.440935713249853
 30
0.0
 10
82.31773413519815
 20
10.417100294054656
 30
0.0
 10
82.44236961995475
 20
10.386185618616597
 30
0.0
 10
82.89147702191718
 20
10.329132147710206
 30
0.0
 10
83.12052613487131
 20
10.296661011799731
 30
0.0
 10
83.65989317442155
 20
10.210934734814536
 30
0.0
 10
83.78595214343957
 20
10.18914719009663
 30
0.0
 10
84.50143797682246
 20
10.05237596747612
 30
0.0
 10
84.52549795287146
 20
10.047660687512694
 30
0.0
 10
85.33761411767229
 20
9.867476218220464
 30
0.0
 10
85.41426385666955
 20
9.848785179251662
 30
0.0
 10
86.39630327311609
 20
9.595570106953687
 30
0.0
 10
87.30424788200864
 20
9.291035127773982
 30
0.0
 10
87.35564310833455
 20
9.19229504605643
 30
0.0
 10
87.44849238341898
 20
8.277305017982812
 30
0.0
 10
87.45303101184736
 20
8.225374531812562
 30
0.0
 10
87.45825494069118
 20
8.173508501413831
 30
0.0
 10
87.53764309609855
 20
7.257252390853652
 30
0.0
 10
87.50556029234724
 20
7.150660802394556
 30
0.0
 10
86.67032233186359
 20
6.682171191290724
 30
0.0
 10
85.75271988569915
 20
6.2502857445563205
 30
0.0
 10
85.68089952035406
 20
6.217630384387187
 30
0.0
 10
84.91662301390036
 20
5.8891786683192
 30
0.0
 10
84.89386420000771
 20
5.880059857935608
 30
0.0
 10
84.21642853834628
 20
5.6122777274301425
 30
0.0
 10
84.09664282986355
 20
5.567367318636519
 30
0.0
 10
83.58271944290426
 20
5.3825740550804735
 30
0.0
 10
83.36374183871273
 20
5.307963870286905
 30
0.0
 10
82.93314883184557
 20
5.168170381631478
 30
0.0
 10
82.81646348859006
 20
5.114558331719799
 30
0.0
 10
82.74070927642583
 20
5.075920162788291
 30
0.0
 10
82.70167411304236
 20
5.035586183287931
 30
0.0
 10
82.6672132612054
 20
4.996929360478856
 30
0.0
 10
82.77189194834926
 20
2.7661082223994065
 30
0.0
 10
82.80982126105063
 20
2.7308482238627887
 30
0.0
 10
82.85246183714298
 20
2.694346783437478
 30
0.0
 10
82.93150131965548
 20
2.6629721285702432
 30
0.0
 10
83.05269425759485
 20
2.620522240330404
 30
0.0
 10
83.4944857015602
 20
2.5216643773202225
 30
0.0
 10
83.71948772306061
 20
2.467887420051162
 30
0.0
 10
84.24845723787315
 20
2.332030692879016
 30
0.0
 10
84.37192208337432
 20
2.2985345333962877
 30
0.0
 10
85.0714565981306
 20
2.0953651268081606
 30
0.0
 10
85.09496930837295
 20
2.088417553874277
 30
0.0
 10
85.88664427804986
 20
1.8329770510326173
 30
0.0
 10
85.96120695998596
 20
1.8071905450929506
 30
0.0
 10
86.91521984103892
 20
1.463128470637479
 30
0.0
 10
87.79065781593116
 20
1.0749103380398712
 30
0.0
 10
87.83258104237984
 20
0.9717913964684293
 30
0.0
 10
87.83934130694242
 20
0.05212730660685949
 30
0.0
 10
87.83899714447863
 20
5.595524044110789e-14
 30
0.0
 10
87.83934130694243
 20
-0.0521273066068062
 30
0.0
 10
87.83258104237989
 20
-0.9717913964683698
 30
0.0
 10
87.7906578159299
 20
-1.0749103380397522
 30
0.0
 10
86.91521984104548
 20
-1.4631284706345178
 30
0.0
 10
85.96120695998582
 20
-1.807190545092288
 30
0.0
 10
85.88664427804973
 20
-1.8329770510319414
 30
0.0
 10
85.09496930837292
 20
-2.0884175538741543
 30
0.0
 10
85.07145659813058
 20
-2.0953651268080398
 30
0.0
 10
84.37192208337426
 20
-2.2985345333961833
 30
0.0
 10
84.24845723787311
 20
-2.3320306928789147
 30
0.0
 10
83.71948772306017
 20
-2.4678874200512557
 30
0.0
 10
83.49448570155975
 20
-2.5216643773203335
 30
0.0
 10
83.05269425760112
 20
-2.620522240327272
 30
0.0
 10
82.93150131963095
 20
-2.662972128578524
 30
0.0
 10
82.85246183714526
 20
-2.694346783435546
 30
0.0
 10
82.80982126105219
 20
-2.7308482238614076
 30
0.0
 10
82.77189194834926
 20
-2.766108222399449
 30
0.0
 10
82.6672132612054
 20
-4.996929360478898
 30
0.0
 10
82.70167411304091
 20
-5.035586183286408
 30
0.0
 10
82.74070927642376
 20
-5.075920162786155
 30
0.0
 10
82.8164634886137
 20
-5.114558331730341
 30
0.0
 10
82.93314883183962
 20
-5.168170381627773
 30
0.0
 10
83.36374183871314
 20
-5.307963870287056
 30
0.0
 10
83.58271944290468
 20
-5.382574055080607
 30
0.0
 10
84.0966428298636
 20
-5.567367318636422
 30
0.0
 10
84.21642853834634
 20
-5.612277727430044
 30
0.0
 10
84.89386420000776
 20
-5.88005985793549
 30
0.0
 10
84.9166230139004
 20
-5.88917866831908
 30
0.0
 10
85.68089952035425
 20
-6.217630384386526
 30
0.0
 10
85.75271988569935
 20
-6.250285744555674
 30
0.0
 10
86.67032233185734
 20
-6.682171191287161
 30
0.0
 10
87.50556029234849
 20
-7.150660802394555
 30
0.0
 10
87.5376430960985
 20
-7.257252390853587
 30
0.0
 10
87.45825494069116
 20
-8.173508501413778
 30
0.0
 10
87.45303101184734
 20
-8.22537453181253
 30
0.0
 10
87.44849238341901
 20
-8.277305017982764
 30
0.0
 10
87.3556431083346
 20
-9.192295046056378
 30
0.0
 10
87.3042478820074
 20
-9.29103512777375
 30
0.0
 10
86.39630327312291
 20
-9.595570106951355
 30
0.0
 10
85.41426385666948
 20
-9.848785179250992
 30
0.0
 10
85.33761411767222
 20
-9.867476218219783
 30
0.0
 10
84.52549795287143
 20
-10.047660687512572
 30
0.0
 10
84.50143797682243
 20
-10.052375967476
 30
0.0
 10
83.78595214343954
 20
-10.189147190096524
 30
0.0
 10
83.65989317442153
 20
-10.210934734814433
 30
0.0
 10
83.12052613487087
 20
-10.296661011799788
 30
0.0
 10
82.89147702191674
 20
-10.329132147710279
 30
0.0
 10
82.44236961996128
 20
-10.38618561861407
 30
0.0
 10
82.31773413517296
 20
-10.417100294060607
 30
0.0
 10
82.23610398417985
 20
-10.440935713248145
 30
0.0
 10
82.1902327222931
 20
-10.473283838628593
 30
0.0
 10
82.14916827288799
 20
-10.504837146760632
 30
0.0
 10
81.8360521315229
 20
-12.71605374846678
 30
0.0
 10
81.86674167928754
 20
-12.757767677996396
 30
0.0
 10
81.90182838754151
 20
-12.80157974010848
 30
0.0
 10
81.97363159866838
 20
-12.84714186951165
 30
0.0
 10
82.08478391218897
 20
-12.911444936444491
 30
0.0
 10
82.50039441514379
 20
-13.090945540548095
 30
0.0
 10
82.7114232189672
 20
-13.185733275879473
 30
0.0
 10
83.20578410086918
 20
-13.417839105974366
 30
0.0
 10
83.3208379912203
 20
-13.473769089791594
 30
0.0
 10
83.97022147083415
 20
-13.80381066522305
 30
0.0
 10
83.9920263831023
 20
-13.815020576622818
 30
0.0
 10
84.72218793691387
 20
-14.213597060425373
 30
0.0
 10
84.79063482571493
 20
-14.252834298344673
 30
0.0
 10
85.6637629136876
 20
-14.768747692517337
 30
0.0
 10
86.4514607585489
 20
-15.313391678586997
 30
0.0
 10
86.47342119476731
 20
-15.422519183221617
 30
0.0
 10
86.30858228535428
 20
-16.327315222835733
 30
0.0
 10
86.29852449820496
 20
-16.3784641764863
 30
0.0
 10
86.2891429645143
 20
-16.429741475240217
 30
0.0
 10
86.11102064167598
 20
-17.332016476259607
 30
0.0
 10
86.05060507856848
 20
-17.425509966734516
 30
0.0
 10
85.11813288555305
 20
-17.64368552814803
 30
0.0
 10
84.11669713140803
 20
-17.80382833512951
 30
0.0
 10
84.03863393601196
 20
-17.81525964960492
 30
0.0
 10
83.21321348214408
 20
-17.91860461775339
 30
0.0
 10
83.18881768022305
 20
-17.9210461666965
 30
0.0
 10
82.4636682434435
 20
-17.990217254927238
 30
0.0
 10
82.33612296166098
 20
-18.000104715153952
 30
0.0
 10
81.79109837430975
 20
-18.034947176347778
 30
0.0
 10
81.56001506174228
 20
-18.04582713338976
 30
0.0
 10
81.10753847378658
 20
-18.060574824236678
 30
0.0
 10
80.98055574330182
 20
-18.079682607599096
 30
0.0
 10
80.89705229250333
 20
-18.095769324596304
 30
0.0
 10
80.84835346312174
 20
-18.123679858442376
 30
0.0
 10
80.80451475287236
 20
-18.151249184562012
 30
0.0
 10
80.28571283319481
 20
-20.323428998892112
 30
0.0
 10
80.31236137603935
 20
-20.367833451631252
 30
0.0
 10
80.3431912859107
 20
-20.414738574378518
 30
0.0
 10
80.41041248677332
 20
-20.46682426260924
 30
0.0
 10
80.51505496006078
 20
-20.541253248913186
 30
0.0
 10
80.91203055905315
 20
-20.75888351069809
 30
0.0
 10
81.11325603379265
 20
-20.873015798540994
 30
0.0
 10
81.5837099494322
 20
-21.150394440794443
 30
0.0
 10
81.69302092392637
 20
-21.216852484926466
 30
0.0
 10
82.30864541612446
 20
-21.606253088051997
 30
0.0
 10
82.32930480441506
 20
-21.619455587363493
 30
0.0
 10
83.01893471959563
 20
-22.084654134430206
 30
0.0
 10
83.08340661813278
 20
-22.130128431842
 30
0.0
 10
83.90438726688866
 20
-22.725535907997568
 30
0.0
 10
84.63762267913685
 20
-23.341547918096584
 30
0.0
 10
84.64926775872054
 20
-23.452252322472248
 30
0.0
 10
84.40042670556473
 20
-24.337636911011128
 30
0.0
 10
84.385623448305
 20
-24.38761928906968
 30
0.0
 10
84.37148145460742
 20
-24.43779277366209
 30
0.0
 10
84.1096514293929
 20
-25.319423522475912
 30
0.0
 10
84.04074646364602
 20
-25.4068487975524
 30
0.0
 10
83.09194128566001
 20
-25.536747606523345
 30
0.0
 10
82.07990984723864
 20
-25.60241080744079
 30
0.0
 10
82.00111921761177
 20
-25.606481938620185
 30
0.0
 10
81.1696482993044
 20
-25.63207920632836
 30
0.0
 10
81.14513106269578
 20
-25.632225567831245
 30
0.0
 10
80.4166906618436
 20
-25.633188643661704
 30
0.0
 10
80.28877993981891
 20
-25.631089128041225
 30
0.0
 10
79.74288750033779
 20
-25.614741576641755
 30
0.0
 10
79.51180075661668
 20
-25.60393474136154
 30
0.0
 10
79.05993136318504
 20
-25.576247048914148
 30
0.0
 10
78.9317173158052
 20
-25.583380020305224
 30
0.0
 10
78.84707439652942
 20
-25.591576664464707
 30
0.0
 10
78.7959759667166
 20
-25.61480432800141
 30
0.0
 10
78.74974825178488
 20
-25.638147391879414
 30
0.0
 10
78.02981980371915
 20
-27.75220122452179
 30
0.0
 10
78.05219315329089
 20
-27.79890597254317
 30
0.0
 10
78.07849533042315
 20
-27.848491952020378
 30
0.0
 10
78.14054377869132
 20
-27.906643468177677
 30
0.0
 10
78.23775680992786
 20
-27.990544289244912
 30
0.0
 10
78.6126088691201
 20
-28.24439166614539
 30
0.0
 10
78.80226263806837
 20
-28.376865507850493
 30
0.0
 10
79.24467522151909
 20
-28.697079348780896
 30
0.0
 10
79.34728265138207
 20
-28.773481417546297
 30
0.0
 10
79.92373802599144
 20
-29.21881898186427
 30
0.0
 10
79.94307033485738
 20
-29.23389804504884
 30
0.0
 10
80.58610811891587
 20
-29.761630473821306
 30
0.0
 10
80.64603844582659
 20
-29.81294220096486
 30
0.0
 10
81.40765684790506
 20
-30.482611296794282
 30
0.0
 10
82.07998612837292
 20
-31.164577795228446
 30
0.0
 10
82.08121351394382
 20
-31.275886225058994
 30
0.0
 10
81.7505571411677
 20
-32.13407857092349
 30
0.0
 10
81.73113850535465
 20
-32.1824551264545
 30
0.0
 10
81.71236033199926
 20
-32.231083870498765
 30
0.0
 10
81.36912357608453
 20
-33.08432256438634
 30
0.0
 10
81.29233474701482
 20
-33.16491132760355
 30
0.0
 10
80.33553471807782
 20
-33.20539182872804
 30
0.0
 10
79.32180136404979
 20
-33.175998373010785
 30
0.0
 10
79.24297571507827
 20
-33.17267354364697
 30
0.0
 10
78.41276132865801
 20
-33.120298161205845
 30
0.0
 10
78.38833811571868
 20
-33.11814804903836
 30
0.0
 10
77.66300831122852
 20
-33.05089464892351
 30
0.0
 10
77.535856232986
 20
-33.03682660807461
 30
0.0
 10
76.99389326376135
 20
-32.96943270695133
 30
0.0
 10
76.76483388749946
 20
-32.93703405020594
 30
0.0
 10
76.31754273306885
 20
-32.867154294901006
 30
0.0
 10
76.18922411845237
 20
-32.86224976951168
 30
0.0
 10
76.10418557571734
 20
-32.86248430842984
 30
0.0
 10
76.05113660031176
 20
-32.88082497611483
 30
0.0
 10
76.00292613151873
 20
-32.89973663806653
 30
0.0
 10
75.08819791215231
 20
-34.93708610792657
 30
0.0
 10
75.10609945065075
 20
-34.98568070822525
 30
0.0
 10
75.12764275056557
 20
-35.03751178106183
 30
0.0
 10
75.18397316224488
 20
-35.10121808753081
 30
0.0
 10
75.27290243981656
 20
-35.193853419929034
 30
0.0
 10
75.62233674583425
 20
-35.4816870920695
 30
0.0
 10
75.79875212485054
 20
-35.63133830275264
 30
0.0
 10
76.2092354384216
 20
-35.99157329161223
 30
0.0
 10
76.30423760587037
 20
-36.07724796088357
 30
0.0
 10
76.83645795233181
 20
-36.57460884386611
 30
0.0
 10
76.85429328874763
 20
-36.59143195557429
 30
0.0
 10
77.44508790251653
 20
-37.177060534493215
 30
0.0
 10
77.49994998793308
 20
-37.233758762065406
 30
0.0
 10
78.19551301343178
 20
-37.97180440147577
 30
0.0
 10
78.80102770822816
 20
-38.713732242135926
 30
0.0
 10
78.79182661347774
 20
-38.824666514937775
 30
0.0
 10
78.38226074117446
 20
-39.6481247929351
 30
0.0
 10
78.35839737847776
 20
-39.6944703910292
 30
0.0
 10
78.33514804872722
 20
-39.741127043374156
 30
0.0
 10
77.91352093906474
 20
-40.55847539001438
 30
0.0
 10
77.82952306966307
 20
-40.63151942442349
 30
0.0
 10
76.87313658283227
 20
-40.5822258736021
 30
0.0
 10
75.86661003836277
 20
-40.45803407199586
 30
0.0
 10
75.78844209268405
 20
-40.44734250080886
 30
0.0
 10
74.9667801920301
 20
-40.317454744962546
 30
0.0
 10
74.94266563483355
 20
-40.313027054387724
 30
0.0
 10
74.22682065110739
 20
-40.178148203625945
 30
0.0
 10
74.10154463368254
 20
-40.152235267997426
 30
0.0
 10
73.56827392477484
 20
-40.03438727717665
 30
0.0
 10
73.34325489800685
 20
-39.98068151952649
 30
0.0
 10
72.9044727933253
 20
-39.86922380716626
 30
0.0
 10
72.77717728007129
 20
-39.852324886141986
 30
0.0
 10
72.6924904356482
 20
-39.84459525868239
 30
0.0
 10
72.63795711095322
 20
-39.8578877520686
 30
0.0
 10
72.58818756363206
 20
-39.87220181572874
 30
0.0
 10
71.4866982374469
 20
-41.81494262240996
 30
0.0
 10
71.49997064550804
 20
-41.86500002389125
 30
0.0
 10
71.51656574491115
 20
-41.918620696755475
 30
0.0
 10
71.56668308631833
 20
-41.98732194022424
 30
0.0
 10
71.64654709653631
 20
-42.08787770132153
 30
0.0
 10
71.96749280813381
 20
-42.4071681760418
 30
0.0
 10
72.1291194525241
 20
-42.57268161548261
 30
0.0
 10
72.50406615409642
 20
-42.96977199423659
 30
0.0
 10
72.59062817666754
 20
-43.06396635193978
 30
0.0
 10
73.0739363234397
 20
-43.608979728264025
 30
0.0
 10
73.09011794982771
 20
-43.62739904638525
 30
0.0
 10
73.6234774689985
 20
-44.2657772504421
 30
0.0
 10
73.67278918294159
 20
-44.32736371238038
 30
0.0
 10
74.29618419898262
 20
-45.12729992375524
 30
0.0
 10
74.82956302319765
 20
-45.92266901810075
 30
0.0
 10
74.81001430767739
 20
-46.03225423949574
 30
0.0
 10
74.32513821545916
 20
-46.81374186867041
 30
0.0
 10
74.29703983796836
 20
-46.85764922254496
 30
0.0
 10
74.26952366776844
 20
-46.90192376285219
 30
0.0
 10
73.77321147855804
 20
-47.67619887558605
 30
0.0
 10
73.68274274512099
 20
-47.74105626758629
 30
0.0
 10
72.7351745592307
 20
-47.602421858316056
 30
0.0
 10
71.7447002157834
 20
-47.38452311283882
 30
0.0
 10
71.66787691611471
 20
-47.36655875774063
 30
0.0
 10
70.86198829555387
 20
-47.16030008675778
 30
0.0
 10
70.8383943136958
 20
-47.1536337284796
 30
0.0
 10
70.13832502218968
 20
-46.95231474726112
 30
0.0
 10
70.01602599572807
 20
-46.91478464066303
 30
0.0
 10
69.49613394930161
 20
-46.74751821252544
 30
0.0
 10
69.27713274732558
 20
-46.672977322099804
 30
0.0
 10
68.85071572530596
 20
-46.52092114706808
 30
0.0
 10
68.72556199096196
 20
-46.49217633873445
 30
0.0
 10
68.64197107588464
 20
-46.47655047314114
 30
0.0
 10
68.58643264271848
 20
-46.48467797731873
 30
0.0
 10
68.53554139344057
 20
-46.49426865018121
 30
0.0
 10
67.25697088824056
 20
-48.32532791762092
 30
0.0
 10
67.26549752746516
 20
-48.376408214040715
 30
0.0
 10
67.27699858802629
 20
-48.43134726653145
 30
0.0
 10
67.32046242616306
 20
-48.50443969800217
 30
0.0
 10
67.39055932123391
 20
-48.612032200154395
 30
0.0
 10
67.68019595595771
 20
-48.95997354128215
 30
0.0
 10
67.82561348495962
 20
-49.13989467142359
 30
0.0
 10
68.16172852943812
 20
-49.57035079554562
 30
0.0
 10
68.23908969696478
 20
-49.67223705827829
 30
0.0
 10
68.66923831467592
 20
-50.26011333079649
 30
0.0
 10
68.68362402632158
 20
-50.27996698570081
 30
0.0
 10
69.1548612682622
 20
-50.96548472428468
 30
0.0
 10
69.19818925761665
 20
-51.03141819654713
 30
0.0
 10
69.74393784638413
 20
-51.886215111698235
 30
0.0
 10
70.20049344773231
 20
-52.728035727529544
 30
0.0
 10
70.17076890625712
 20
-52.83530885865179
 30
0.0
 10
69.61484370265667
 20
-53.56795809761929
 30
0.0
 10
69.58275723992334
 20
-53.609041347869876
 30
0.0
 10
69.55121604236714
 20
-53.65054468988722
 30
0.0
 10
68.98458038297312
 20
-54.37494221118402
 30
0.0
 10
68.88843582798302
 20
-54.43104299168247
 30
0.0
 10
67.9580132063218
 20
-54.20428604813682
 30
0.0
 10
66.9922953880406
 20
-53.89459526079866
 30
0.0
 10
66.91749186030171
 20
-53.869515993187804
 30
0.0
 10
66.13445869800817
 20
-53.5886990156853
 30
0.0
 10
66.1115926362495
 20
-53.579852573900006
 30
0.0
 10
65.433451271069
 20
-53.31386266067044
 30
0.0
 10
65.31520400381262
 20
-53.265045199029004
 30
0.0
 10
64.8132594498647
 20
-53.04983027695934
 30
0.0
 10
64.60220066311807
 20
-52.95510932178348
 30
0.0
 10
64.19189609188226
 20
-52.76379095921382
 30
0.0
 10
64.06998399196571
 20
-52.72345287398003
 30
0.0
 10
63.98822360620147
 20
-52.70006809092167
 30
0.0
 10
63.93216813831172
 20
-52.702959181091714
 30
0.0
 10
63.8806024212056
 20
-52.70774217997856
 30
0.0
 10
62.43618686056298
 20
-54.41102849349655
 30
0.0
 10
62.43989279853891
 20
-54.46268278937326
 30
0.0
 10
62.44619874852434
 20
-54.51845741512183
 30
0.0
 10
62.48262712161833
 20
-54.595298695678615
 30
0.0
 10
62.54234088750778
 20
-54.708982412108234
 30
0.0
 10
62.79812310819769
 20
-55.082516898627006
 30
0.0
 10
62.92605358733769
 20
-55.27526456610811
 30
0.0
 10
63.22038318362607
 20
-55.735303571701834
 30
0.0
 10
63.287863643386444
 20
-55.84398635932365
 30
0.0
 10
63.66107257051759
 20
-56.46955925021511
 30
0.0
 10
63.67353594526973
 20
-56.49067276726936
 30
0.0
 10
64.07850966015408
 20
-57.21730568584497
 30
0.0
 10
64.11547315699153
 20
-57.287006742706616
 30
0.0
 10
64.57877926026431
 20
-58.18915237560838
 30
0.0
 10
64.954499411705
 20
-59.07002656308489
 30
0.0
 10
64.91486026461415
 20
-59.17404488380095
 30
0.0
 10
64.29277144030966
 20
-59.85141718470595
 30
0.0
 10
64.25697886932207
 20
-59.8893152902521
 30
0.0
 10
64.22168982958783
 20
-59.92768270111761
 30
0.0
 10
63.589710314558985
 20
-60.5958365995136
 30
0.0
 10
63.4887348598221
 20
-60.642687752834064
 30
0.0
 10
62.58363438984355
 20
-60.32980102318621
 30
0.0
 10
61.65115985963907
 20
-59.93103976776154
 30
0.0
 10
61.57903347992141
 20
-59.89906598514356
 30
0.0
 10
60.82573709948031
 20
-59.54615853081679
 30
0.0
 10
60.80379990559394
 20
-59.53520974837288
 30
0.0
 10
60.15354599743968
 20
-59.20688643205368
 30
0.0
 10
60.04038965062486
 20
-59.14721062497708
 30
0.0
 10
59.56080369594363
 20
-58.885938525448815
 30
0.0
 10
59.359542116633165
 20
-58.77186991668264
 30
0.0
 10
58.96895576750616
 20
-58.54297067922437
 30
0.0
 10
58.85135666993466
 20
-58.49139380963385
 30
0.0
 10
58.77214532669339
 20
-58.4604556154248
 30
0.0
 10
58.71606544154741
 20
-58.45808488458292
 30
0.0
 10
58.6642784179891
 20
-58.45801817632795
 30
0.0
 10
57.0667113777865
 20
-60.018562994557314
 30
0.0
 10
57.0655640465976
 20
-60.07033735008148
 30
0.0
 10
57.0666194690921
 20
-60.12645739967135
 30
0.0
 10
57.09569224329074
 20
-60.206372245377736
 30
0.0
 10
57.14449811327706
 20
-60.32514811949714
 30
0.0
 10
57.36417809658072
 20
-60.720993116908524
 30
0.0
 10
57.47349726820823
 20
-60.924873448296985
 30
0.0
 10
57.72345483723133
 20
-61.410452496039994
 30
0.0
 10
57.78046156851869
 20
-61.524976700305515
 30
0.0
 10
58.093451031599045
 20
-62.18274865251187
 30
0.0
 10
58.10388254087219
 20
-62.20493648536902
 30
0.0
 10
58.43903380513257
 20
-62.96629890772095
 30
0.0
 10
58.469307972913725
 20
-63.039155013787905
 30
0.0
 10
58.846100039997545
 20
-63.98072127618065
 30
0.0
 10
59.137682899330414
 20
-64.89290788126992
 30
0.0
 10
59.08847749687379
 20
-64.99275727483726
 30
0.0
 10
58.40569199082123
 20
-65.60889986554365
 30
0.0
 10
58.366507857980174
 20
-65.64327977647112
 30
0.0
 10
58.32778109741795
 20
-65.67817408199856
 30
0.0
 10
57.63601158545595
 20
-66.28421259701037
 30
0.0
 10
57.531092606899186
 20
-66.32140239353288
 30
0.0
 10
56.65926834407748
 20
-65.92513553761316
 30
0.0
 10
55.768231721649386
 20
-65.44080814235262
 30
0.0
 10
55.69941633917129
 20
-65.40222083147881
 30
0.0
 10
54.98247673625963
 20
-64.9803242637256
 30
0.0
 10
54.96166119509422
 20
-64.96736935891687
 30
0.0
 10
54.345009198691706
 20
-64.57959795661712
 30
0.0
 10
54.237938194362954
 20
-64.50958823724368
 30
0.0
 10
53.78492545756223
 20
-64.2045550288618
 30
0.0
 10
53.59522977968353
 20
-64.07214120554062
 30
0.0
 10
53.22779413954546
 20
-63.80767266792286
 30
0.0
 10
53.11554150941687
 20
-63.7453102733601
 30
0.0
 10
53.03957532083111
 20
-63.70709055396348
 30
0.0
 10
52.983963850475995
 20
-63.69947883617755
 30
0.0
 10
52.93241062669059
 20
-63.6945630070153
 30
0.0
 10
51.195731583519745
 20
-65.09865220598218
 30
0.0
 10
51.189741065953754
 20
-65.15009162625586
 30
0.0
 10
51.18553668586651
 20
-65.20606391467336
 30
0.0
 10
51.206998368584784
 20
-65.28835003099186
 30
0.0
 10
51.24446743492767
 20
-65.41117425614856
 30
0.0
 10
51.42611462525294
 20
-65.8258510643822
 30
0.0
 10
51.515861788557
 20
-66.03907235199503
 30
0.0
 10
51.71925069421072
 20
-66.54592415575617
 30
0.0
 10
51.765282719820775
 20
-66.66528333384045
 30
0.0
 10
52.01530215619488
 20
-67.34947382379472
 30
0.0
 10
52.023610127510445
 20
-67.37254098498182
 30
0.0
 10
52.28599361978576
 20
-68.16194203076675
 30
0.0
 10
52.309312408035645
 20
-68.23731292395928
 30
0.0
 10
52.59627917669693
 20
-69.21002529767397
 30
0.0
 10
52.80116230326995
 20
-70.14550799169169
 30
0.0
 10
52.7428230642936
 20
-70.24031097804941
 30
0.0
 10
52.00534122007052
 20
-70.78980917531595
 30
0.0
 10
51.9631098769443
 20
-70.8203687597314
 30
0.0
 10
51.92128572771835
 20
-70.85148330750913
 30
0.0
 10
51.17580551416772
 20
-71.39008055087598
 30
0.0
 10
51.06786504354714
 20
-71.4172821653315
 30
0.0
 10
50.23697861085143
 20
-70.941117590518
 30
0.0
 10
49.39521035807592
 20
-70.37548034198569
 30
0.0
 10
49.33031072489295
 20
-70.33061860953146
 30
0.0
 10
48.65602839051954
 20
-69.84344057055907
 30
0.0
 10
48.636517429799305
 20
-69.82859339155478
 30
0.0
 10
48.05888650506539
 20
-69.38478165230065
 30
0.0
 10
47.958841787058596
 20
-69.30505326856148
 30
0.0
 10
47.53638336035801
 20
-68.9589395941291
 30
0.0
 10
47.35992063634901
 20
-68.80934421369335
 30
0.0
 10
47.018864742817
 20
-68.511630534934
 30
0.0
 10
46.912945060281075
 20
-68.43903065836471
 30
0.0
 10
46.84089161994757
 20
-68.39386529004884
 30
0.0
 10
46.78623727998437
 20
-68.38107947736843
 30
0.0
 10
46.73537090755616
 20
-68.37135772778234
 30
0.0
 10
44.87484185929285
 20
-69.60665212112049
 30
0.0
 10
44.86406080023353
 20
-69.65730455466874
 30
0.0
 10
44.854633565807916
 20
-69.71263719543073
 30
0.0
 10
44.868295551006426
 20
-69.79657144901243
 30
0.0
 10
44.89409853420359
 20
-69.92236464149946
 30
0.0
 10
45.03611660951056
 20
-70.3522290658544
 30
0.0
 10
45.10550306319307
 20
-70.57291751334942
 30
0.0
 10
45.26053591646144
 20
-71.09658784125277
 30
0.0
 10
45.29518870529799
 20
-71.21973306040712
 30
0.0
 10
45.48004093516923
 20
-71.9243293974827
 30
0.0
 10
45.4861523577766
 20
-71.94807317195784
 30
0.0
 10
45.673462242502424
 20
-72.75857555640154
 30
0.0
 10
45.68962072487142
 20
-72.8357988746002
 30
0.0
 10
45.88424032082896
 20
-73.83110912832156
 30
0.0
 10
46.00062319435897
 20
-74.78166685571632
 30
0.0
 10
45.93366280619268
 20
-74.87059030281158
 30
0.0
 10
45.14796564076315
 20
-75.3486150967228
 30
0.0
 10
45.103058217913684
 20
-75.37508579589952
 30
0.0
 10
45.05850423215126
 20
-75.40214715016293
 30
0.0
 10
44.265864623933325
 20
-75.86856990994418
 30
0.0
 10
44.15585124598586
 20
-75.8855442935668
 30
0.0
 10
43.37320450326221
 20
-75.33366655126407
 30
0.0
 10
42.588102109811466
 20
-74.69169028993826
 30
0.0
 10
42.52768856623358
 20
-74.64094838242147
 30
0.0
 10
41.90198911779751
 20
-74.09277021035345
 30
0.0
 10
41.8839542005468
 20
-74.07616123469653
 30
0.0
 10
41.35042058881746
 20
-73.58020939201037
 30
0.0
 10
41.25828135371171
 20
-73.49146299980853
 30
0.0
 10
40.870089816955094
 20
-73.1073105187415
 30
0.0
 10
40.70841080757932
 20
-72.94184823077333
 30
0.0
 10
40.396731872108795
 20
-72.61350572938598
 30
0.0
 10
40.29807596314413
 20
-72.53130638113586
 30
0.0
 10
40.2305684792873
 20
-72.47959227878144
 30
0.0
 10
40.17735157402078
 20
-72.46174473338817
 30
0.0
 10
40.12761906845962
 20
-72.44730249846315
 30
0.0
 10
38.15959041127755
 20
-73.50294627462742
 30
0.0
 10
38.14411355505956
 20
-73.55236658604294
 30
0.0
 10
38.12954631317067
 20
-73.60657331391285
 30
0.0
 10
38.135288538832256
 20
-73.69141808751931
 30
0.0
 10
38.149198681339605
 20
-73.81907477223804
 30
0.0
 10
38.25033958167604
 20
-74.26034914869678
 30
0.0
 10
38.29875555508717
 20
-74.48656533806228
 30
0.0
 10
38.40406992168128
 20
-75.02245215643704
 30
0.0
 10
38.42703894379004
 20
-75.14830121204767
 30
0.0
 10
38.54509947911573
 20
-75.86711137829973
 30
0.0
 10
38.54896064561326
 20
-75.89132310491907
 30
0.0
 10
38.65955083678768
 20
-76.71580410392447
 30
0.0
 10
38.668407011951736
 20
-76.7942012058323
 30
0.0
 10
38.76896911119847
 20
-77.80336251726304
 30
0.0
 10
38.795828954808215
 20
-78.76064174254806
 30
0.0
 10
38.720835867750814
 20
-78.8429041879304
 30
0.0
 10
37.89382811605533
 20
-79.24525467940947
 30
0.0
 10
37.84663926152929
 20
-79.26740386789133
 30
0.0
 10
37.79974698125926
 20
-79.29017421248611
 30
0.0
 10
36.966913723751354
 20
-79.68032354869806
 30
0.0
 10
36.855794239998076
 20
-79.68692152999414
 30
0.0
 10
36.12826511496253
 20
-79.06418054164496
 30
0.0
 10
35.40672808889951
 20
-78.35150697799322
 30
0.0
 10
35.351331551319916
 20
-78.29533081712162
 30
0.0
 10
34.779713658071834
 20
-77.69096992144448
 30
0.0
 10
34.76331327579191
 20
-77.67274510941022
 30
0.0
 10
34.27856568963085
 20
-77.12901160591814
 30
0.0
 10
34.195141660337235
 20
-77.03202711173925
 30
0.0
 10
33.84462845470751
 20
-76.61321176985385
 30
0.0
 10
33.69915400091271
 20
-76.43333666288932
 30
0.0
 10
33.41959106919539
 20
-76.07725082458208
 30
0.0
 10
33.32906592547725
 20
-75.98617437547917
 30
0.0
 10
33.26669765629255
 20
-75.92836600447714
 30
0.0
 10
33.21538585779967
 20
-75.90561357124163
 30
0.0
 10
33.16722427015262
 20
-75.88657776985748
 30
0.0
 10
31.108991110653935
 20
-76.753293893386
 30
0.0
 10
31.08895446844621
 20
-76.80104777519513
 30
0.0
 10
31.069375236539553
 20
-76.85365221949935
 30
0.0
 10
31.06714723977864
 20
-76.93866189420943
 30
0.0
 10
31.069042298763655
 20
-77.06706021962451
 30
0.0
 10
31.12841719426074
 20
-77.51586661310016
 30
0.0
 10
31.155437206085313
 20
-77.7456225483301
 30
0.0
 10
31.210107579564813
 20
-78.28901646454794
 30
0.0
 10
31.221190982353612
 20
-78.41646339058912
 30
0.0
 10
31.27142230290431
 20
-79.14317045643094
 30
0.0
 10
31.272999281222
 20
-79.1676373616704
 30
0.0
 10
31.30589790826856
 20
-79.99885140657304
 30
0.0
 10
31.307373947841906
 20
-80.07773333563958
 30
0.0
 10
31.31299480703382
 20
-81.09187715888926
 30
0.0
 10
31.250095575451876
 20
-82.04746527781259
 30
0.0
 10
31.1677288314489
 20
-82.12234379615415
 30
0.0
 10
30.30667826734542
 20
-82.44548411461496
 30
0.0
 10
30.25762267849309
 20
-82.4631171445372
 30
0.0
 10
30.208804194760535
 20
-82.48139637285631
 30
0.0
 10
29.343096256575155
 20
-82.79184363910402
 30
0.0
 10
29.23184718903472
 20
-82.78800723477673
 30
0.0
 10
28.565829233797285
 20
-82.0998756705781
 30
0.0
 10
27.91419846845075
 20
-81.32276780550283
 30
0.0
 10
27.864305763633546
 20
-81.26165106939804
 30
0.0
 10
27.35179282417252
 20
-80.60641859539354
 30
0.0
 10
27.33717110401255
 20
-80.58673810728536
 30
0.0
 10
26.905469522636665
 20
-80.00000129256662
 30
0.0
 10
26.831493832524206
 20
-79.89563099963274
 30
0.0
 10
26.521739280675572
 20
-79.44583336121246
 30
0.0
 10
26.393747817192413
 20
-79.25312618415921
 30
0.0
 10
26.148757698324246
 20
-78.87242630408265
 30
0.0
 10
26.067158858070574
 20
-78.7732731372364
 30
0.0
 10
26.010477898150114
 20
-78.7098785196297
 30
0.0
 10
25.961522136361005
 20
-78.6824211477533
 30
0.0
 10
25.915354712392027
 20
-78.65895906721707
 30
0.0
 10
23.78500487758865
 20
-79.32913080565243
 30
0.0
 10
23.76058453212336
 20
-79.37479859502477
 30
0.0
 10
23.736165373192918
 20
-79.4253384660153
 30
0.0
 10
23.725986733725144
 20
-79.50976597375103
 30
0.0
 10
23.715850055341324
 20
-79.637777570762
 30
0.0
 10
23.73293715728255
 20
-80.09017185453132
 30
0.0
 10
23.738323754685105
 20
-80.3214484322058
 30
0.0
 10
23.741869689842126
 20
-80.8675740809926
 30
0.0
 10
23.740970071968746
 20
-80.99549886929573
 30
0.0
 10
23.722930743093308
 20
-81.72371650690306
 30
0.0
 10
23.722209674689
 20
-81.74822357471969
 30
0.0
 10
23.67712762329031
 20
-82.57886592660564
 30
0.0
 10
23.671210555784096
 20
-82.65753946560197
 30
0.0
 10
23.58184077860851
 20
-83.66775346828712
 30
0.0
 10
23.429735232543635
 20
-84.61325273810033
 30
0.0
 10
23.340718673502977
 20
-84.6800892942896
 30
0.0
 10
22.453192240308947
 20
-84.92117967099458
 30
0.0
 10
22.402701019409022
 20
-84.93414158265622
 30
0.0
 10
22.352385350804315
 20
-84.94776905618396
 30
0.0
 10
21.461410604429805
 20
-85.17578603072911
 30
0.0
 10
21.351009613907852
 20
-85.16154895523762
 30
0.0
 10
20.75235581820663
 20
-84.41407414011832
 30
0.0
 10
20.176357868172616
 20
-83.57936122547967
 30
0.0
 10
20.132407455001687
 20
-83.51384101021613
 30
0.0
 10
19.683503451467725
 20
-82.81349516442545
 30
0.0
 10
19.670788889630224
 20
-82.79253195308051
 30
0.0
 10
19.29592712205898
 20
-82.16794809135969
 30
0.0
 10
19.23204987215228
 20
-82.0571092095579
 30
0.0
 10
18.965776108223977
 20
-81.58028211242217
 30
0.0
 10
18.856392428635637
 20
-81.37643638288117
 30
0.0
 10
18.64812810459015
 20
-80.9744680652699
 30
0.0
 10
18.576172661343076
 20
-80.86810954227572
 30
0.0
 10
18.525677125000676
 20
-80.79968579224331
 30
0.0
 10
18.4795076249102
 20
-80.76776477809736
 30
0.0
 10
18.435740085601136
 20
-80.7400826040164
 30
0.0
 10
16.25199516644062
 20
-81.20782046402441
 30
0.0
 10
16.223405724591768
 20
-81.25100083078489
 30
0.0
 10
16.194361235084244
 20
-81.29903198225827
 30
0.0
 10
16.17632140315924
 20
-81.38213537104598
 30
0.0
 10
16.1542420689007
 20
-81.50863526913547
 30
0.0
 10
16.128891215219817
 20
-81.96064178596632
 30
0.0
 10
16.1125970605887
 20
-82.19140653920486
 30
0.0
 10
16.06498739561758
 20
-82.7354645487225
 30
0.0
 10
16.052112662956237
 20
-82.8627429916483
 30
0.0
 10
15.965961214925457
 20
-83.58607159823794
 30
0.0
 10
15.962948436574212
 20
-83.61040345963855
 30
0.0
 10
15.84028188941894
 20
-84.43317440365269
 30
0.0
 10
15.827023714235171
 20
-84.51094816668932
 30
0.0
 10
15.643448685507297
 20
-85.50835455183086
 30
0.0
 10
15.403473533967452
 20
-86.43545589095429
 30
0.0
 10
15.308589440610653
 20
-86.49366312293228
 30
0.0
 10
14.402386752533067
 20
-86.65058484698227
 30
0.0
 10
14.350903618250344
 20
-86.65876173063755
 30
0.0
 10
14.29953294067834
 20
-86.66761769064655
 30
0.0
 10
13.39112130422191
 20
-86.81120055211824
 30
0.0
 10
13.282538598592748
 20
-86.78668792139386
 30
0.0
 10
12.756509953509681
 20
-85.98643869090552
 30
0.0
 10
12.26120670948379
 20
-85.10145621381044
 30
0.0
 10
12.223584825770368
 20
-85.03210831339571
 30
0.0
 10
11.84223474268741
 20
-84.29280376029348
 30
0.0
 10
11.831539075198968
 20
-84.27074205116683
 30
0.0
 10
11.51681142012439
 20
-83.6138000078784
 30
0.0
 10
11.463593965992418
 20
-83.49746659328727
 30
0.0
 10
11.243141013396038
 20
-82.99780041111066
 30
0.0
 10
11.153326385411757
 20
-82.7846075326826
 30
0.0
 10
10.98361809055706
 20
-82.36490328956508
 30
0.0
 10
10.921938391339083
 20
-82.2522740929473
 30
0.0
 10
10.878072035163745
 20
-82.17942252086473
 30
0.0
 10
10.835094535998783
 20
-82.14331838746926
 30
0.0
 10
10.794111512058791
 20
-82.11165939178474
 30
0.0
 10
8.576162337409894
 20
-82.37285287623358
 30
0.0
 10
8.543655044220417
 20
-82.41316634976654
 30
0.0
 10
8.51024046815394
 20
-82.4582666822366
 30
0.0
 10
8.484497978463303
 20
-82.5393156365075
 30
0.0
 10
8.450670022313396
 20
-82.66319215002265
 30
0.0
 10
8.383103997224072
 20
-83.1108386503927
 30
0.0
 10
8.345272284176058
 20
-83.33906361024646
 30
0.0
 10
8.246925414524428
 20
-83.876272779145
 30
0.0
 10
8.222188710688677
 20
-84.00178634916061
 30
0.0
 10
8.068682245525522
 20
-84.71386928692966
 30
0.0
 10
8.06340423363182
 20
-84.73781211264138
 30
0.0
 10
7.864231188746992
 20
-85.54548110814402
 30
0.0
 10
7.843748419205896
 20
-85.62167161659494
 30
0.0
 10
7.567581402878856
 20
-86.5975051410173
 30
0.0
 10
7.241845556124367
 20
-87.49806114954765
 30
0.0
 10
7.141927773275526
 20
-87.54712753006683
 30
0.0
 10
6.225012572120816
 20
-87.61850156770858
 30
0.0
 10
6.172989960090428
 20
-87.62182156460996
 30
0.0
 10
6.121015720912727
 20
-87.62582818460523
 30
0.0
 10
5.203150348498587
 20
-87.68371512165415
 30
0.0
 10
5.097340156483507
 20
-87.64914235357708
 30
0.0
 10
4.648559420665579
 20
-86.80315132673115
 30
0.0
 10
4.238303625365534
 20
-85.87567654500894
 30
0.0
 10
4.207340893576434
 20
-85.80311039128536
 30
0.0
 10
3.8968960491865126
 20
-85.03134416586683
 30
0.0
 10
3.8883132699575955
 20
-85.00837783805153
 30
0.0
 10
3.63648556532889
 20
-84.32485084349301
 30
0.0
 10
3.5943955838720525
 20
-84.20404523834293
 30
0.0
 10
3.4217007910816677
 20
-83.68593105550048
 30
0.0
 10
3.3522445088815656
 20
-83.46526457486662
 30
0.0
 10
3.222583645814905
 20
-83.03151278222232
 30
0.0
 10
3.1717217340405233
 20
-82.91360270141053
 30
0.0
 10
3.1348700571475847
 20
-82.83696352951272
 30
0.0
 10
3.095462246716103
 20
-82.79699356129022
 30
0.0
 10
3.0576238984331625
 20
-82.76163596439451
 30
0.0
 10
0.824961885391732
 20
-82.81398969555133
 30
0.0
 10
0.7888224161230175
 20
-82.85108199960185
 30
0.0
 10
0.7513314019935182
 20
-82.89285516972517
 30
0.0
 10
0.718112480462253
 20
-82.97113742835495
 30
0.0
 10
0.6728331837159491
 20
-83.09130192604088
 30
0.0
 10
0.5636457598760871
 20
-83.53065447640918
 30
0.0
 10
0.5046089548657264
 20
-83.75433399372483
 30
0.0
 10
0.356389156360265
 20
-84.27997330851201
 30
0.0
 10
0.32000786839285067
 20
-84.40261898785111
 30
0.0
 10
0.10049540643268817
 20
-85.0971984463387
 30
0.0
 10
0.09299854435482935
 20
-85.12054182594828
 30
0.0
 10
-0.18093065837960332
 20
-85.90601104876622
 30
0.0
 10
-0.20845801896281557
 20
-85.97994873770361
 30
0.0
 10
-0.5747900572196221
 20
-86.92563374130692
 30
0.0
 10
-0.9834240208552529
 20
-87.79173030066067
 30
0.0
 10
-1.0874974121277998
 20
-87.83122463260482
 30
0.0
 10
-2.0070672426030933
 20
-87.81642374622916
 30
0.0
 10
-2.0591721557960083
 20
-87.81485768012449
 30
0.0
 10
-2.111293205096718
 20
-87.81397974978545
 30
0.0
 10
-3.030546079572836
 20
-87.78566204992741
 30
0.0
 10
-3.1326538942018742
 20
-87.74133297122664
 30
0.0
 10
-3.500242819511845
 20
-86.85703474758566
 30
0.0
 10
-3.8218458234057073
 20
-85.89521834296659
 30
0.0
 10
-3.8458773016702192
 20
-85.82007164990227
 30
0.0
 10
-4.082688706912187
 20
-85.02262606150619
 30
0.0
 10
-4.089083172109111
 20
-84.99895694391685
 30
0.0
 10
-4.275797855368898
 20
-84.29485185789352
 30
0.0
 10
-4.306390475880164
 20
-84.17063570618622
 30
0.0
 10
-4.429809460816063
 20
-83.63862672874617
 30
0.0
 10
-4.478297012926628
 20
-83.41242587087264
 30
0.0
 10
-4.566770979878509
 20
-82.96843835505139
 30
0.0
 10
-4.606368127899822
 20
-82.84628358807535
 30
0.0
 10
-4.63588127164878
 20
-82.7665303241606
 30
0.0
 10
-4.6713730760917525
 20
-82.72304577862897
 30
0.0
 10
-4.705734223952408
 20
-82.68430030435495
 30
0.0
 10
-6.933488361337714
 20
-82.52735419574788
 30
0.0
 10
-6.972942411730293
 20
-82.56089936181424
 30
0.0
 10
-7.014180391542611
 20
-82.59897826546981
 30
0.0
 10
-7.0545838158376615
 20
-82.67380588115489
 30
0.0
 10
-7.110916537092483
 20
-82.78920235308527
 30
0.0
 10
-7.260765816676214
 20
-83.21639990744174
 30
0.0
 10
-7.34048889608375
 20
-83.43356827857845
 30
0.0
 10
-7.537279062524356
 20
-83.94301840205594
 30
0.0
 10
-7.584985214556642
 20
-84.06171837607864
 30
0.0
 10
-7.868574589905273
 20
-84.73269036602909
 30
0.0
 10
-7.87822441947379
 20
-84.75522915707721
 30
0.0
 10
-8.22450248037474
 20
-85.51159587543782
 30
0.0
 10
-8.258832520565486
 20
-85.58263097779282
 30
0.0
 10
-8.712110241627947
 20
-86.48985674676213
 30
0.0
 10
-9.200051232179364
 20
-87.31388256923415
 30
0.0
 10
-9.307365631171029
 20
-87.34345777499404
 30
0.0
 10
-10.22150887823245
 20
-87.24261203532268
 30
0.0
 10
-10.273238192737317
 20
-87.23617366885716
 30
0.0
 10
-10.325048010505705
 20
-87.2304189034672
 30
0.0
 10
-11.237609959730062
 20
-87.11614542366677
 30
0.0
 10
-11.335118069826688
 20
-87.0624495998798
 30
0.0
 10
-11.618284799935974
 20
-86.14761542402914
 30
0.0
 10
-11.848408753661811
 20
-85.15990987366024
 30
0.0
 10
-11.865297788906666
 20
-85.08284303309586
 30
0.0
 10
-12.026394647856574
 20
-84.26672606222617
 30
0.0
 10
-12.030544604231434
 20
-84.24256215991923
 30
0.0
 10
-12.150505410772265
 20
-83.52406668324397
 30
0.0
 10
-12.16933182128891
 20
-83.39753160098702
 30
0.0
 10
-12.242390387893028
 20
-82.85630314297214
 30
0.0
 10
-12.269483099562681
 20
-82.62655576913126
 30
0.0
 10
-12.315992657997022
 20
-82.17623430838617
 30
0.0
 10
-12.343977061104692
 20
-82.05090835573031
 30
0.0
 10
-12.365892309141223
 20
-81.96874187434953
 30
0.0
 10
-12.39715620434209
 20
-81.92212489525842
 30
0.0
 10
-12.427738184777565
 20
-81.88033204022717
 30
0.0
 10
-14.631006863045823
 20
-81.51546533990182
 30
0.0
 10
-14.6734287709488
 20
-81.5451685718585
 30
0.0
 10
-14.718051315594584
 20
-81.5792185702718
 30
0.0
 10
-14.76528417590796
 20
-81.64993395523504
 30
0.0
 10
-14.832175267691401
 20
-81.75954829306531
 30
0.0
 10
-15.021369522162008
 20
-82.17083662394187
 30
0.0
 10
-15.12107826667835
 20
-82.37958536544555
 30
0.0
 10
-15.364709401995592
 20
-82.86836923161032
 30
0.0
 10
-15.423321174713356
 20
-82.9820803606769
 30
0.0
 10
-15.768495269823093
 20
-83.62354835611694
 30
0.0
 10
-15.780213263833051
 20
-83.64508448689745
 30
0.0
 10
-16.195797078850475
 20
-84.36570172288373
 30
0.0
 10
-16.236628105021182
 20
-84.43320997962265
 30
0.0
 10
-16.772868087978456
 20
-85.2940037812799
 30
0.0
 10
-17.335828062476185
 20
-86.06871729831344
 30
0.0
 10
-17.44544038639001
 20
-86.08811346991746
 30
0.0
 10
-18.346123526313264
 20
-85.90210911293661
 30
0.0
 10
-18.39702264305422
 20
-85.89085502670628
 30
0.0
 10
-18.448065922748857
 20
-85.88027399935055
 30
0.0
 10
-19.345917319499403
 20
-85.68104897905705
 30
0.0
 10
-19.43796882028607
 20
-85.61845829101402
 30
0.0
 10
-19.634224875788867
 20
-84.68112775858503
 30
0.0
 10
-19.770847441766954
 20
-83.6762130543571
 30
0.0
 10
-19.780445612543154
 20
-83.59790333245856
 30
0.0
 10
-19.86441220021212
 20
-82.77028704439972
 30
0.0
 10
-19.866281177799078
 20
-82.7458407106175
 30
0.0
 10
-19.91843388773973
 20
-82.01926900737371
 30
0.0
 10
-19.925328641089212
 20
-81.89152698941969
 30
0.0
 10
-19.947384748051327
 20
-81.34583538597951
 30
0.0
 10
-19.95284452755576
 20
-81.11456052435345
 30
0.0
 10
-19.956980949800734
 20
-80.66186255987344
 30
0.0
 10
-19.973106680054034
 20
-80.53446679051595
 30
0.0
 10
-19.987231440390406
 20
-80.45060917366187
 30
0.0
 10
-20.013992678114015
 20
-80.40126943269975
 30
0.0
 10
-20.040526735580627
 20
-80.35679647402395
 30
0.0
 10
-22.199947550366034
 20
-79.78721564366202
 30
0.0
 10
-22.244964510527428
 20
-79.81281590843854
 30
0.0
 10
-22.292579475479876
 20
-79.84253776899922
 30
0.0
 10
-22.34622668773683
 20
-79.90851947389488
 30
0.0
 10
-22.42308830872915
 20
-80.0113883828829
 30
0.0
 10
-22.649964892175632
 20
-80.40315307363943
 30
0.0
 10
-22.76878305776882
 20
-80.60164769406391
 30
0.0
 10
-23.057114122785485
 20
-81.06546985272531
 30
0.0
 10
-23.126116433822627
 20
-81.17319283934494
 30
0.0
 10
-23.5298418463345
 20
-81.7795195964659
 30
0.0
 10
-23.543525026633198
 20
-81.79986380668711
 30
0.0
 10
-24.024762430257915
 20
-82.47839875011854
 30
0.0
 10
-24.071735617882457
 20
-82.54178689625384
 30
0.0
 10
-24.68622536648316
 20
-83.34858404371917
 30
0.0
 10
-25.319257012429414
 20
-84.06717704507082
 30
0.0
 10
-25.430203984221606
 20
-84.07622372826548
 30
0.0
 10
-26.309511781187897
 20
-83.80669536695233
 30
0.0
 10
-26.35913339689683
 20
-83.79072446227161
 30
0.0
 10
-26.40896156834043
 20
-83.77541015939899
 30
0.0
 10
-27.284212062259197
 20
-83.49298439525413
 30
0.0
 10
-27.369998001837164
 20
-83.42204889217207
 30
0.0
 10
-27.4776186774611
 20
-82.4704592975866
 30
0.0
 10
-27.519539211669187
 20
-81.45716666605331
 30
0.0
 10
-27.52176216890684
 20
-81.37830225147236
 30
0.0
 10
-27.52786058390331
 20
-80.54645976792177
 30
0.0
 10
-27.527432158060126
 20
-80.52194583792455
 30
0.0
 10
-27.511318451510437
 20
-79.7936830463651
 30
0.0
 10
-27.506220956352404
 20
-79.66585669416091
 30
0.0
 10
-27.477080773811476
 20
-79.1204975027275
 30
0.0
 10
-27.460859640412096
 20
-78.88972760511598
 30
0.0
 10
-27.42258657544028
 20
-78.43863146289017
 30
0.0
 10
-27.42671191934193
 20
-78.31028543543283
 30
0.0
 10
-27.432922063076433
 20
-78.22547362685759
 30
0.0
 10
-27.45494546460343
 20
-78.17384472344204
 30
0.0
 10
-27.477198416850108
 20
-78.12708249108167
 30
0.0
 10
-29.57379430038776
 20
-77.35779302750035
 30
0.0
 10
-29.62101070214303
 20
-77.37906534904937
 30
0.0
 10
-29.67119964537808
 20
-77.40419787497814
 30
0.0
 10
-29.73078975594835
 20
-77.46486605021116
 30
0.0
 10
-29.816946443460612
 20
-77.56008551468594
 30
0.0
 10
-30.07951155631003
 20
-77.92888372313371
 30
0.0
 10
-30.21639496466858
 20
-78.1153798446176
 30
0.0
 10
-30.546892095618002
 20
-78.550164209968
 30
0.0
 10
-30.62567855018407
 20
-78.65095238066094
 30
0.0
 10
-31.084407326656486
 20
-79.21680947812003
 30
0.0
 10
-31.099935444963474
 20
-79.23578298213104
 30
0.0
 10
-31.642597305588946
 20
-79.8662726435272
 30
0.0
 10
-31.695299852605515
 20
-79.92498362175144
 30
0.0
 10
-32.382639208844225
 20
-80.67069395268358
 30
0.0
 10
-33.08017942137301
 20
-81.32685141721956
 30
0.0
 10
-33.19148603506623
 20
-81.32546910942767
 30
0.0
 10
-34.041691100539246
 20
-80.97478536871265
 30
0.0
 10
-34.08959913867316
 20
-80.95423799846614
 30
0.0
 10
-34.13777431010345
 20
-80.93432500272091
 30
0.0
 10
-34.98273216837919
 20
-80.57118046249495
 30
0.0
 10
-35.06149865682691
 20
-80.49252352812553
 30
0.0
 10
-35.07953817820496
 20
-79.53503747495633
 30
0.0
 10
-35.02638828148113
 20
-78.52227176819777
 30
0.0
 10
-35.0212164897521
 20
-78.4435457242454
 30
0.0
 10
-34.94939313898581
 20
-77.61478730685842
 30
0.0
 10
-34.946671074734205
 20
-77.59042120994442
 30
0.0
 10
-34.86243255952672
 20
-76.8668673296671
 30
0.0
 10
-34.845387612831914
 20
-76.74007998579206
 30
0.0
 10
-34.76530722575988
 20
-76.19984584254877
 30
0.0
 10
-34.72754773136025
 20
-75.97160892310961
 30
0.0
 10
-34.64720152424277
 20
-75.5260788522556
 30
0.0
 10
-34.63929022812223
 20
-75.39791047620253
 30
0.0
 10
-34.63753118028843
 20
-75.31288980512942
 30
0.0
 10
-34.654623203174324
 20
-75.25942545592008
 30
0.0
 10
-34.672399490456584
 20
-75.21078489805446
 30
0.0
 10
-36.68774548273632
 20
-74.24854734472044
 30
0.0
 10
-36.736746386649116
 20
-74.26530478111532
 30
0.0
 10
-36.78906824592902
 20
-74.28562710687062
 30
0.0
 10
-36.85407757477828
 20
-74.34044859833564
 30
0.0
 10
-36.948772180742765
 20
-74.42718182621968
 30
0.0
 10
-37.244718391342545
 20
-74.76977254044226
 30
0.0
 10
-37.398464106152
 20
-74.94263122836429
 30
0.0
 10
-37.76822288236397
 20
-75.34455689976781
 30
0.0
 10
-37.85610110226338
 20
-75.43752452446604
 30
0.0
 10
-38.365801917714556
 20
-75.9579391897447
 30
0.0
 10
-38.38303851236781
 20
-75.97537524771006
 30
0.0
 10
-38.98235589805082
 20
-76.55227886125658
 30
0.0
 10
-39.04032465258123
 20
-76.6057967173821
 30
0.0
 10
-39.794473253481215
 20
-77.28386690257989
 30
0.0
 10
-40.55039202412394
 20
-77.87182249490894
 30
0.0
 10
-40.66108011319487
 20
-77.86002334390108
 30
0.0
 10
-41.47471081448909
 20
-77.43126604510684
 30
0.0
 10
-41.520484257486245
 20
-77.40632278032307
 30
0.0
 10
-41.566583063764504
 20
-77.38198608782784
 30
0.0
 10
-42.37382276635722
 20
-76.94131409879758
 30
0.0
 10
-42.444877600942064
 20
-76.85562697310826
 30
0.0
 10
-42.373177436111746
 20
-75.90065888321813
 30
0.0
 10
-42.225424191659464
 20
-74.89732032268049
 30
0.0
 10
-42.21290310085543
 20
-74.81942449666165
 30
0.0
 10
-42.063789170515406
 20
-74.00103330420927
 30
0.0
 10
-42.058797389453886
 20
-73.97702917051431
 30
0.0
 10
-41.90717435668915
 20
-73.26454281903524
 30
0.0
 10
-41.87833175006199
 20
-73.13990869522613
 30
0.0
 10
-41.74801490777983
 20
-72.60954719724853
 30
0.0
 10
-41.68904888417442
 20
-72.3858490102363
 30
0.0
 10
-41.56733562026837
 20
-71.94980034503632
 30
0.0
 10
-41.54745720888041
 20
-71.82293596868473
 30
0.0
 10
-41.53774442805391
 20
-71.73845359982815
 30
0.0
 10
-41.54975486698702
 20
-71.68362365144823
 30
0.0
 10
-41.56289827065306
 20
-71.63353222304885
 30
0.0
 10
-43.47928343863054
 20
-70.48680275817921
 30
0.0
 10
-43.529638222995395
 20
-70.49889804446637
 30
0.0
 10
-43.583633191939505
 20
-70.51423157671879
 30
0.0
 10
-43.65349043474833
 20
-70.56272461117766
 30
0.0
 10
-43.75589077956296
 20
-70.64020938774567
 30
0.0
 10
-44.08261730197326
 20
-70.95358190822823
 30
0.0
 10
-44.25187420036375
 20
-71.11128407422356
 30
0.0
 10
-44.657645168417815
 20
-71.47681891442818
 30
0.0
 10
-44.75384287669431
 20
-71.56114899030311
 30
0.0
 10
-45.31003646203115
 20
-72.03154780061075
 30
0.0
 10
-45.328830057217104
 20
-72.0472931838261
 30
0.0
 10
-45.97953614522307
 20
-72.56554089982387
 30
0.0
 10
-46.0422616757682
 20
-72.61339531700676
 30
0.0
 10
-46.85659203630842
 20
-73.21786645130184
 30
0.0
 10
-47.66424632372869
 20
-73.73245319653792
 30
0.0
 10
-47.773343157270666
 20
-73.7103408936774
 30
0.0
 10
-48.54324927852805
 20
-73.20727797136225
 30
0.0
 10
-48.58648586772556
 20
-73.178158014349
 30
0.0
 10
-48.63010319088467
 20
-73.14961149683248
 30
0.0
 10
-49.39253068626269
 20
-72.63528470028241
 30
0.0
 10
-49.455249434543475
 20
-72.54332040481472
 30
0.0
 10
-49.29443968713136
 20
-71.59926257211464
 30
0.0
 10
-49.05338155577554
 20
-70.61416853314415
 30
0.0
 10
-49.03362120169268
 20
-70.53778747637877
 30
0.0
 10
-48.80852711036032
 20
-69.73695556008653
 30
0.0
 10
-48.80130948044036
 20
-69.71352433880058
 30
0.0
 10
-48.58363439878208
 20
-69.01836687179487
 30
0.0
 10
-48.54324760208668
 20
-68.89698125721307
 30
0.0
 10
-48.36383953369007
 20
-68.38115324041522
 30
0.0
 10
-48.284185176414525
 20
-68.1639596535407
 30
0.0
 10
-48.12217447625947
 20
-67.7412244053432
 30
0.0
 10
-48.0905036417981
 20
-67.616778917394
 30
0.0
 10
-48.07292248424606
 20
-67.53357728484913
 30
0.0
 10
-48.07974579105718
 20
-67.47786358485646
 30
0.0
 10
-48.08814080640299
 20
-67.42676149119717
 30
0.0
 10
-49.888723888316086
 20
-66.10561761456125
 30
0.0
 10
-49.939990033477436
 20
-66.11294445692992
 30
0.0
 10
-49.99518360235722
 20
-66.12315444404666
 30
0.0
 10
-50.06927485116401
 20
-66.16489286296893
 30
0.0
 10
-50.17848103691663
 20
-66.23244824921841
 30
0.0
 10
-50.53311658671065
 20
-66.51384864698323
 30
0.0
 10
-50.7163972329733
 20
-66.65500839874674
 30
0.0
 10
-51.1546144630122
 20
-66.9809400744335
 30
0.0
 10
-51.25828627074655
 20
-67.05589150574615
 30
0.0
 10
-51.856084776742506
 20
-67.472140579424
 30
0.0
 10
-51.87627021367092
 20
-67.48605691689554
 30
0.0
 10
-52.57264657550154
 20
-67.94109435578216
 30
0.0
 10
-52.63957764784356
 20
-67.98286478768354
 30
0.0
 10
-53.50693340353536
 20
-68.50842475701324
 30
0.0
 10
-54.359225512815165
 20
-68.94512044833662
 30
0.0
 10
-54.4657723439323
 20
-68.91288931733607
 30
0.0
 10
-55.185187922476345
 20
-68.33994170654951
 30
0.0
 10
-55.225507693173704
 20
-68.30690096453606
 30
0.0
 10
-55.266260222609425
 20
-68.27439548982059
 30
0.0
 10
-55.97717527052938
 20
-67.69093380813206
 30
0.0
 10
-56.03100675789109
 20
-67.59350052842125
 30
0.0
 10
-55.782500629739545
 20
-66.66864936708974
 30
0.0
 10
-55.45025603900606
 20
-65.71045689152113
 30
0.0
 10
-55.423430076346584
 20
-65.6362618434824
 30
0.0
 10
-55.12433395899005
 20
-64.86002694302552
 30
0.0
 10
-55.114953909002885
 20
-64.83737454856377
 30
0.0
 10
-54.83313971489546
 20
-64.1656550348467
 30
0.0
 10
-54.78156364875334
 20
-64.04858467063772
 30
0.0
 10
-54.55464099879817
 20
-63.55182325017842
 30
0.0
 10
-54.45499831320829
 20
-63.34304296849256
 30
0.0
 10
-54.25411393266247
 20
-62.93733614985862
 30
0.0
 10
-54.21092899955972
 20
-62.81640318173455
 30
0.0
 10
-54.18563396912685
 20
-62.73521346443978
 30
0.0
 10
-54.187210180350384
 20
-62.67910562683318
 30
0.0
 10
-54.19078303167926
 20
-62.62744195495049
 30
0.0
 10
-55.85974043866199
 20
-61.143493926439476
 30
0.0
 10
-55.911467415892815
 20
-61.14598793633546
 30
0.0
 10
-55.96737454164041
 20
-61.15098465258263
 30
0.0
 10
-56.04504867988661
 20
-61.18560165724204
 30
0.0
 10
-56.16010099869018
 20
-61.242633974009586
 30
0.0
 10
-56.539529025905
 20
-61.48958929224304
 30
0.0
 10
-56.73522274313036
 20
-61.61296611280068
 30
0.0
 10
-57.20203516637989
 20
-61.896430324684374
 30
0.0
 10
-57.31227000199808
 20
-61.96134443556138
 30
0.0
 10
-57.9464199538879
 20
-62.31978576078327
 30
0.0
 10
-57.967819842213245
 20
-62.331750755236875
 30
0.0
 10
-58.703746697361694
 20
-62.719579031637984
 30
0.0
 10
-58.77429511883029
 20
-62.754898398200396
 30
0.0
 10
-59.68705391610583
 20
-63.19692856265714
 30
0.0
 10
-60.57649387354362
 20
-63.551895502630536
 30
0.0
 10
-60.679554364853054
 20
-63.50982879182807
 30
0.0
 10
-61.34215715071204
 20
-62.87203157677474
 30
0.0
 10
-61.37920577131462
 20
-62.83536041298992
 30
0.0
 10
-61.41673537233297
 20
-62.79918164035608
 30
0.0
 10
-62.06989042579193
 20
-62.151712555766814
 30
0.0
 10
-62.11436157918805
 20
-62.049666538978315
 30
0.0
 10
-61.78034295108662
 20
-61.15214967427529
 30
0.0
 10
-61.35983167838509
 20
-60.22927939203684
 30
0.0
 10
-61.3261758546734
 20
-60.1579223814747
 30
0.0
 10
-60.95570617872638
 20
-59.41310607706886
 30
0.0
 10
-60.94424614088858
 20
-59.391431579488334
 30
0.0
 10
-60.60076942760279
 20
-58.7490531142989
 30
0.0
 10
-60.53845734433768
 20
-58.63732681903284
 30
0.0
 10
-60.26601431723105
 20
-58.163997552136756
 30
0.0
 10
-60.14725896683057
 20
-57.96546534426192
 30
0.0
 10
-59.909266285053256
 20
-57.580352321301405
 30
0.0
 10
-59.854946764054006
 20
-57.46399463627459
 30
0.0
 10
-59.82216015437725
 20
-57.38553033238481
 30
0.0
 10
-59.8184754182123
 20
-57.32952143485857
 30
0.0
 10
-59.8171947071783
 20
-57.277750206958636
 30
0.0
 10
-61.33985958152873
 20
-55.64403901520421
 30
0.0
 10
-61.39159281229322
 20
-55.64167827517887
 30
0.0
 10
-61.44772218107733
 20
-55.64141780923443
 30
0.0
 10
-61.52829660564318
 20
-55.668609184149346
 30
0.0
 10
-61.64818397358321
 20
-55.71461722938453
 30
0.0
 10
-62.04907005107285
 20
-55.924957215870414
 30
0.0
 10
-62.25545707583756
 20
-56.02946686528694
 30
0.0
 10
-62.746762327937404
 20
-56.26797251968125
 30
0.0
 10
-62.86259144374039
 20
-56.32227884258216
 30
0.0
 10
-63.52751990894524
 20
-56.61976242409383
 30
0.0
 10
-63.54994618567946
 20
-56.62967092672804
 30
0.0
 10
-64.31895618248156
 20
-56.9468817918058
 30
0.0
 10
-64.39250197101221
 20
-56.97543970516594
 30
0.0
 10
-65.3426424527417
 20
-57.330055487770736
 30
0.0
 10
-66.26141382801062
 20
-57.60017421416242
 30
0.0
 10
-66.36008228020906
 20
-57.54864160732514
 30
0.0
 10
-66.96004929627617
 20
-56.85159977286369
 30
0.0
 10
-66.99350118217401
 20
-56.81162045481341
 30
0.0
 10
-67.02747804329184
 20
-56.77208632461596
 30
0.0
 10
-67.61713315219501
 20
-56.06629981872185
 30
0.0
 10
-67.65185315753048
 20
-55.960537848920396
 30
0.0
 10
-67.23525739719295
 20
-55.09824269132417
 30
0.0
 10
-66.73017491070787
 20
-54.21880481963908
 30
0.0
 10
-66.68998499453289
 20
-54.15091293452809
 30
0.0
 10
-66.25139746082827
 20
-53.44406069863718
 30
0.0
 10
-66.23795814636442
 20
-53.42355457420193
 30
0.0
 10
-65.83583739960675
 20
-52.81616240258974
 30
0.0
 10
-65.76333690004688
 20
-52.710762030966634
 30
0.0
 10
-65.44776773490702
 20
-52.26502455225037
 30
0.0
 10
-65.31094334598525
 20
-52.078485126367845
 30
0.0
 10
-65.03793385122123
 20
-51.71735028617372
 30
0.0
 10
-64.97295710422912
 20
-51.60659043976397
 30
0.0
 10
-64.9329670452132
 20
-51.53154109640303
 30
0.0
 10
-64.9240537432537
 20
-51.47612334716248
 30
0.0
 10
-64.91793072479142
 20
-51.42469953065756
 30
0.0
 10
-66.2809218328445
 20
-49.65558228835493
 30
0.0
 10
-66.33220668365058
 20
-49.64838754467649
 30
0.0
 10
-66.38806502856013
 20
-49.642872185524524
 30
0.0
 10
-66.47083164850538
 20
-49.6623989719145
 30
0.0
 10
-66.59450049108173
 20
-49.69697842526153
 30
0.0
 10
-67.01332161758289
 20
-49.86885460463556
 30
0.0
 10
-67.2285882132924
 20
-49.95357864835413
 30
0.0
 10
-67.74006868602163
 20
-50.14502974899248
 30
0.0
 10
-67.86047417157496
 20
-50.188251037999
 30
0.0
 10
-68.55033773483433
 20
-50.42216257938975
 30
0.0
 10
-68.57359331705112
 20
-50.42992751392715
 30
0.0
 10
-69.36892836800429
 20
-50.67373330719355
 30
0.0
 10
-69.44482520056296
 20
-50.69527879938198
 30
0.0
 10
-70.42399749802951
 20
-50.959363823886655
 30
0.0
 10
-71.36402609524816
 20
-51.14226052361665
 30
0.0
 10
-71.45743540642994
 20
-51.081714891146355
 30
0.0
 10
-71.98949412099547
 20
-50.33155406598102
 30
0.0
 10
-72.01905529581246
 20
-50.2886179333498
 30
0.0
 10
-72.04918082715255
 20
-50.24607587294642
 30
0.0
 10
-72.57015408120118
 20
-49.48817442293867
 30
0.0
 10
-72.5948178178207
 20
-49.37962594011767
 30
0.0
 10
-72.09930598376812
 20
-48.56013037047805
 30
0.0
 10
-71.51409096655159
 20
-47.73185344098395
 30
0.0
 10
-71.46772014834171
 20
-47.66802331765158
 30
0.0
 10
-70.96486907989568
 20
-47.005346993140336
 30
0.0
 10
-70.9495685939845
 20
-46.986189450409235
 30
0.0
 10
-70.49233766533615
 20
-46.41912135661792
 30
0.0
 10
-70.41028588647852
 20
-46.320973170893396
 30
0.0
 10
-70.05436381647533
 20
-45.906744637346925
 30
0.0
 10
-69.90067280668181
 20
-45.73383730863863
 30
0.0
 10
-69.59504571618746
 20
-45.39985431717155
 30
0.0
 10
-69.51998276119139
 20
-45.295665670891616
 30
0.0
 10
-69.47314068691284
 20
-45.22469082438747
 30
0.0
 10
-69.45907714957683
 20
-45.17035123660554
 30
0.0
 10
-69.44816563299271
 20
-45.11972674584411
 30
0.0
 10
-70.6395049598829
 20
-43.230750518929355
 30
0.0
 10
-70.68989073761766
 20
-43.21878499926396
 30
0.0
 10
-70.74498717350916
 20
-43.208063216079005
 30
0.0
 10
-70.82921863280176
 20
-43.219753811843134
 30
0.0
 10
-70.95558214377918
 20
-43.242600787822646
 30
0.0
 10
-71.38865770417294
 20
-43.374502706040474
 30
0.0
 10
-71.61091210024401
 20
-43.438696586118546
 30
0.0
 10
-72.13807288481739
 20
-43.581410653844664
 30
0.0
 10
-72.26199661238469
 20
-43.61316707871493
 30
0.0
 10
-72.97073272789976
 20
-43.78145095694844
 30
0.0
 10
-72.99461324470641
 20
-43.78700408486512
 30
0.0
 10
-73.80928391678566
 20
-43.9552622322426
 30
0.0
 10
-73.88686480927886
 20
-43.969605960699276
 30
0.0
 10
-74.88646392112501
 20
-44.14083943841299
 30
0.0
 10
-75.83948873518119
 20
-44.23490680870779
 30
0.0
 10
-75.92681802096101
 20
-44.16588022779963
 30
0.0
 10
-76.38629268291054
 20
-43.369192852234896
 30
0.0
 10
-76.41170336197949
 20
-43.32367722930011
 30
0.0
 10
-76.43771281928925
 20
-43.27850109984726
 30
0.0
 10
-76.8854258867945
 20
-42.47514517091982
 30
0.0
 10
-76.89981660889384
 20
-42.36476410304929
 30
0.0
 10
-76.3297432769406
 20
-41.59526987789821
 30
0.0
 10
-75.669538619606
 20
-40.82543281803319
 30
0.0
 10
-75.617394407779
 20
-40.76622539789839
 30
0.0
 10
-75.05469887786164
 20
-40.15354860813394
 30
0.0
 10
-75.03767168172347
 20
-40.13590800428134
 30
0.0
 10
-74.52934873302573
 20
-39.614147403108745
 30
0.0
 10
-74.4384667488532
 20
-39.524113933067994
 30
0.0
 10
-74.04531962993548
 20
-39.145034599938214
 30
0.0
 10
-73.87611264139042
 20
-38.9872788842259
 30
0.0
 10
-73.54055381702617
 20
-38.683382796023665
 30
0.0
 10
-73.45606430997361
 20
-38.58668096344328
 30
0.0
 10
-73.40278187026547
 20
-38.520404343298985
 30
0.0
 10
-73.38369168842478
 20
-38.46762045522696
 30
0.0
 10
-73.36808756451887
 20
-38.41824018005408
 30
0.0
 10
-74.37730557740541
 20
-36.426005359529746
 30
0.0
 10
-74.42634949004243
 20
-36.40937421729445
 30
0.0
 10
-74.4801998274562
 20
-36.39354023349265
 30
0.0
 10
-74.56515589700324
 20
-36.39729190125501
 30
0.0
 10
-74.69310358930373
 20
-36.4082056198206
 30
0.0
 10
-75.13662769999361
 20
-36.498974118082245
 30
0.0
 10
-75.36391671680212
 20
-36.542073696393516
 30
0.0
 10
-75.90212510529011
 20
-36.63479655484877
 30
0.0
 10
-76.02847802869772
 20
-36.65480903897918
 30
0.0
 10
-76.74985829800188
 20
-36.75598636928269
 30
0.0
 10
-76.77415388655805
 20
-36.75927888949083
 30
0.0
 10
-77.60100082460465
 20
-36.850510732330335
 30
0.0
 10
-77.67958399335966
 20
-36.85752664385384
 30
0.0
 10
-78.69082540664873
 20
-36.93440376881753
 30
0.0
 10
-79.64847122120935
 20
-36.93881514224468
 30
0.0
 10
-79.72895302868372
 20
-36.86191422097361
 30
0.0
 10
-80.11180575816707
 20
-36.02570161231178
 30
0.0
 10
-80.13284263152666
 20
-35.97800649200436
 30
0.0
 10
-80.15450744276004
 20
-35.93059330295205
 30
0.0
 10
-80.52502580518662
 20
-35.08884281589393
 30
0.0
 10
-80.52901704658255
 20
-34.97759919576721
 30
0.0
 10
-79.88939204166755
 20
-34.26486865802342
 30
0.0
 10
-79.15999964648198
 20
-33.56023682354998
 30
0.0
 10
-79.10254028624628
 20
-33.506172423549756
 30
0.0
 10
-78.48494528340692
 20
-32.94887939419008
 30
0.0
 10
-78.46634101265364
 20
-32.932910755476925
 30
0.0
 10
-77.91139320425702
 20
-32.4610428978467
 30
0.0
 10
-77.81247968891427
 20
-32.37991536086169
 30
0.0
 10
-77.38556251209916
 20
-32.03931659095841
 30
0.0
 10
-77.20232654190193
 20
-31.898098851144066
 30
0.0
 10
-76.83978488668173
 20
-31.626960315956723
 30
0.0
 10
-76.7466113243986
 20
-31.538595116257632
 30
0.0
 10
-76.68735676725683
 20
-31.477599163794075
 30
0.0
 10
-76.66340770611588
 20
-31.426834842138234
 30
0.0
 10
-76.64324810449013
 20
-31.37913273818766
 30
0.0
 10
-77.4614757591881
 20
-29.30114715528972
 30
0.0
 10
-77.50874680705974
 20
-29.279996545560476
 30
0.0
 10
-77.56087780729432
 20
-29.25918951076082
 30
0.0
 10
-77.64581189010192
 20
-29.25496928073021
 30
0.0
 10
-77.77421935480503
 20
-29.253853831730716
 30
0.0
 10
-78.22429430995884
 20
-29.302691233209753
 30
0.0
 10
-78.45462052345262
 20
-29.32431774911033
 30
0.0
 10
-78.99914672118527
 20
-29.366234546480648
 30
0.0
 10
-79.1268184463991
 20
-29.3743272194411
 30
0.0
 10
-79.85450335374762
 20
-29.407508851797942
 30
0.0
 10
-79.87900050354749
 20
-29.40851182951159
 30
0.0
 10
-80.71075734693964
 20
-29.421915619097877
 30
0.0
 10
-80.78965220024385
 20
-29.42154205760546
 30
0.0
 10
-81.80364908907545
 20
-29.403387230880753
 30
0.0
 10
-82.75750007828884
 20
-29.318103840131965
 30
0.0
 10
-82.83042713043987
 20
-29.234004386559167
 30
0.0
 10
-83.1332934039044
 20
-28.36561521127221
 30
0.0
 10
-83.14977159875517
 20
-28.316159740024343
 30
0.0
 10
-83.16690137277203
 20
-28.266926160182756
 30
0.0
 10
-83.45696890142851
 20
-27.394178448540394
 30
0.0
 10
-83.45052558694816
 20
-27.283049889091057
 30
0.0
 10
-82.74696995661301
 20
-26.633346540347304
 30
0.0
 10
-81.95479975017159
 20
-26.000112261162684
 30
0.0
 10
-81.89253019645098
 20
-25.9516660011882
 30
0.0
 10
-81.2254631677809
 20
-25.454654243413454
 30
0.0
 10
-81.20544531741287
 20
-25.44049790281093
 30
0.0
 10
-80.60874955061138
 20
-25.0226695804225
 30
0.0
 10
-80.50267375962778
 20
-24.9511609282053
 30
0.0
 10
-80.04573828841545
 20
-24.652035915765055
 30
0.0
 10
-79.8500836208606
 20
-24.528597178423826
 30
0.0
 10
-79.46374516388613
 20
-24.29259897144772
 30
0.0
 10
-79.36270635898794
 20
-24.213346961182157
 30
0.0
 10
-79.29800041559129
 20
-24.158167711022774
 30
0.0
 10
-79.2694029403605
 20
-24.109869074467127
 30
0.0
 10
-79.24486502431888
 20
-24.064264349543553
 30
0.0
 10
-79.86491170677847
 20
-21.918789416290988
 30
0.0
 10
-79.90999447021629
 20
-21.893305211386593
 30
0.0
 10
-79.95994800416719
 20
-21.867707978559036
 30
0.0
 10
-80.04411369646175
 20
-21.855552938268715
 30
0.0
 10
-80.1718524841506
 20
-21.842418124310047
 30
0.0
 10
-80.62452300887945
 20
-21.848895244166275
 30
0.0
 10
-80.8558623040127
 20
-21.848858643056815
 30
0.0
 10
-81.40192099518522
 20
-21.83960101301974
 30
0.0
 10
-81.52978953849349
 20
-21.83570275610927
 30
0.0
 10
-82.25738416275581
 20
-21.800597089141213
 30
0.0
 10
-82.28186759196613
 20
-21.799301710156147
 30
0.0
 10
-83.11122483165727
 20
-21.73475965350439
 30
0.0
 10
-83.1897380387031
 20
-21.726999901867888
 30
0.0
 10
-84.19757936195869
 20
-21.613972668724806
 30
0.0
 10
-85.13925304903479
 20
-21.439743987304443
 30
0.0
 10
-85.203984460306
 20
-21.349185070451828
 30
0.0
 10
-85.4242026780506
 20
-20.456250763836124
 30
0.0
 10
-85.43597738342365
 20
-20.405469558107384
 30
0.0
 10
-85.44842158315406
 20
-20.354848253946415
 30
0.0
 10
-85.65548915416888
 20
-19.45877305599042
 30
0.0
 10
-85.63866790789154
 20
-19.348736158994658
 30
0.0
 10
-84.87736452431288
 20
-18.76776961564058
 30
0.0
 10
-84.02937812687318
 20
-18.21149777735896
 30
0.0
 10
-83.96284560674475
 20
-18.169095404884818
 30
0.0
 10
-83.25216876127713
 20
-17.736732675892974
 30
0.0
 10
-83.23091324888311
 20
-17.7245130398313
 30
0.0
 10
-82.59771330753033
 20
-17.364396143005344
 30
0.0
 10
-82.48540743877115
 20
-17.30313479616281
 30
0.0
 10
-82.00246923851226
 20
-17.04811226255033
 30
0.0
 10
-81.79611529385328
 20
-16.943537311744358
 30
0.0
 10
-81.38937519137572
 20
-16.744753393707995
 30
0.0
 10
-81.28135907651287
 20
-16.67531104239178
 30
0.0
 10
-81.21177038501848
 20
-16.626433411771
 30
0.0
 10
-81.17877581133841
 20
-16.58102491047023
 30
0.0
 10
-81.15007522096938
 20
-16.537918340536066
 30
0.0
 10
-81.56649193865061
 20
-14.343808567785429
 30
0.0
 10
-81.60899022870854
 20
-14.3142147238149
 30
0.0
 10
-81.65632730292326
 20
-14.28405224236191
 30
0.0
 10
-81.73898495357459
 20
-14.264069210742997
 30
0.0
 10
-81.86493249119
 20
-14.239030461042509
 30
0.0
 10
-82.31622050064627
 20
-14.203090378113735
 30
0.0
 10
-82.54653985937526
 20
-14.181390981646102
 30
0.0
 10
-83.08933226057543
 20
-14.121040280587273
 30
0.0
 10
-83.21627390862189
 20
-14.105185351827775
 30
0.0
 10
-83.93738412207844
 20
-14.002100895398401
 30
0.0
 10
-83.96163866944298
 20
-13.99851854355172
 30
0.0
 10
-84.78130788419016
 20
-13.856597838576459
 30
0.0
 10
-84.85874946809105
 20
-13.84152008977226
 30
0.0
 10
-85.85157827998371
 20
-13.634613737599704
 30
0.0
 10
-86.77279920270149
 20
-13.372970893424693
 30
0.0
 10
-86.82876611112313
 20
-13.276748348309704
 30
0.0
 10
-86.96440098753203
 20
-12.367116049158337
 30
0.0
 10
-86.9713687268932
 20
-12.31545537601055
 30
0.0
 10
-86.97901799226248
 20
-12.263891209371327
 30
0.0
 10
-87.10126588837618
 20
-11.352363266160793
 30
0.0
 10
-87.07421453601899
 20
-11.24438503982592
 30
0.0
 10
-86.26185376070524
 20
-10.737260856733862
 30
0.0
 10
-85.3655033072184
 20
-10.262839996271483
 30
0.0
 10
-85.29529251086126
 20
-10.226854144871606
 30
0.0
 10
-84.54725130226733
 20
-9.862940063871175
 30
0.0
 10
-84.52494492205452
 20
-9.852764518951435
 30
0.0
 10
-83.86080539000248
 20
-9.55352376792569
 30
0.0
 10
-83.74325639148047
 20
-9.503048093376602
 30
0.0
 10
-83.23855954044353
 20
-9.294369185786916
 30
0.0
 10
-83.02331976456578
 20
-9.209577029944004
 30
0.0
 10
-82.59975246323052
 20
-9.049754321066603
 30
0.0
 10
-82.48570828790429
 20
-8.990731890579982
 30
0.0
 10
-82.41184839623516
 20
-8.948585417873158
 30
0.0
 10
-82.3747466816057
 20
-8.906466103369414
 30
0.0
 10
-82.34213563872939
 20
-8.866236510511186
 30
0.0
 10
-82.5512629065445
 20
-6.64277381383727
 30
0.0
 10
-82.59080324672142
 20
-6.609330402565499
 30
0.0
 10
-82.6351078612897
 20
-6.574867741458616
 30
0.0
 10
-82.71553107189183
 20
-6.547232330111492
 30
0.0
 10
-82.83858052794463
 20
-6.5105096861018446
 30
0.0
 10
-83.28452008687461
 20
-6.43246824312912
 30
0.0
 10
-83.51179545439341
 20
-6.3892967463797
 30
0.0
 10
-84.04655148648274
 20
-6.278383338430003
 30
0.0
 10
-84.17145067150001
 20
-6.2507110715055
 30
0.0
 10
-84.87973933166656
 20
-6.080553735524435
 30
0.0
 10
-84.90355184735097
 20
-6.074715892652976
 30
0.0
 10
-85.70632975462281
 20
-5.856663743612462
 30
0.0
 10
-85.78201915595494
 20
-5.834400501439199
 30
0.0
 10
-86.7511104411874
 20
-5.535433330699622
 30
0.0
 10
-87.6437828769544
 20
-5.1886756504922555
 30
0.0
 10
-87.69049344332292
 20
-5.087635084301169
 30
0.0
 10
-87.74035301422532
 20
-4.169298673965995
 30
0.0
 10
-87.74245255483056
 20
-4.117212529252317
 30
0.0
 10
-87.74523966381959
 20
-4.065158647885308
 30
0.0
 10
-87.78159356612557
 20
-3.146188499760256
 30
0.0
 10
-87.74454983594568
 20
-3.041217860621789
 30
0.0
 10
-86.88827072459975
 20
-2.612392663347025
 30
0.0
 10
-85.95143337508034
 20
-2.2239920082840032
 30
0.0
 10
-85.8781613174974
 20
-2.1947389229144108
 30
0.0
 10
-85.09932955881499
 20
-1.9024715799341934
 30
0.0
 10
-85.07616834005475
 20
-1.8944295492110141
 30
0.0
 10
-84.3869256993911
 20
-1.6586946824650548
 30
0.0
 10
-84.26516659593186
 20
-1.6194482622522663
 30
0.0
 10
-83.74314638819078
 20
-1.458946858428575
 30
0.0
 10
-83.52091231598388
 20
-1.39468265406307
 30
0.0
 10
-83.08424014046493
 20
-1.2752256820568644
 30
0.0
 10
-82.96517012898867
 20
-1.2271418636411784
 30
0.0
 10
-82.88768812052851
 20
-1.1920969335658853
 30
0.0
 10
-82.84680531615186
 20
-1.1536369519094762
 30
0.0
 10
-82.81057040778562
 20
-1.1166378752357253
 30
0.0
 10
-82.81057040778562
 20
1.1166378752358217
 30
0.0
 10
-82.84680531615035
 20
1.1536369519080765
 30
0.0
 10
-82.88768812052633
 20
1.192096933563903
 30
0.0
 10
-82.96517012901279
 20
1.2271418636506537
 30
0.0
 10
-83.0842401404588
 20
1.2752256820534955
 30
0.0
 10
-83.5209123159843
 20
1.3946826540632546
 30
0.0
 10
-83.7431463881912
 20
1.4589468584287433
 30
0.0
 10
-84.2651665959319
 20
1.6194482622522215
 30
0.0
 10
-84.38692569939116
 20
1.6586946824650073
 30
0.0
 10
-85.07616834005478
 20
1.8944295492109497
 30
0.0
 10
-85.09932955881501
 20
1.9024715799341267
 30
0.0
 10
-85.87816131749756
 20
2.194738922913797
 30
0.0
 10
-85.95143337508051
 20
2.2239920082834033
 30
0.0
 10
-86.88827072459333
 20
2.6123926633438153
 30
0.0
 10
-87.74454983594693
 20
3.0412178606217855
 30
0.0
 10
-87.78159356612551
 20
3.1461884997602505
 30
0.0
 10
-87.74523966381958
 20
4.065158647885311
 30
0.0
  0
ENDSEC
  0
EOF
